<mxfile host="app.diagrams.net" modified="2023-06-08T16:40:27.092Z" agent="Mozilla/5.0 (Windows NT 10.0; Win64; x64) AppleWebKit/537.36 (KHTML, like Gecko) Chrome/114.0.0.0 Safari/537.36" etag="ADjp33qeeVr4DyFyOyNn" version="21.3.7" type="device">
  <diagram name="페이지-1" id="bdEJKNXZI4ZzmCXfWzTs">
    <mxGraphModel dx="7043" dy="3443" grid="1" gridSize="10" guides="1" tooltips="1" connect="1" arrows="1" fold="1" page="1" pageScale="1" pageWidth="827" pageHeight="1169" math="0" shadow="0">
      <root>
        <mxCell id="0" />
        <mxCell id="1" parent="0" />
        <mxCell id="w-6r28DezkTKs4tXM-bR-8" style="edgeStyle=orthogonalEdgeStyle;rounded=0;orthogonalLoop=1;jettySize=auto;html=1;exitX=0.5;exitY=1;exitDx=0;exitDy=0;fontStyle=1" edge="1" parent="1" source="w-6r28DezkTKs4tXM-bR-7">
          <mxGeometry relative="1" as="geometry">
            <mxPoint x="330" y="300" as="targetPoint" />
          </mxGeometry>
        </mxCell>
        <mxCell id="w-6r28DezkTKs4tXM-bR-1" value="0" style="rounded=0;whiteSpace=wrap;html=1;fontStyle=1" vertex="1" parent="1">
          <mxGeometry x="310" y="160" width="40" height="40" as="geometry" />
        </mxCell>
        <mxCell id="w-6r28DezkTKs4tXM-bR-4" value="code" style="text;html=1;strokeColor=none;fillColor=none;align=center;verticalAlign=middle;whiteSpace=wrap;rounded=0;fontStyle=1" vertex="1" parent="1">
          <mxGeometry x="270" y="150" width="40" height="40" as="geometry" />
        </mxCell>
        <mxCell id="w-6r28DezkTKs4tXM-bR-9" value="program" style="text;html=1;strokeColor=none;fillColor=none;align=center;verticalAlign=middle;whiteSpace=wrap;rounded=0;fontStyle=1" vertex="1" parent="1">
          <mxGeometry x="330" y="200" width="60" height="30" as="geometry" />
        </mxCell>
        <mxCell id="w-6r28DezkTKs4tXM-bR-12" style="edgeStyle=orthogonalEdgeStyle;rounded=0;orthogonalLoop=1;jettySize=auto;html=1;entryX=0.5;entryY=0;entryDx=0;entryDy=0;fontStyle=1" edge="1" parent="1" source="w-6r28DezkTKs4tXM-bR-13" target="w-6r28DezkTKs4tXM-bR-17">
          <mxGeometry relative="1" as="geometry">
            <mxPoint x="160" y="380" as="targetPoint" />
          </mxGeometry>
        </mxCell>
        <mxCell id="w-6r28DezkTKs4tXM-bR-13" value="3" style="rounded=0;whiteSpace=wrap;html=1;fontStyle=1" vertex="1" parent="1">
          <mxGeometry x="310" y="300" width="40" height="40" as="geometry" />
        </mxCell>
        <mxCell id="w-6r28DezkTKs4tXM-bR-14" value="identifier" style="text;html=1;strokeColor=none;fillColor=none;align=center;verticalAlign=middle;whiteSpace=wrap;rounded=0;fontStyle=1" vertex="1" parent="1">
          <mxGeometry x="330" y="270" width="60" height="30" as="geometry" />
        </mxCell>
        <mxCell id="w-6r28DezkTKs4tXM-bR-16" style="edgeStyle=orthogonalEdgeStyle;rounded=0;orthogonalLoop=1;jettySize=auto;html=1;exitX=0;exitY=0.5;exitDx=0;exitDy=0;entryX=1;entryY=0.5;entryDx=0;entryDy=0;fontStyle=1" edge="1" parent="1" source="w-6r28DezkTKs4tXM-bR-17" target="w-6r28DezkTKs4tXM-bR-54">
          <mxGeometry relative="1" as="geometry">
            <mxPoint x="60" y="380" as="targetPoint" />
            <Array as="points">
              <mxPoint x="290" y="390" />
              <mxPoint x="290" y="390" />
            </Array>
          </mxGeometry>
        </mxCell>
        <mxCell id="w-6r28DezkTKs4tXM-bR-17" value="4" style="rounded=0;whiteSpace=wrap;html=1;fontStyle=1" vertex="1" parent="1">
          <mxGeometry x="310" y="370" width="40" height="40" as="geometry" />
        </mxCell>
        <mxCell id="w-6r28DezkTKs4tXM-bR-18" value="program_begin" style="text;html=1;strokeColor=none;fillColor=none;align=center;verticalAlign=middle;whiteSpace=wrap;rounded=0;fontStyle=1" vertex="1" parent="1">
          <mxGeometry x="350" y="340" width="60" height="30" as="geometry" />
        </mxCell>
        <mxCell id="w-6r28DezkTKs4tXM-bR-50" value="acc" style="text;html=1;strokeColor=none;fillColor=none;align=center;verticalAlign=middle;whiteSpace=wrap;rounded=0;fontStyle=1" vertex="1" parent="1">
          <mxGeometry x="150" y="165" width="60" height="30" as="geometry" />
        </mxCell>
        <mxCell id="w-6r28DezkTKs4tXM-bR-52" value="" style="edgeStyle=orthogonalEdgeStyle;rounded=0;orthogonalLoop=1;jettySize=auto;html=1;exitX=0.5;exitY=1;exitDx=0;exitDy=0;fontStyle=1" edge="1" parent="1" source="w-6r28DezkTKs4tXM-bR-1" target="w-6r28DezkTKs4tXM-bR-7">
          <mxGeometry relative="1" as="geometry">
            <mxPoint x="330" y="200" as="sourcePoint" />
            <mxPoint x="330" y="300" as="targetPoint" />
          </mxGeometry>
        </mxCell>
        <mxCell id="w-6r28DezkTKs4tXM-bR-7" value="2" style="rounded=0;whiteSpace=wrap;html=1;fontStyle=1" vertex="1" parent="1">
          <mxGeometry x="310" y="230" width="40" height="40" as="geometry" />
        </mxCell>
        <mxCell id="w-6r28DezkTKs4tXM-bR-54" value="5" style="rounded=0;whiteSpace=wrap;html=1;fontStyle=1" vertex="1" parent="1">
          <mxGeometry x="200" y="370" width="40" height="40" as="geometry" />
        </mxCell>
        <mxCell id="w-6r28DezkTKs4tXM-bR-55" style="edgeStyle=orthogonalEdgeStyle;rounded=0;orthogonalLoop=1;jettySize=auto;html=1;exitX=0;exitY=0.5;exitDx=0;exitDy=0;entryX=1;entryY=0.5;entryDx=0;entryDy=0;fontStyle=1" edge="1" parent="1" target="w-6r28DezkTKs4tXM-bR-56">
          <mxGeometry relative="1" as="geometry">
            <mxPoint x="-50" y="380" as="targetPoint" />
            <mxPoint x="200" y="390" as="sourcePoint" />
            <Array as="points">
              <mxPoint x="180" y="390" />
              <mxPoint x="180" y="390" />
            </Array>
          </mxGeometry>
        </mxCell>
        <mxCell id="w-6r28DezkTKs4tXM-bR-56" value="21" style="rounded=0;whiteSpace=wrap;html=1;fontStyle=1" vertex="1" parent="1">
          <mxGeometry x="80" y="370" width="40" height="40" as="geometry" />
        </mxCell>
        <mxCell id="w-6r28DezkTKs4tXM-bR-57" style="edgeStyle=orthogonalEdgeStyle;rounded=0;orthogonalLoop=1;jettySize=auto;html=1;entryX=0.5;entryY=0;entryDx=0;entryDy=0;fontStyle=1" edge="1" parent="1">
          <mxGeometry relative="1" as="geometry">
            <mxPoint x="330" y="440" as="targetPoint" />
            <mxPoint x="330" y="410" as="sourcePoint" />
          </mxGeometry>
        </mxCell>
        <mxCell id="w-6r28DezkTKs4tXM-bR-58" value="6" style="rounded=0;whiteSpace=wrap;html=1;fontStyle=1" vertex="1" parent="1">
          <mxGeometry x="310" y="440" width="40" height="40" as="geometry" />
        </mxCell>
        <mxCell id="w-6r28DezkTKs4tXM-bR-59" value="statement" style="text;html=1;strokeColor=none;fillColor=none;align=center;verticalAlign=middle;whiteSpace=wrap;rounded=0;fontStyle=1" vertex="1" parent="1">
          <mxGeometry x="330" y="410" width="60" height="30" as="geometry" />
        </mxCell>
        <mxCell id="w-6r28DezkTKs4tXM-bR-60" style="edgeStyle=orthogonalEdgeStyle;rounded=0;orthogonalLoop=1;jettySize=auto;html=1;exitX=0;exitY=0.5;exitDx=0;exitDy=0;fontStyle=1" edge="1" parent="1" target="w-6r28DezkTKs4tXM-bR-61">
          <mxGeometry relative="1" as="geometry">
            <mxPoint x="60" y="450" as="targetPoint" />
            <mxPoint x="310" y="460" as="sourcePoint" />
            <Array as="points" />
          </mxGeometry>
        </mxCell>
        <mxCell id="w-6r28DezkTKs4tXM-bR-61" value="22" style="rounded=0;whiteSpace=wrap;html=1;fontStyle=1" vertex="1" parent="1">
          <mxGeometry x="200" y="440" width="40" height="40" as="geometry" />
        </mxCell>
        <mxCell id="w-6r28DezkTKs4tXM-bR-62" value="" style="curved=1;endArrow=classic;html=1;rounded=0;entryX=0.149;entryY=-0.009;entryDx=0;entryDy=0;exitX=-0.006;exitY=0.138;exitDx=0;exitDy=0;fontStyle=1;exitPerimeter=0;entryPerimeter=0;" edge="1" parent="1" source="w-6r28DezkTKs4tXM-bR-58" target="w-6r28DezkTKs4tXM-bR-58">
          <mxGeometry width="50" height="50" relative="1" as="geometry">
            <mxPoint x="550" y="530" as="sourcePoint" />
            <mxPoint x="600" y="480" as="targetPoint" />
            <Array as="points">
              <mxPoint x="300" y="450" />
              <mxPoint x="290" y="446" />
              <mxPoint x="290" y="430" />
              <mxPoint x="310" y="430" />
            </Array>
          </mxGeometry>
        </mxCell>
        <mxCell id="w-6r28DezkTKs4tXM-bR-63" value="" style="endArrow=classic;html=1;rounded=0;exitX=1;exitY=0.5;exitDx=0;exitDy=0;entryX=0.75;entryY=1;entryDx=0;entryDy=0;fontStyle=1" edge="1" parent="1" target="w-6r28DezkTKs4tXM-bR-86">
          <mxGeometry width="50" height="50" relative="1" as="geometry">
            <mxPoint x="350" y="451" as="sourcePoint" />
            <mxPoint x="1030" y="340" as="targetPoint" />
            <Array as="points">
              <mxPoint x="600" y="451" />
              <mxPoint x="1190" y="450" />
            </Array>
          </mxGeometry>
        </mxCell>
        <mxCell id="w-6r28DezkTKs4tXM-bR-64" value="" style="endArrow=classic;html=1;rounded=0;exitX=1;exitY=0.5;exitDx=0;exitDy=0;entryX=0.25;entryY=1;entryDx=0;entryDy=0;fontStyle=1" edge="1" parent="1" target="w-6r28DezkTKs4tXM-bR-86">
          <mxGeometry width="50" height="50" relative="1" as="geometry">
            <mxPoint x="350" y="380" as="sourcePoint" />
            <mxPoint x="1010" y="340" as="targetPoint" />
            <Array as="points">
              <mxPoint x="600" y="380" />
              <mxPoint x="1170" y="380" />
            </Array>
          </mxGeometry>
        </mxCell>
        <mxCell id="w-6r28DezkTKs4tXM-bR-65" value="" style="endArrow=classic;html=1;rounded=0;exitX=1;exitY=0.5;exitDx=0;exitDy=0;entryX=0.5;entryY=0;entryDx=0;entryDy=0;fontStyle=1" edge="1" parent="1" target="w-6r28DezkTKs4tXM-bR-72">
          <mxGeometry width="50" height="50" relative="1" as="geometry">
            <mxPoint x="350" y="470" as="sourcePoint" />
            <mxPoint x="750" y="510" as="targetPoint" />
            <Array as="points">
              <mxPoint x="600" y="470" />
              <mxPoint x="780" y="470" />
            </Array>
          </mxGeometry>
        </mxCell>
        <mxCell id="w-6r28DezkTKs4tXM-bR-66" value="" style="endArrow=classic;html=1;rounded=0;exitX=1;exitY=0.5;exitDx=0;exitDy=0;entryX=0.75;entryY=0;entryDx=0;entryDy=0;fontStyle=1" edge="1" parent="1" target="w-6r28DezkTKs4tXM-bR-72">
          <mxGeometry width="50" height="50" relative="1" as="geometry">
            <mxPoint x="350" y="400" as="sourcePoint" />
            <mxPoint x="760" y="510" as="targetPoint" />
            <Array as="points">
              <mxPoint x="600" y="400" />
              <mxPoint x="790" y="400" />
            </Array>
          </mxGeometry>
        </mxCell>
        <mxCell id="w-6r28DezkTKs4tXM-bR-67" value="13" style="rounded=0;whiteSpace=wrap;html=1;fontStyle=1" vertex="1" parent="1">
          <mxGeometry x="390" y="520" width="40" height="40" as="geometry" />
        </mxCell>
        <mxCell id="w-6r28DezkTKs4tXM-bR-68" value="14" style="rounded=0;whiteSpace=wrap;html=1;fontStyle=1" vertex="1" parent="1">
          <mxGeometry x="460" y="520" width="40" height="40" as="geometry" />
        </mxCell>
        <mxCell id="w-6r28DezkTKs4tXM-bR-69" value="15" style="rounded=0;whiteSpace=wrap;html=1;fontStyle=1" vertex="1" parent="1">
          <mxGeometry x="530" y="520" width="40" height="40" as="geometry" />
        </mxCell>
        <mxCell id="w-6r28DezkTKs4tXM-bR-70" value="17" style="rounded=0;whiteSpace=wrap;html=1;fontStyle=1" vertex="1" parent="1">
          <mxGeometry x="610" y="520" width="40" height="40" as="geometry" />
        </mxCell>
        <mxCell id="w-6r28DezkTKs4tXM-bR-71" value="18" style="rounded=0;whiteSpace=wrap;html=1;fontStyle=1" vertex="1" parent="1">
          <mxGeometry x="690" y="520" width="40" height="40" as="geometry" />
        </mxCell>
        <mxCell id="w-6r28DezkTKs4tXM-bR-72" value="20" style="rounded=0;whiteSpace=wrap;html=1;fontStyle=1" vertex="1" parent="1">
          <mxGeometry x="760" y="520" width="40" height="40" as="geometry" />
        </mxCell>
        <mxCell id="w-6r28DezkTKs4tXM-bR-79" value="7" style="rounded=0;whiteSpace=wrap;html=1;fontStyle=1" vertex="1" parent="1">
          <mxGeometry x="641" y="300" width="40" height="40" as="geometry" />
        </mxCell>
        <mxCell id="w-6r28DezkTKs4tXM-bR-80" value="8" style="rounded=0;whiteSpace=wrap;html=1;fontStyle=1" vertex="1" parent="1">
          <mxGeometry x="722" y="300" width="40" height="40" as="geometry" />
        </mxCell>
        <mxCell id="w-6r28DezkTKs4tXM-bR-81" value="9" style="rounded=0;whiteSpace=wrap;html=1;fontStyle=1" vertex="1" parent="1">
          <mxGeometry x="786" y="300" width="40" height="40" as="geometry" />
        </mxCell>
        <mxCell id="w-6r28DezkTKs4tXM-bR-82" value="10" style="rounded=0;whiteSpace=wrap;html=1;fontStyle=1" vertex="1" parent="1">
          <mxGeometry x="840" y="300" width="40" height="40" as="geometry" />
        </mxCell>
        <mxCell id="w-6r28DezkTKs4tXM-bR-83" value="11" style="rounded=0;whiteSpace=wrap;html=1;fontStyle=1" vertex="1" parent="1">
          <mxGeometry x="920" y="300" width="40" height="40" as="geometry" />
        </mxCell>
        <mxCell id="w-6r28DezkTKs4tXM-bR-84" value="12" style="rounded=0;whiteSpace=wrap;html=1;fontStyle=1" vertex="1" parent="1">
          <mxGeometry x="1000" y="300" width="40" height="40" as="geometry" />
        </mxCell>
        <mxCell id="w-6r28DezkTKs4tXM-bR-85" value="16" style="rounded=0;whiteSpace=wrap;html=1;fontStyle=1" vertex="1" parent="1">
          <mxGeometry x="1080" y="300" width="40" height="40" as="geometry" />
        </mxCell>
        <mxCell id="w-6r28DezkTKs4tXM-bR-86" value="19" style="rounded=0;whiteSpace=wrap;html=1;fontStyle=1" vertex="1" parent="1">
          <mxGeometry x="1160" y="300" width="40" height="40" as="geometry" />
        </mxCell>
        <mxCell id="w-6r28DezkTKs4tXM-bR-87" value="" style="endArrow=classic;html=1;rounded=0;entryX=1;entryY=0;entryDx=0;entryDy=0;fontStyle=1" edge="1" parent="1">
          <mxGeometry width="50" height="50" relative="1" as="geometry">
            <mxPoint x="709" y="400" as="sourcePoint" />
            <mxPoint x="709" y="520" as="targetPoint" />
          </mxGeometry>
        </mxCell>
        <mxCell id="w-6r28DezkTKs4tXM-bR-88" value="" style="endArrow=classic;html=1;rounded=0;entryX=1;entryY=0;entryDx=0;entryDy=0;fontStyle=1" edge="1" parent="1">
          <mxGeometry width="50" height="50" relative="1" as="geometry">
            <mxPoint x="700" y="469" as="sourcePoint" />
            <mxPoint x="700" y="520" as="targetPoint" />
          </mxGeometry>
        </mxCell>
        <mxCell id="w-6r28DezkTKs4tXM-bR-89" value="" style="endArrow=classic;html=1;rounded=0;entryX=1;entryY=0;entryDx=0;entryDy=0;fontStyle=1" edge="1" parent="1">
          <mxGeometry width="50" height="50" relative="1" as="geometry">
            <mxPoint x="630" y="400" as="sourcePoint" />
            <mxPoint x="630" y="520" as="targetPoint" />
          </mxGeometry>
        </mxCell>
        <mxCell id="w-6r28DezkTKs4tXM-bR-90" value="" style="endArrow=classic;html=1;rounded=0;entryX=1;entryY=0;entryDx=0;entryDy=0;fontStyle=1" edge="1" parent="1">
          <mxGeometry width="50" height="50" relative="1" as="geometry">
            <mxPoint x="620" y="469" as="sourcePoint" />
            <mxPoint x="620" y="520" as="targetPoint" />
          </mxGeometry>
        </mxCell>
        <mxCell id="w-6r28DezkTKs4tXM-bR-91" value="" style="endArrow=classic;html=1;rounded=0;entryX=1;entryY=0;entryDx=0;entryDy=0;fontStyle=1" edge="1" parent="1">
          <mxGeometry width="50" height="50" relative="1" as="geometry">
            <mxPoint x="553" y="400" as="sourcePoint" />
            <mxPoint x="553" y="520" as="targetPoint" />
          </mxGeometry>
        </mxCell>
        <mxCell id="w-6r28DezkTKs4tXM-bR-92" value="" style="endArrow=classic;html=1;rounded=0;entryX=1;entryY=0;entryDx=0;entryDy=0;fontStyle=1" edge="1" parent="1">
          <mxGeometry width="50" height="50" relative="1" as="geometry">
            <mxPoint x="540" y="469" as="sourcePoint" />
            <mxPoint x="540" y="520" as="targetPoint" />
          </mxGeometry>
        </mxCell>
        <mxCell id="w-6r28DezkTKs4tXM-bR-93" value="" style="endArrow=classic;html=1;rounded=0;entryX=1;entryY=0;entryDx=0;entryDy=0;fontStyle=1" edge="1" parent="1">
          <mxGeometry width="50" height="50" relative="1" as="geometry">
            <mxPoint x="485" y="400" as="sourcePoint" />
            <mxPoint x="485" y="520" as="targetPoint" />
          </mxGeometry>
        </mxCell>
        <mxCell id="w-6r28DezkTKs4tXM-bR-94" value="" style="endArrow=classic;html=1;rounded=0;entryX=1;entryY=0;entryDx=0;entryDy=0;fontStyle=1" edge="1" parent="1">
          <mxGeometry width="50" height="50" relative="1" as="geometry">
            <mxPoint x="476" y="469" as="sourcePoint" />
            <mxPoint x="476" y="520" as="targetPoint" />
          </mxGeometry>
        </mxCell>
        <mxCell id="w-6r28DezkTKs4tXM-bR-95" value="" style="endArrow=classic;html=1;rounded=0;entryX=1;entryY=0;entryDx=0;entryDy=0;fontStyle=1" edge="1" parent="1">
          <mxGeometry width="50" height="50" relative="1" as="geometry">
            <mxPoint x="420" y="400" as="sourcePoint" />
            <mxPoint x="420" y="520" as="targetPoint" />
          </mxGeometry>
        </mxCell>
        <mxCell id="w-6r28DezkTKs4tXM-bR-98" value="" style="endArrow=classic;html=1;rounded=0;fontStyle=1" edge="1" parent="1">
          <mxGeometry width="50" height="50" relative="1" as="geometry">
            <mxPoint x="1110" y="450" as="sourcePoint" />
            <mxPoint x="1110" y="340" as="targetPoint" />
          </mxGeometry>
        </mxCell>
        <mxCell id="w-6r28DezkTKs4tXM-bR-99" value="" style="endArrow=classic;html=1;rounded=0;fontStyle=1" edge="1" parent="1">
          <mxGeometry width="50" height="50" relative="1" as="geometry">
            <mxPoint x="1100" y="380" as="sourcePoint" />
            <mxPoint x="1100" y="340" as="targetPoint" />
          </mxGeometry>
        </mxCell>
        <mxCell id="w-6r28DezkTKs4tXM-bR-100" value="" style="endArrow=classic;html=1;rounded=0;fontStyle=1" edge="1" parent="1">
          <mxGeometry width="50" height="50" relative="1" as="geometry">
            <mxPoint x="1032.5" y="450" as="sourcePoint" />
            <mxPoint x="1032.5" y="340" as="targetPoint" />
          </mxGeometry>
        </mxCell>
        <mxCell id="w-6r28DezkTKs4tXM-bR-101" value="" style="endArrow=classic;html=1;rounded=0;fontStyle=1" edge="1" parent="1">
          <mxGeometry width="50" height="50" relative="1" as="geometry">
            <mxPoint x="1022.5" y="380" as="sourcePoint" />
            <mxPoint x="1022.5" y="340" as="targetPoint" />
          </mxGeometry>
        </mxCell>
        <mxCell id="w-6r28DezkTKs4tXM-bR-102" value="" style="endArrow=classic;html=1;rounded=0;fontStyle=1" edge="1" parent="1">
          <mxGeometry width="50" height="50" relative="1" as="geometry">
            <mxPoint x="949.5" y="450" as="sourcePoint" />
            <mxPoint x="949.5" y="340" as="targetPoint" />
          </mxGeometry>
        </mxCell>
        <mxCell id="w-6r28DezkTKs4tXM-bR-103" value="" style="endArrow=classic;html=1;rounded=0;fontStyle=1" edge="1" parent="1">
          <mxGeometry width="50" height="50" relative="1" as="geometry">
            <mxPoint x="939.5" y="380" as="sourcePoint" />
            <mxPoint x="940" y="340" as="targetPoint" />
          </mxGeometry>
        </mxCell>
        <mxCell id="w-6r28DezkTKs4tXM-bR-104" value="" style="endArrow=classic;html=1;rounded=0;fontStyle=1" edge="1" parent="1">
          <mxGeometry width="50" height="50" relative="1" as="geometry">
            <mxPoint x="854.5" y="450" as="sourcePoint" />
            <mxPoint x="854.5" y="340" as="targetPoint" />
          </mxGeometry>
        </mxCell>
        <mxCell id="w-6r28DezkTKs4tXM-bR-105" value="" style="endArrow=classic;html=1;rounded=0;fontStyle=1" edge="1" parent="1">
          <mxGeometry width="50" height="50" relative="1" as="geometry">
            <mxPoint x="845.5" y="380" as="sourcePoint" />
            <mxPoint x="845.5" y="340" as="targetPoint" />
          </mxGeometry>
        </mxCell>
        <mxCell id="w-6r28DezkTKs4tXM-bR-106" value="" style="endArrow=classic;html=1;rounded=0;fontStyle=1" edge="1" parent="1">
          <mxGeometry width="50" height="50" relative="1" as="geometry">
            <mxPoint x="814" y="450" as="sourcePoint" />
            <mxPoint x="814" y="340" as="targetPoint" />
          </mxGeometry>
        </mxCell>
        <mxCell id="w-6r28DezkTKs4tXM-bR-107" value="" style="endArrow=classic;html=1;rounded=0;fontStyle=1" edge="1" parent="1">
          <mxGeometry width="50" height="50" relative="1" as="geometry">
            <mxPoint x="805" y="380" as="sourcePoint" />
            <mxPoint x="805" y="340" as="targetPoint" />
          </mxGeometry>
        </mxCell>
        <mxCell id="w-6r28DezkTKs4tXM-bR-108" value="" style="endArrow=classic;html=1;rounded=0;fontStyle=1" edge="1" parent="1">
          <mxGeometry width="50" height="50" relative="1" as="geometry">
            <mxPoint x="741.5" y="450" as="sourcePoint" />
            <mxPoint x="741.5" y="340" as="targetPoint" />
          </mxGeometry>
        </mxCell>
        <mxCell id="w-6r28DezkTKs4tXM-bR-109" value="" style="endArrow=classic;html=1;rounded=0;fontStyle=1" edge="1" parent="1">
          <mxGeometry width="50" height="50" relative="1" as="geometry">
            <mxPoint x="732" y="380" as="sourcePoint" />
            <mxPoint x="732" y="340" as="targetPoint" />
          </mxGeometry>
        </mxCell>
        <mxCell id="w-6r28DezkTKs4tXM-bR-110" value="" style="endArrow=classic;html=1;rounded=0;fontStyle=1" edge="1" parent="1">
          <mxGeometry width="50" height="50" relative="1" as="geometry">
            <mxPoint x="660" y="450" as="sourcePoint" />
            <mxPoint x="660" y="340" as="targetPoint" />
          </mxGeometry>
        </mxCell>
        <mxCell id="w-6r28DezkTKs4tXM-bR-111" value="" style="endArrow=classic;html=1;rounded=0;fontStyle=1" edge="1" parent="1">
          <mxGeometry width="50" height="50" relative="1" as="geometry">
            <mxPoint x="651" y="380" as="sourcePoint" />
            <mxPoint x="651" y="340" as="targetPoint" />
          </mxGeometry>
        </mxCell>
        <mxCell id="w-6r28DezkTKs4tXM-bR-113" value="program_end" style="text;html=1;strokeColor=none;fillColor=none;align=center;verticalAlign=middle;whiteSpace=wrap;rounded=0;fontStyle=1" vertex="1" parent="1">
          <mxGeometry x="130" y="360" width="60" height="30" as="geometry" />
        </mxCell>
        <mxCell id="w-6r28DezkTKs4tXM-bR-114" value="statements" style="text;html=1;strokeColor=none;fillColor=none;align=center;verticalAlign=middle;whiteSpace=wrap;rounded=0;fontStyle=1" vertex="1" parent="1">
          <mxGeometry x="250" y="360" width="60" height="30" as="geometry" />
        </mxCell>
        <mxCell id="w-6r28DezkTKs4tXM-bR-115" value="statement" style="text;html=1;strokeColor=none;fillColor=none;align=center;verticalAlign=middle;whiteSpace=wrap;rounded=0;fontStyle=1" vertex="1" parent="1">
          <mxGeometry x="250" y="405" width="60" height="30" as="geometry" />
        </mxCell>
        <mxCell id="w-6r28DezkTKs4tXM-bR-116" value="statements" style="text;html=1;strokeColor=none;fillColor=none;align=center;verticalAlign=middle;whiteSpace=wrap;rounded=0;fontStyle=1" vertex="1" parent="1">
          <mxGeometry x="250" y="460" width="60" height="30" as="geometry" />
        </mxCell>
        <mxCell id="w-6r28DezkTKs4tXM-bR-117" value="1" style="rounded=0;whiteSpace=wrap;html=1;fontStyle=1" vertex="1" parent="1">
          <mxGeometry x="230" y="160" width="40" height="40" as="geometry" />
        </mxCell>
        <mxCell id="w-6r28DezkTKs4tXM-bR-118" value="" style="endArrow=classic;html=1;rounded=0;entryX=1;entryY=0.5;entryDx=0;entryDy=0;fontStyle=1" edge="1" parent="1" target="w-6r28DezkTKs4tXM-bR-117">
          <mxGeometry width="50" height="50" relative="1" as="geometry">
            <mxPoint x="310" y="180" as="sourcePoint" />
            <mxPoint x="360" y="130" as="targetPoint" />
          </mxGeometry>
        </mxCell>
        <mxCell id="w-6r28DezkTKs4tXM-bR-119" value="" style="endArrow=classic;html=1;rounded=0;entryX=1;entryY=0.5;entryDx=0;entryDy=0;fontStyle=1" edge="1" parent="1">
          <mxGeometry width="50" height="50" relative="1" as="geometry">
            <mxPoint x="230" y="179" as="sourcePoint" />
            <mxPoint x="190" y="179" as="targetPoint" />
          </mxGeometry>
        </mxCell>
        <mxCell id="w-6r28DezkTKs4tXM-bR-120" value="if_stmt" style="text;html=1;strokeColor=none;fillColor=none;align=center;verticalAlign=middle;whiteSpace=wrap;rounded=0;fontStyle=1" vertex="1" parent="1">
          <mxGeometry x="600" y="350" width="60" height="30" as="geometry" />
        </mxCell>
        <mxCell id="w-6r28DezkTKs4tXM-bR-121" value="while_stmt" style="text;html=1;strokeColor=none;fillColor=none;align=center;verticalAlign=middle;whiteSpace=wrap;rounded=0;fontStyle=1" vertex="1" parent="1">
          <mxGeometry x="671" y="350" width="60" height="30" as="geometry" />
        </mxCell>
        <mxCell id="w-6r28DezkTKs4tXM-bR-122" value="for_stmt" style="text;html=1;strokeColor=none;fillColor=none;align=center;verticalAlign=middle;whiteSpace=wrap;rounded=0;fontStyle=1" vertex="1" parent="1">
          <mxGeometry x="750" y="350" width="60" height="30" as="geometry" />
        </mxCell>
        <mxCell id="w-6r28DezkTKs4tXM-bR-123" value="assign_stmt" style="text;html=1;strokeColor=none;fillColor=none;align=center;verticalAlign=middle;whiteSpace=wrap;rounded=0;fontStyle=1" vertex="1" parent="1">
          <mxGeometry x="860" y="350" width="60" height="30" as="geometry" />
        </mxCell>
        <mxCell id="w-6r28DezkTKs4tXM-bR-124" value="fcall_stmt" style="text;html=1;strokeColor=none;fillColor=none;align=center;verticalAlign=middle;whiteSpace=wrap;rounded=0;fontStyle=1" vertex="1" parent="1">
          <mxGeometry x="890" y="375" width="60" height="30" as="geometry" />
        </mxCell>
        <mxCell id="w-6r28DezkTKs4tXM-bR-125" value="break_stmt" style="text;html=1;strokeColor=none;fillColor=none;align=center;verticalAlign=middle;whiteSpace=wrap;rounded=0;fontStyle=1" vertex="1" parent="1">
          <mxGeometry x="970" y="375" width="60" height="30" as="geometry" />
        </mxCell>
        <mxCell id="w-6r28DezkTKs4tXM-bR-126" value="id_init" style="text;html=1;strokeColor=none;fillColor=none;align=center;verticalAlign=middle;whiteSpace=wrap;rounded=0;fontStyle=1" vertex="1" parent="1">
          <mxGeometry x="1060" y="375" width="60" height="30" as="geometry" />
        </mxCell>
        <mxCell id="w-6r28DezkTKs4tXM-bR-127" value="type" style="text;html=1;strokeColor=none;fillColor=none;align=center;verticalAlign=middle;whiteSpace=wrap;rounded=0;fontStyle=1" vertex="1" parent="1">
          <mxGeometry x="1146" y="373" width="60" height="30" as="geometry" />
        </mxCell>
        <mxCell id="w-6r28DezkTKs4tXM-bR-130" value="while" style="text;html=1;strokeColor=none;fillColor=none;align=center;verticalAlign=middle;whiteSpace=wrap;rounded=0;fontStyle=1" vertex="1" parent="1">
          <mxGeometry x="440" y="460" width="40" height="40" as="geometry" />
        </mxCell>
        <mxCell id="w-6r28DezkTKs4tXM-bR-129" value="if" style="text;html=1;strokeColor=none;fillColor=none;align=center;verticalAlign=middle;whiteSpace=wrap;rounded=0;fontStyle=1" vertex="1" parent="1">
          <mxGeometry x="384" y="460" width="40" height="40" as="geometry" />
        </mxCell>
        <mxCell id="w-6r28DezkTKs4tXM-bR-133" value="for" style="text;html=1;strokeColor=none;fillColor=none;align=center;verticalAlign=middle;whiteSpace=wrap;rounded=0;fontStyle=1" vertex="1" parent="1">
          <mxGeometry x="510" y="460" width="40" height="40" as="geometry" />
        </mxCell>
        <mxCell id="w-6r28DezkTKs4tXM-bR-134" value="display" style="text;html=1;strokeColor=none;fillColor=none;align=center;verticalAlign=middle;whiteSpace=wrap;rounded=0;fontStyle=1" vertex="1" parent="1">
          <mxGeometry x="579" y="460" width="40" height="40" as="geometry" />
        </mxCell>
        <mxCell id="w-6r28DezkTKs4tXM-bR-135" value="break" style="text;html=1;strokeColor=none;fillColor=none;align=center;verticalAlign=middle;whiteSpace=wrap;rounded=0;fontStyle=1" vertex="1" parent="1">
          <mxGeometry x="660" y="460" width="40" height="40" as="geometry" />
        </mxCell>
        <mxCell id="w-6r28DezkTKs4tXM-bR-136" value="integer" style="text;html=1;strokeColor=none;fillColor=none;align=center;verticalAlign=middle;whiteSpace=wrap;rounded=0;fontStyle=1" vertex="1" parent="1">
          <mxGeometry x="741" y="460" width="40" height="40" as="geometry" />
        </mxCell>
        <mxCell id="w-6r28DezkTKs4tXM-bR-137" value="29" style="rounded=0;whiteSpace=wrap;html=1;fontStyle=1" vertex="1" parent="1">
          <mxGeometry x="1160" y="220" width="40" height="40" as="geometry" />
        </mxCell>
        <mxCell id="w-6r28DezkTKs4tXM-bR-138" value="" style="endArrow=classic;html=1;rounded=0;fontStyle=1" edge="1" parent="1">
          <mxGeometry width="50" height="50" relative="1" as="geometry">
            <mxPoint x="1180.5" y="300" as="sourcePoint" />
            <mxPoint x="1180.5" y="260" as="targetPoint" />
          </mxGeometry>
        </mxCell>
        <mxCell id="w-6r28DezkTKs4tXM-bR-139" value="identifier" style="text;html=1;strokeColor=none;fillColor=none;align=center;verticalAlign=middle;whiteSpace=wrap;rounded=0;fontStyle=1" vertex="1" parent="1">
          <mxGeometry x="1125" y="270" width="60" height="30" as="geometry" />
        </mxCell>
        <mxCell id="w-6r28DezkTKs4tXM-bR-140" value="26" style="rounded=0;whiteSpace=wrap;html=1;fontStyle=1" vertex="1" parent="1">
          <mxGeometry x="1079.5" y="220" width="40" height="40" as="geometry" />
        </mxCell>
        <mxCell id="w-6r28DezkTKs4tXM-bR-141" value="" style="endArrow=classic;html=1;rounded=0;fontStyle=1" edge="1" parent="1">
          <mxGeometry width="50" height="50" relative="1" as="geometry">
            <mxPoint x="1100" y="300" as="sourcePoint" />
            <mxPoint x="1100" y="260" as="targetPoint" />
          </mxGeometry>
        </mxCell>
        <mxCell id="w-6r28DezkTKs4tXM-bR-142" value="&lt;span&gt;;&lt;/span&gt;" style="text;html=1;strokeColor=none;fillColor=none;align=center;verticalAlign=middle;whiteSpace=wrap;rounded=0;fontStyle=1" vertex="1" parent="1">
          <mxGeometry x="1059.5" y="270" width="60" height="30" as="geometry" />
        </mxCell>
        <mxCell id="w-6r28DezkTKs4tXM-bR-143" style="edgeStyle=orthogonalEdgeStyle;rounded=0;orthogonalLoop=1;jettySize=auto;html=1;exitX=0.5;exitY=1;exitDx=0;exitDy=0;fontStyle=1" edge="1" parent="1">
          <mxGeometry relative="1" as="geometry">
            <mxPoint x="710" y="560" as="sourcePoint" />
            <mxPoint x="710" y="590" as="targetPoint" />
          </mxGeometry>
        </mxCell>
        <mxCell id="w-6r28DezkTKs4tXM-bR-144" value="28" style="rounded=0;whiteSpace=wrap;html=1;fontStyle=1" vertex="1" parent="1">
          <mxGeometry x="690" y="590" width="40" height="40" as="geometry" />
        </mxCell>
        <mxCell id="w-6r28DezkTKs4tXM-bR-145" value=";" style="text;html=1;strokeColor=none;fillColor=none;align=center;verticalAlign=middle;whiteSpace=wrap;rounded=0;fontStyle=1" vertex="1" parent="1">
          <mxGeometry x="710" y="560" width="20" height="30" as="geometry" />
        </mxCell>
        <mxCell id="w-6r28DezkTKs4tXM-bR-146" value="" style="endArrow=classic;html=1;rounded=0;fontStyle=1" edge="1" parent="1">
          <mxGeometry width="50" height="50" relative="1" as="geometry">
            <mxPoint x="1180" y="220" as="sourcePoint" />
            <mxPoint x="780" y="140" as="targetPoint" />
            <Array as="points">
              <mxPoint x="1180" y="190" />
              <mxPoint x="980" y="190" />
              <mxPoint x="780" y="190" />
            </Array>
          </mxGeometry>
        </mxCell>
        <mxCell id="w-6r28DezkTKs4tXM-bR-150" value="35" style="rounded=0;whiteSpace=wrap;html=1;fontStyle=1" vertex="1" parent="1">
          <mxGeometry x="762" y="100" width="40" height="40" as="geometry" />
        </mxCell>
        <mxCell id="w-6r28DezkTKs4tXM-bR-151" value="36" style="rounded=0;whiteSpace=wrap;html=1;fontStyle=1" vertex="1" parent="1">
          <mxGeometry x="900" y="100" width="40" height="40" as="geometry" />
        </mxCell>
        <mxCell id="w-6r28DezkTKs4tXM-bR-152" value="37" style="rounded=0;whiteSpace=wrap;html=1;fontStyle=1" vertex="1" parent="1">
          <mxGeometry x="1010" y="100" width="40" height="40" as="geometry" />
        </mxCell>
        <mxCell id="w-6r28DezkTKs4tXM-bR-153" value="38" style="rounded=0;whiteSpace=wrap;html=1;fontStyle=1" vertex="1" parent="1">
          <mxGeometry x="1160" y="100" width="40" height="40" as="geometry" />
        </mxCell>
        <mxCell id="w-6r28DezkTKs4tXM-bR-154" value="" style="endArrow=classic;html=1;rounded=0;fontStyle=1" edge="1" parent="1">
          <mxGeometry width="50" height="50" relative="1" as="geometry">
            <mxPoint x="1180" y="200" as="sourcePoint" />
            <mxPoint x="1180" y="140" as="targetPoint" />
          </mxGeometry>
        </mxCell>
        <mxCell id="w-6r28DezkTKs4tXM-bR-156" value="" style="endArrow=classic;html=1;rounded=0;fontStyle=1;entryX=0.5;entryY=1;entryDx=0;entryDy=0;" edge="1" parent="1" target="w-6r28DezkTKs4tXM-bR-152">
          <mxGeometry width="50" height="50" relative="1" as="geometry">
            <mxPoint x="1030" y="190" as="sourcePoint" />
            <mxPoint x="1030" y="155" as="targetPoint" />
          </mxGeometry>
        </mxCell>
        <mxCell id="w-6r28DezkTKs4tXM-bR-157" value="" style="endArrow=classic;html=1;rounded=0;fontStyle=1;entryX=0.5;entryY=1;entryDx=0;entryDy=0;" edge="1" parent="1" target="w-6r28DezkTKs4tXM-bR-151">
          <mxGeometry width="50" height="50" relative="1" as="geometry">
            <mxPoint x="919.5" y="190" as="sourcePoint" />
            <mxPoint x="919.5" y="150" as="targetPoint" />
          </mxGeometry>
        </mxCell>
        <mxCell id="w-6r28DezkTKs4tXM-bR-158" value="assign_expr" style="text;html=1;strokeColor=none;fillColor=none;align=center;verticalAlign=middle;whiteSpace=wrap;rounded=0;fontStyle=1" vertex="1" parent="1">
          <mxGeometry x="790" y="160" width="60" height="30" as="geometry" />
        </mxCell>
        <mxCell id="w-6r28DezkTKs4tXM-bR-159" value="=" style="text;html=1;strokeColor=none;fillColor=none;align=center;verticalAlign=middle;whiteSpace=wrap;rounded=0;fontStyle=1" vertex="1" parent="1">
          <mxGeometry x="900" y="160" width="60" height="30" as="geometry" />
        </mxCell>
        <mxCell id="w-6r28DezkTKs4tXM-bR-161" value="declator" style="text;html=1;strokeColor=none;fillColor=none;align=center;verticalAlign=middle;whiteSpace=wrap;rounded=0;fontStyle=1" vertex="1" parent="1">
          <mxGeometry x="1030" y="160" width="60" height="30" as="geometry" />
        </mxCell>
        <mxCell id="w-6r28DezkTKs4tXM-bR-160" value="," style="text;html=1;strokeColor=none;fillColor=none;align=center;verticalAlign=middle;whiteSpace=wrap;rounded=0;fontStyle=1" vertex="1" parent="1">
          <mxGeometry x="1140" y="160" width="60" height="30" as="geometry" />
        </mxCell>
        <mxCell id="w-6r28DezkTKs4tXM-bR-166" value="" style="endArrow=classic;html=1;rounded=0;entryX=0.5;entryY=1;entryDx=0;entryDy=0;fontStyle=1" edge="1" parent="1" target="w-6r28DezkTKs4tXM-bR-167">
          <mxGeometry width="50" height="50" relative="1" as="geometry">
            <mxPoint x="920" y="100" as="sourcePoint" />
            <mxPoint x="520" y="20" as="targetPoint" />
            <Array as="points">
              <mxPoint x="920" y="70" />
              <mxPoint x="720" y="70" />
              <mxPoint x="690" y="70" />
            </Array>
          </mxGeometry>
        </mxCell>
        <mxCell id="w-6r28DezkTKs4tXM-bR-167" value="44" style="rounded=0;whiteSpace=wrap;html=1;fontStyle=1" vertex="1" parent="1">
          <mxGeometry x="670" y="-20" width="40" height="40" as="geometry" />
        </mxCell>
        <mxCell id="w-6r28DezkTKs4tXM-bR-168" value="45" style="rounded=0;whiteSpace=wrap;html=1;fontStyle=1" vertex="1" parent="1">
          <mxGeometry x="740" y="-20" width="40" height="40" as="geometry" />
        </mxCell>
        <mxCell id="w-6r28DezkTKs4tXM-bR-169" value="46" style="rounded=0;whiteSpace=wrap;html=1;fontStyle=1" vertex="1" parent="1">
          <mxGeometry x="820" y="-20" width="40" height="40" as="geometry" />
        </mxCell>
        <mxCell id="w-6r28DezkTKs4tXM-bR-170" value="47" style="rounded=0;whiteSpace=wrap;html=1;fontStyle=1" vertex="1" parent="1">
          <mxGeometry x="900" y="-20" width="40" height="40" as="geometry" />
        </mxCell>
        <mxCell id="w-6r28DezkTKs4tXM-bR-171" value="" style="endArrow=classic;html=1;rounded=0;fontStyle=1" edge="1" parent="1">
          <mxGeometry width="50" height="50" relative="1" as="geometry">
            <mxPoint x="920" y="80" as="sourcePoint" />
            <mxPoint x="920" y="20" as="targetPoint" />
          </mxGeometry>
        </mxCell>
        <mxCell id="w-6r28DezkTKs4tXM-bR-172" value="" style="endArrow=classic;html=1;rounded=0;fontStyle=1;entryX=0.5;entryY=1;entryDx=0;entryDy=0;" edge="1" parent="1" target="w-6r28DezkTKs4tXM-bR-169">
          <mxGeometry width="50" height="50" relative="1" as="geometry">
            <mxPoint x="840" y="70" as="sourcePoint" />
            <mxPoint x="840" y="35" as="targetPoint" />
          </mxGeometry>
        </mxCell>
        <mxCell id="w-6r28DezkTKs4tXM-bR-173" value="" style="endArrow=classic;html=1;rounded=0;fontStyle=1;entryX=0.5;entryY=1;entryDx=0;entryDy=0;" edge="1" parent="1" target="w-6r28DezkTKs4tXM-bR-168">
          <mxGeometry width="50" height="50" relative="1" as="geometry">
            <mxPoint x="759.5" y="70" as="sourcePoint" />
            <mxPoint x="759.5" y="30" as="targetPoint" />
          </mxGeometry>
        </mxCell>
        <mxCell id="w-6r28DezkTKs4tXM-bR-175" value="add_expr" style="text;html=1;strokeColor=none;fillColor=none;align=center;verticalAlign=middle;whiteSpace=wrap;rounded=0;fontStyle=1" vertex="1" parent="1">
          <mxGeometry x="699" y="40" width="60" height="30" as="geometry" />
        </mxCell>
        <mxCell id="w-6r28DezkTKs4tXM-bR-176" value="mul_expr" style="text;html=1;strokeColor=none;fillColor=none;align=center;verticalAlign=middle;whiteSpace=wrap;rounded=0;fontStyle=1" vertex="1" parent="1">
          <mxGeometry x="780" y="40" width="60" height="30" as="geometry" />
        </mxCell>
        <mxCell id="w-6r28DezkTKs4tXM-bR-177" value="identifier" style="text;html=1;strokeColor=none;fillColor=none;align=center;verticalAlign=middle;whiteSpace=wrap;rounded=0;fontStyle=1" vertex="1" parent="1">
          <mxGeometry x="860" y="40" width="60" height="30" as="geometry" />
        </mxCell>
        <mxCell id="w-6r28DezkTKs4tXM-bR-179" value="" style="endArrow=classic;html=1;rounded=0;exitX=0.5;exitY=1;exitDx=0;exitDy=0;fontStyle=1" edge="1" parent="1" source="w-6r28DezkTKs4tXM-bR-177">
          <mxGeometry width="50" height="50" relative="1" as="geometry">
            <mxPoint x="940" y="70" as="sourcePoint" />
            <mxPoint x="990" y="20" as="targetPoint" />
            <Array as="points">
              <mxPoint x="990" y="70" />
            </Array>
          </mxGeometry>
        </mxCell>
        <mxCell id="w-6r28DezkTKs4tXM-bR-180" value="48" style="rounded=0;whiteSpace=wrap;html=1;fontStyle=1" vertex="1" parent="1">
          <mxGeometry x="970" y="-20" width="40" height="40" as="geometry" />
        </mxCell>
        <mxCell id="w-6r28DezkTKs4tXM-bR-181" value="number" style="text;html=1;strokeColor=none;fillColor=none;align=center;verticalAlign=middle;whiteSpace=wrap;rounded=0;fontStyle=1" vertex="1" parent="1">
          <mxGeometry x="934" y="40" width="60" height="30" as="geometry" />
        </mxCell>
        <mxCell id="w-6r28DezkTKs4tXM-bR-182" value="49" style="rounded=0;whiteSpace=wrap;html=1;fontStyle=1" vertex="1" parent="1">
          <mxGeometry x="1160" y="20" width="40" height="40" as="geometry" />
        </mxCell>
        <mxCell id="w-6r28DezkTKs4tXM-bR-183" value="" style="endArrow=classic;html=1;rounded=0;fontStyle=1" edge="1" parent="1">
          <mxGeometry width="50" height="50" relative="1" as="geometry">
            <mxPoint x="1180.5" y="100" as="sourcePoint" />
            <mxPoint x="1180.5" y="60" as="targetPoint" />
          </mxGeometry>
        </mxCell>
        <mxCell id="w-6r28DezkTKs4tXM-bR-184" value="&lt;span&gt;identifier&lt;/span&gt;" style="text;html=1;strokeColor=none;fillColor=none;align=center;verticalAlign=middle;whiteSpace=wrap;rounded=0;fontStyle=1" vertex="1" parent="1">
          <mxGeometry x="1122" y="70" width="60" height="30" as="geometry" />
        </mxCell>
        <mxCell id="w-6r28DezkTKs4tXM-bR-185" value="" style="endArrow=classic;html=1;rounded=0;entryX=0.5;entryY=0;entryDx=0;entryDy=0;fontStyle=1" edge="1" parent="1" target="w-6r28DezkTKs4tXM-bR-152">
          <mxGeometry width="50" height="50" relative="1" as="geometry">
            <mxPoint x="1160" y="40" as="sourcePoint" />
            <mxPoint x="1210" y="-10" as="targetPoint" />
            <Array as="points">
              <mxPoint x="1030" y="40" />
            </Array>
          </mxGeometry>
        </mxCell>
        <mxCell id="w-6r28DezkTKs4tXM-bR-186" value="" style="endArrow=classic;html=1;rounded=0;entryX=1;entryY=0.25;entryDx=0;entryDy=0;fontStyle=1" edge="1" parent="1" target="w-6r28DezkTKs4tXM-bR-151">
          <mxGeometry width="50" height="50" relative="1" as="geometry">
            <mxPoint x="1030" y="40" as="sourcePoint" />
            <mxPoint x="1080" y="-10" as="targetPoint" />
            <Array as="points">
              <mxPoint x="1030" y="80" />
              <mxPoint x="1010" y="80" />
              <mxPoint x="960" y="80" />
              <mxPoint x="960" y="110" />
            </Array>
          </mxGeometry>
        </mxCell>
        <mxCell id="w-6r28DezkTKs4tXM-bR-187" value="" style="endArrow=classic;html=1;rounded=0;entryX=0;entryY=0.25;entryDx=0;entryDy=0;fontStyle=1" edge="1" parent="1" target="w-6r28DezkTKs4tXM-bR-153">
          <mxGeometry width="50" height="50" relative="1" as="geometry">
            <mxPoint x="1030" y="80" as="sourcePoint" />
            <mxPoint x="1080" y="30" as="targetPoint" />
            <Array as="points">
              <mxPoint x="1080" y="80" />
              <mxPoint x="1080" y="110" />
            </Array>
          </mxGeometry>
        </mxCell>
        <mxCell id="w-6r28DezkTKs4tXM-bR-188" value="=" style="text;html=1;strokeColor=none;fillColor=none;align=center;verticalAlign=middle;whiteSpace=wrap;rounded=0;fontStyle=1" vertex="1" parent="1">
          <mxGeometry x="938" y="93" width="60" height="30" as="geometry" />
        </mxCell>
        <mxCell id="w-6r28DezkTKs4tXM-bR-190" value="," style="text;html=1;strokeColor=none;fillColor=none;align=center;verticalAlign=middle;whiteSpace=wrap;rounded=0;fontStyle=1" vertex="1" parent="1">
          <mxGeometry x="1059.5" y="80" width="60" height="30" as="geometry" />
        </mxCell>
        <mxCell id="w-6r28DezkTKs4tXM-bR-191" value="declator" style="text;html=1;strokeColor=none;fillColor=none;align=center;verticalAlign=middle;whiteSpace=wrap;rounded=0;fontStyle=1" vertex="1" parent="1">
          <mxGeometry x="973" y="76" width="60" height="30" as="geometry" />
        </mxCell>
        <mxCell id="w-6r28DezkTKs4tXM-bR-193" value="65" style="rounded=0;whiteSpace=wrap;html=1;fontStyle=1" vertex="1" parent="1">
          <mxGeometry x="1159.5" y="-80" width="40" height="40" as="geometry" />
        </mxCell>
        <mxCell id="w-6r28DezkTKs4tXM-bR-194" value="" style="endArrow=classic;html=1;rounded=0;fontStyle=1" edge="1" parent="1">
          <mxGeometry width="50" height="50" relative="1" as="geometry">
            <mxPoint x="1179.5" y="20" as="sourcePoint" />
            <mxPoint x="1179.5" y="-40" as="targetPoint" />
          </mxGeometry>
        </mxCell>
        <mxCell id="w-6r28DezkTKs4tXM-bR-195" value="assign_expr" style="text;html=1;strokeColor=none;fillColor=none;align=center;verticalAlign=middle;whiteSpace=wrap;rounded=0;fontStyle=1" vertex="1" parent="1">
          <mxGeometry x="1112" y="-20" width="60" height="30" as="geometry" />
        </mxCell>
        <mxCell id="w-6r28DezkTKs4tXM-bR-196" value="" style="endArrow=classic;html=1;rounded=0;entryX=0;entryY=0.5;entryDx=0;entryDy=0;fontStyle=1" edge="1" parent="1" target="w-6r28DezkTKs4tXM-bR-197">
          <mxGeometry width="50" height="50" relative="1" as="geometry">
            <mxPoint x="690" y="-20" as="sourcePoint" />
            <mxPoint x="290" y="-100" as="targetPoint" />
            <Array as="points">
              <mxPoint x="690" y="-50" />
              <mxPoint x="690" y="-30" />
              <mxPoint x="690" y="-100" />
            </Array>
          </mxGeometry>
        </mxCell>
        <mxCell id="w-6r28DezkTKs4tXM-bR-197" value="64" style="rounded=0;whiteSpace=wrap;html=1;fontStyle=1" vertex="1" parent="1">
          <mxGeometry x="710" y="-120" width="40" height="40" as="geometry" />
        </mxCell>
        <mxCell id="w-6r28DezkTKs4tXM-bR-198" value="62" style="rounded=0;whiteSpace=wrap;html=1;fontStyle=1" vertex="1" parent="1">
          <mxGeometry x="741" y="-280" width="40" height="40" as="geometry" />
        </mxCell>
        <mxCell id="w-6r28DezkTKs4tXM-bR-199" value="63" style="rounded=0;whiteSpace=wrap;html=1;fontStyle=1" vertex="1" parent="1">
          <mxGeometry x="710" y="-200" width="40" height="40" as="geometry" />
        </mxCell>
        <mxCell id="w-6r28DezkTKs4tXM-bR-202" value="" style="endArrow=classic;html=1;rounded=0;fontStyle=1;entryX=0;entryY=0.5;entryDx=0;entryDy=0;" edge="1" parent="1" target="w-6r28DezkTKs4tXM-bR-199">
          <mxGeometry width="50" height="50" relative="1" as="geometry">
            <mxPoint x="691" y="-180" as="sourcePoint" />
            <mxPoint x="611" y="-85" as="targetPoint" />
          </mxGeometry>
        </mxCell>
        <mxCell id="w-6r28DezkTKs4tXM-bR-203" value="" style="endArrow=classic;html=1;rounded=0;fontStyle=1;entryX=0;entryY=0.5;entryDx=0;entryDy=0;" edge="1" parent="1" target="w-6r28DezkTKs4tXM-bR-198">
          <mxGeometry width="50" height="50" relative="1" as="geometry">
            <mxPoint x="691" y="-260" as="sourcePoint" />
            <mxPoint x="530.5" y="-90" as="targetPoint" />
          </mxGeometry>
        </mxCell>
        <mxCell id="w-6r28DezkTKs4tXM-bR-204" value="*" style="text;html=1;strokeColor=none;fillColor=none;align=center;verticalAlign=middle;whiteSpace=wrap;rounded=0;fontStyle=1" vertex="1" parent="1">
          <mxGeometry x="670" y="-124" width="60" height="30" as="geometry" />
        </mxCell>
        <mxCell id="w-6r28DezkTKs4tXM-bR-205" value="declator" style="text;html=1;strokeColor=none;fillColor=none;align=center;verticalAlign=middle;whiteSpace=wrap;rounded=0;fontStyle=1" vertex="1" parent="1">
          <mxGeometry x="685" y="-285" width="60" height="30" as="geometry" />
        </mxCell>
        <mxCell id="w-6r28DezkTKs4tXM-bR-206" value="+" style="text;html=1;strokeColor=none;fillColor=none;align=center;verticalAlign=middle;whiteSpace=wrap;rounded=0;fontStyle=1" vertex="1" parent="1">
          <mxGeometry x="669" y="-202" width="60" height="30" as="geometry" />
        </mxCell>
        <mxCell id="w-6r28DezkTKs4tXM-bR-210" value="" style="endArrow=classic;html=1;rounded=0;entryX=1;entryY=0.25;entryDx=0;entryDy=0;fontStyle=1" edge="1" parent="1" target="w-6r28DezkTKs4tXM-bR-153">
          <mxGeometry width="50" height="50" relative="1" as="geometry">
            <mxPoint x="690" y="-50" as="sourcePoint" />
            <mxPoint x="740" y="-100" as="targetPoint" />
            <Array as="points">
              <mxPoint x="690" y="-300" />
              <mxPoint x="1240" y="-300" />
              <mxPoint x="1240" y="-120" />
              <mxPoint x="1240" y="110" />
            </Array>
          </mxGeometry>
        </mxCell>
        <mxCell id="w-6r28DezkTKs4tXM-bR-211" value="," style="text;html=1;strokeColor=none;fillColor=none;align=center;verticalAlign=middle;whiteSpace=wrap;rounded=0;fontStyle=1" vertex="1" parent="1">
          <mxGeometry x="1199.5" y="80" width="60" height="30" as="geometry" />
        </mxCell>
        <mxCell id="w-6r28DezkTKs4tXM-bR-212" value="87" style="rounded=0;whiteSpace=wrap;html=1;fontStyle=1" vertex="1" parent="1">
          <mxGeometry x="1090" y="-120" width="40" height="40" as="geometry" />
        </mxCell>
        <mxCell id="w-6r28DezkTKs4tXM-bR-213" value="86" style="rounded=0;whiteSpace=wrap;html=1;fontStyle=1" vertex="1" parent="1">
          <mxGeometry x="1090" y="-200" width="40" height="40" as="geometry" />
        </mxCell>
        <mxCell id="w-6r28DezkTKs4tXM-bR-214" value="" style="endArrow=classic;html=1;rounded=0;fontStyle=1;entryX=0;entryY=0.75;entryDx=0;entryDy=0;exitX=1;exitY=0.75;exitDx=0;exitDy=0;" edge="1" parent="1" target="w-6r28DezkTKs4tXM-bR-213" source="w-6r28DezkTKs4tXM-bR-199">
          <mxGeometry width="50" height="50" relative="1" as="geometry">
            <mxPoint x="950" y="-180" as="sourcePoint" />
            <mxPoint x="870" y="-85" as="targetPoint" />
            <Array as="points" />
          </mxGeometry>
        </mxCell>
        <mxCell id="w-6r28DezkTKs4tXM-bR-215" value="" style="endArrow=classic;html=1;rounded=0;fontStyle=1;entryX=0;entryY=0.75;entryDx=0;entryDy=0;exitX=0.975;exitY=0.75;exitDx=0;exitDy=0;exitPerimeter=0;" edge="1" parent="1" target="w-6r28DezkTKs4tXM-bR-212" source="w-6r28DezkTKs4tXM-bR-197">
          <mxGeometry width="50" height="50" relative="1" as="geometry">
            <mxPoint x="786" y="-90" as="sourcePoint" />
            <mxPoint x="787.5" y="70" as="targetPoint" />
          </mxGeometry>
        </mxCell>
        <mxCell id="w-6r28DezkTKs4tXM-bR-219" value="" style="endArrow=classic;html=1;rounded=0;entryX=0.5;entryY=0;entryDx=0;entryDy=0;fontStyle=1" edge="1" parent="1">
          <mxGeometry width="50" height="50" relative="1" as="geometry">
            <mxPoint x="764" y="-90" as="sourcePoint" />
            <mxPoint x="764" y="-20" as="targetPoint" />
          </mxGeometry>
        </mxCell>
        <mxCell id="w-6r28DezkTKs4tXM-bR-220" value="" style="endArrow=classic;html=1;rounded=0;entryX=0.75;entryY=0;entryDx=0;entryDy=0;fontStyle=1" edge="1" parent="1">
          <mxGeometry width="50" height="50" relative="1" as="geometry">
            <mxPoint x="772" y="-170" as="sourcePoint" />
            <mxPoint x="772" y="-20" as="targetPoint" />
          </mxGeometry>
        </mxCell>
        <mxCell id="w-6r28DezkTKs4tXM-bR-221" value="" style="endArrow=classic;html=1;rounded=0;entryX=0.5;entryY=0;entryDx=0;entryDy=0;fontStyle=1" edge="1" parent="1">
          <mxGeometry width="50" height="50" relative="1" as="geometry">
            <mxPoint x="848" y="-90" as="sourcePoint" />
            <mxPoint x="848" y="-20" as="targetPoint" />
          </mxGeometry>
        </mxCell>
        <mxCell id="w-6r28DezkTKs4tXM-bR-222" value="" style="endArrow=classic;html=1;rounded=0;entryX=0.75;entryY=0;entryDx=0;entryDy=0;fontStyle=1" edge="1" parent="1">
          <mxGeometry width="50" height="50" relative="1" as="geometry">
            <mxPoint x="855" y="-170" as="sourcePoint" />
            <mxPoint x="855" y="-20" as="targetPoint" />
          </mxGeometry>
        </mxCell>
        <mxCell id="w-6r28DezkTKs4tXM-bR-223" value="" style="endArrow=classic;html=1;rounded=0;entryX=0.5;entryY=0;entryDx=0;entryDy=0;fontStyle=1" edge="1" parent="1">
          <mxGeometry width="50" height="50" relative="1" as="geometry">
            <mxPoint x="917" y="-90" as="sourcePoint" />
            <mxPoint x="917" y="-20" as="targetPoint" />
          </mxGeometry>
        </mxCell>
        <mxCell id="w-6r28DezkTKs4tXM-bR-224" value="" style="endArrow=classic;html=1;rounded=0;entryX=0.75;entryY=0;entryDx=0;entryDy=0;fontStyle=1" edge="1" parent="1">
          <mxGeometry width="50" height="50" relative="1" as="geometry">
            <mxPoint x="925" y="-170" as="sourcePoint" />
            <mxPoint x="925" y="-20" as="targetPoint" />
          </mxGeometry>
        </mxCell>
        <mxCell id="w-6r28DezkTKs4tXM-bR-225" value="" style="endArrow=classic;html=1;rounded=0;entryX=0.5;entryY=0;entryDx=0;entryDy=0;fontStyle=1" edge="1" parent="1">
          <mxGeometry width="50" height="50" relative="1" as="geometry">
            <mxPoint x="992" y="-90" as="sourcePoint" />
            <mxPoint x="992" y="-20" as="targetPoint" />
          </mxGeometry>
        </mxCell>
        <mxCell id="w-6r28DezkTKs4tXM-bR-226" value="" style="endArrow=classic;html=1;rounded=0;entryX=0.75;entryY=0;entryDx=0;entryDy=0;fontStyle=1" edge="1" parent="1">
          <mxGeometry width="50" height="50" relative="1" as="geometry">
            <mxPoint x="1000" y="-170" as="sourcePoint" />
            <mxPoint x="1000" y="-20" as="targetPoint" />
          </mxGeometry>
        </mxCell>
        <mxCell id="w-6r28DezkTKs4tXM-bR-227" value="" style="endArrow=classic;html=1;rounded=0;exitX=0;exitY=0.25;exitDx=0;exitDy=0;entryX=1;entryY=0.25;entryDx=0;entryDy=0;fontStyle=1" edge="1" parent="1" source="w-6r28DezkTKs4tXM-bR-213" target="w-6r28DezkTKs4tXM-bR-199">
          <mxGeometry width="50" height="50" relative="1" as="geometry">
            <mxPoint x="660" y="-80" as="sourcePoint" />
            <mxPoint x="710" y="-130" as="targetPoint" />
          </mxGeometry>
        </mxCell>
        <mxCell id="w-6r28DezkTKs4tXM-bR-228" value="" style="endArrow=classic;html=1;rounded=0;exitX=0;exitY=0.25;exitDx=0;exitDy=0;entryX=1;entryY=0.25;entryDx=0;entryDy=0;fontStyle=1" edge="1" parent="1" source="w-6r28DezkTKs4tXM-bR-212">
          <mxGeometry width="50" height="50" relative="1" as="geometry">
            <mxPoint x="1000" y="-109.5" as="sourcePoint" />
            <mxPoint x="750" y="-109.5" as="targetPoint" />
          </mxGeometry>
        </mxCell>
        <mxCell id="w-6r28DezkTKs4tXM-bR-229" value="&lt;span&gt;identifier&lt;/span&gt;" style="text;html=1;strokeColor=none;fillColor=none;align=center;verticalAlign=middle;whiteSpace=wrap;rounded=0;fontStyle=1" vertex="1" parent="1">
          <mxGeometry x="860" y="-56" width="60" height="30" as="geometry" />
        </mxCell>
        <mxCell id="w-6r28DezkTKs4tXM-bR-230" value="number" style="text;html=1;strokeColor=none;fillColor=none;align=center;verticalAlign=middle;whiteSpace=wrap;rounded=0;fontStyle=1" vertex="1" parent="1">
          <mxGeometry x="938" y="-56" width="60" height="30" as="geometry" />
        </mxCell>
        <mxCell id="w-6r28DezkTKs4tXM-bR-231" value="expr" style="text;html=1;strokeColor=none;fillColor=none;align=center;verticalAlign=middle;whiteSpace=wrap;rounded=0;fontStyle=1" vertex="1" parent="1">
          <mxGeometry x="1038" y="-177" width="60" height="30" as="geometry" />
        </mxCell>
        <mxCell id="w-6r28DezkTKs4tXM-bR-233" value="expr" style="text;html=1;strokeColor=none;fillColor=none;align=center;verticalAlign=middle;whiteSpace=wrap;rounded=0;fontStyle=1" vertex="1" parent="1">
          <mxGeometry x="1038" y="-98" width="60" height="30" as="geometry" />
        </mxCell>
        <mxCell id="w-6r28DezkTKs4tXM-bR-234" value="add_expr" style="text;html=1;strokeColor=none;fillColor=none;align=center;verticalAlign=middle;whiteSpace=wrap;rounded=0;fontStyle=1" vertex="1" parent="1">
          <mxGeometry x="706" y="-56" width="60" height="30" as="geometry" />
        </mxCell>
        <mxCell id="w-6r28DezkTKs4tXM-bR-235" value="mul_expr" style="text;html=1;strokeColor=none;fillColor=none;align=center;verticalAlign=middle;whiteSpace=wrap;rounded=0;fontStyle=1" vertex="1" parent="1">
          <mxGeometry x="789" y="-56" width="60" height="30" as="geometry" />
        </mxCell>
        <mxCell id="w-6r28DezkTKs4tXM-bR-236" value="+" style="text;html=1;strokeColor=none;fillColor=none;align=center;verticalAlign=middle;whiteSpace=wrap;rounded=0;fontStyle=1" vertex="1" parent="1">
          <mxGeometry x="731" y="-210" width="60" height="30" as="geometry" />
        </mxCell>
        <mxCell id="w-6r28DezkTKs4tXM-bR-237" value="*" style="text;html=1;strokeColor=none;fillColor=none;align=center;verticalAlign=middle;whiteSpace=wrap;rounded=0;fontStyle=1" vertex="1" parent="1">
          <mxGeometry x="732" y="-130" width="60" height="30" as="geometry" />
        </mxCell>
        <mxCell id="w-6r28DezkTKs4tXM-bR-239" value="" style="endArrow=classic;html=1;rounded=0;entryX=1;entryY=0.25;entryDx=0;entryDy=0;exitX=0;exitY=0.25;exitDx=0;exitDy=0;fontStyle=1" edge="1" parent="1" source="w-6r28DezkTKs4tXM-bR-213" target="w-6r28DezkTKs4tXM-bR-197">
          <mxGeometry width="50" height="50" relative="1" as="geometry">
            <mxPoint x="660" y="-80" as="sourcePoint" />
            <mxPoint x="710" y="-130" as="targetPoint" />
          </mxGeometry>
        </mxCell>
        <mxCell id="w-6r28DezkTKs4tXM-bR-240" value="" style="endArrow=classic;html=1;rounded=0;exitX=0;exitY=0.25;exitDx=0;exitDy=0;fontStyle=1" edge="1" parent="1" source="w-6r28DezkTKs4tXM-bR-212">
          <mxGeometry width="50" height="50" relative="1" as="geometry">
            <mxPoint x="700" y="-140" as="sourcePoint" />
            <mxPoint x="750" y="-190" as="targetPoint" />
          </mxGeometry>
        </mxCell>
        <mxCell id="w-6r28DezkTKs4tXM-bR-241" style="edgeStyle=orthogonalEdgeStyle;rounded=0;orthogonalLoop=1;jettySize=auto;html=1;exitX=0.5;exitY=1;exitDx=0;exitDy=0;fontStyle=1" edge="1" parent="1" source="w-6r28DezkTKs4tXM-bR-249">
          <mxGeometry relative="1" as="geometry">
            <mxPoint x="629" y="660" as="targetPoint" />
          </mxGeometry>
        </mxCell>
        <mxCell id="w-6r28DezkTKs4tXM-bR-242" value="(" style="text;html=1;strokeColor=none;fillColor=none;align=center;verticalAlign=middle;whiteSpace=wrap;rounded=0;fontStyle=1" vertex="1" parent="1">
          <mxGeometry x="609" y="560" width="60" height="30" as="geometry" />
        </mxCell>
        <mxCell id="w-6r28DezkTKs4tXM-bR-243" style="edgeStyle=orthogonalEdgeStyle;rounded=0;orthogonalLoop=1;jettySize=auto;html=1;entryX=0.5;entryY=0;entryDx=0;entryDy=0;fontStyle=1" edge="1" parent="1" source="w-6r28DezkTKs4tXM-bR-244" target="w-6r28DezkTKs4tXM-bR-246">
          <mxGeometry relative="1" as="geometry">
            <mxPoint x="459" y="740" as="targetPoint" />
          </mxGeometry>
        </mxCell>
        <mxCell id="w-6r28DezkTKs4tXM-bR-244" value="34" style="rounded=0;whiteSpace=wrap;html=1;fontStyle=1" vertex="1" parent="1">
          <mxGeometry x="609" y="660" width="40" height="40" as="geometry" />
        </mxCell>
        <mxCell id="w-6r28DezkTKs4tXM-bR-245" value="literal" style="text;html=1;strokeColor=none;fillColor=none;align=center;verticalAlign=middle;whiteSpace=wrap;rounded=0;fontStyle=1" vertex="1" parent="1">
          <mxGeometry x="621" y="630" width="60" height="30" as="geometry" />
        </mxCell>
        <mxCell id="w-6r28DezkTKs4tXM-bR-246" value="43" style="rounded=0;whiteSpace=wrap;html=1;fontStyle=1" vertex="1" parent="1">
          <mxGeometry x="609" y="730" width="40" height="40" as="geometry" />
        </mxCell>
        <mxCell id="w-6r28DezkTKs4tXM-bR-247" value=")" style="text;html=1;strokeColor=none;fillColor=none;align=center;verticalAlign=middle;whiteSpace=wrap;rounded=0;fontStyle=1" vertex="1" parent="1">
          <mxGeometry x="610" y="700" width="60" height="30" as="geometry" />
        </mxCell>
        <mxCell id="w-6r28DezkTKs4tXM-bR-248" value="" style="edgeStyle=orthogonalEdgeStyle;rounded=0;orthogonalLoop=1;jettySize=auto;html=1;exitX=0.5;exitY=1;exitDx=0;exitDy=0;fontStyle=1" edge="1" parent="1" target="w-6r28DezkTKs4tXM-bR-249">
          <mxGeometry relative="1" as="geometry">
            <mxPoint x="629" y="560" as="sourcePoint" />
            <mxPoint x="629" y="660" as="targetPoint" />
          </mxGeometry>
        </mxCell>
        <mxCell id="w-6r28DezkTKs4tXM-bR-249" value="27" style="rounded=0;whiteSpace=wrap;html=1;fontStyle=1" vertex="1" parent="1">
          <mxGeometry x="609" y="590" width="40" height="40" as="geometry" />
        </mxCell>
        <mxCell id="w-6r28DezkTKs4tXM-bR-250" style="edgeStyle=orthogonalEdgeStyle;rounded=0;orthogonalLoop=1;jettySize=auto;html=1;entryX=0.5;entryY=0;entryDx=0;entryDy=0;fontStyle=1" edge="1" parent="1">
          <mxGeometry relative="1" as="geometry">
            <mxPoint x="629" y="800" as="targetPoint" />
            <mxPoint x="629" y="770" as="sourcePoint" />
          </mxGeometry>
        </mxCell>
        <mxCell id="w-6r28DezkTKs4tXM-bR-251" value="61" style="rounded=0;whiteSpace=wrap;html=1;fontStyle=1" vertex="1" parent="1">
          <mxGeometry x="609" y="800" width="40" height="40" as="geometry" />
        </mxCell>
        <mxCell id="w-6r28DezkTKs4tXM-bR-252" value=";" style="text;html=1;strokeColor=none;fillColor=none;align=center;verticalAlign=middle;whiteSpace=wrap;rounded=0;fontStyle=1" vertex="1" parent="1">
          <mxGeometry x="611" y="770" width="60" height="30" as="geometry" />
        </mxCell>
        <mxCell id="w-6r28DezkTKs4tXM-bR-256" value="" style="endArrow=classic;html=1;rounded=0;entryX=1;entryY=0;entryDx=0;entryDy=0;fontStyle=1" edge="1" parent="1">
          <mxGeometry width="50" height="50" relative="1" as="geometry">
            <mxPoint x="410" y="469" as="sourcePoint" />
            <mxPoint x="410" y="520" as="targetPoint" />
          </mxGeometry>
        </mxCell>
        <mxCell id="w-6r28DezkTKs4tXM-bR-258" value="" style="edgeStyle=orthogonalEdgeStyle;rounded=0;orthogonalLoop=1;jettySize=auto;html=1;exitX=0.5;exitY=1;exitDx=0;exitDy=0;fontStyle=1" edge="1" parent="1" target="w-6r28DezkTKs4tXM-bR-259">
          <mxGeometry relative="1" as="geometry">
            <mxPoint x="550" y="560" as="sourcePoint" />
            <mxPoint x="550" y="660" as="targetPoint" />
          </mxGeometry>
        </mxCell>
        <mxCell id="w-6r28DezkTKs4tXM-bR-259" value="25" style="rounded=0;whiteSpace=wrap;html=1;fontStyle=1" vertex="1" parent="1">
          <mxGeometry x="530" y="590" width="40" height="40" as="geometry" />
        </mxCell>
        <mxCell id="w-6r28DezkTKs4tXM-bR-263" value="" style="edgeStyle=orthogonalEdgeStyle;rounded=0;orthogonalLoop=1;jettySize=auto;html=1;exitX=0.5;exitY=1;exitDx=0;exitDy=0;fontStyle=1" edge="1" parent="1" target="w-6r28DezkTKs4tXM-bR-264" source="w-6r28DezkTKs4tXM-bR-259">
          <mxGeometry relative="1" as="geometry">
            <mxPoint x="550" y="850" as="sourcePoint" />
            <mxPoint x="550" y="950" as="targetPoint" />
          </mxGeometry>
        </mxCell>
        <mxCell id="w-6r28DezkTKs4tXM-bR-264" value="33" style="rounded=0;whiteSpace=wrap;html=1;fontStyle=1" vertex="1" parent="1">
          <mxGeometry x="530" y="880" width="40" height="40" as="geometry" />
        </mxCell>
        <mxCell id="w-6r28DezkTKs4tXM-bR-265" value="" style="endArrow=classic;html=1;rounded=0;fontStyle=1" edge="1" parent="1">
          <mxGeometry width="50" height="50" relative="1" as="geometry">
            <mxPoint x="550" y="860" as="sourcePoint" />
            <mxPoint x="1200" y="330" as="targetPoint" />
            <Array as="points">
              <mxPoint x="1240" y="860" />
              <mxPoint x="1240" y="330" />
            </Array>
          </mxGeometry>
        </mxCell>
        <mxCell id="w-6r28DezkTKs4tXM-bR-266" value="" style="endArrow=classic;html=1;rounded=0;fontStyle=1;entryX=1;entryY=0.5;entryDx=0;entryDy=0;" edge="1" parent="1" target="w-6r28DezkTKs4tXM-bR-72">
          <mxGeometry width="50" height="50" relative="1" as="geometry">
            <mxPoint x="1240" y="540" as="sourcePoint" />
            <mxPoint x="770" y="560" as="targetPoint" />
          </mxGeometry>
        </mxCell>
        <mxCell id="w-6r28DezkTKs4tXM-bR-267" value="" style="edgeStyle=orthogonalEdgeStyle;rounded=0;orthogonalLoop=1;jettySize=auto;html=1;exitX=0.5;exitY=1;exitDx=0;exitDy=0;fontStyle=1" edge="1" parent="1" target="w-6r28DezkTKs4tXM-bR-268">
          <mxGeometry relative="1" as="geometry">
            <mxPoint x="550" y="920" as="sourcePoint" />
            <mxPoint x="550" y="1020" as="targetPoint" />
          </mxGeometry>
        </mxCell>
        <mxCell id="w-6r28DezkTKs4tXM-bR-268" value="42" style="rounded=0;whiteSpace=wrap;html=1;fontStyle=1" vertex="1" parent="1">
          <mxGeometry x="530" y="950" width="40" height="40" as="geometry" />
        </mxCell>
        <mxCell id="w-6r28DezkTKs4tXM-bR-269" value="" style="endArrow=classic;html=1;rounded=0;entryX=0;entryY=0.25;entryDx=0;entryDy=0;fontStyle=1" edge="1" parent="1">
          <mxGeometry width="50" height="50" relative="1" as="geometry">
            <mxPoint x="570" y="955" as="sourcePoint" />
            <mxPoint x="630" y="955" as="targetPoint" />
          </mxGeometry>
        </mxCell>
        <mxCell id="w-6r28DezkTKs4tXM-bR-270" value="" style="endArrow=classic;html=1;rounded=0;fontStyle=1" edge="1" parent="1">
          <mxGeometry width="50" height="50" relative="1" as="geometry">
            <mxPoint x="601" y="956" as="sourcePoint" />
            <mxPoint x="631" y="1006" as="targetPoint" />
            <Array as="points">
              <mxPoint x="601" y="1006" />
            </Array>
          </mxGeometry>
        </mxCell>
        <mxCell id="w-6r28DezkTKs4tXM-bR-271" value="59" style="rounded=0;whiteSpace=wrap;html=1;fontStyle=1" vertex="1" parent="1">
          <mxGeometry x="630" y="950" width="40" height="40" as="geometry" />
        </mxCell>
        <mxCell id="w-6r28DezkTKs4tXM-bR-272" value="60" style="rounded=0;whiteSpace=wrap;html=1;fontStyle=1" vertex="1" parent="1">
          <mxGeometry x="630" y="999" width="40" height="40" as="geometry" />
        </mxCell>
        <mxCell id="w-6r28DezkTKs4tXM-bR-274" value="" style="endArrow=classic;html=1;rounded=0;fontStyle=1" edge="1" parent="1">
          <mxGeometry width="50" height="50" relative="1" as="geometry">
            <mxPoint x="671" y="969" as="sourcePoint" />
            <mxPoint x="721" y="969" as="targetPoint" />
          </mxGeometry>
        </mxCell>
        <mxCell id="w-6r28DezkTKs4tXM-bR-275" value="" style="endArrow=classic;html=1;rounded=0;fontStyle=1" edge="1" parent="1">
          <mxGeometry width="50" height="50" relative="1" as="geometry">
            <mxPoint x="671" y="1019" as="sourcePoint" />
            <mxPoint x="721" y="1019" as="targetPoint" />
          </mxGeometry>
        </mxCell>
        <mxCell id="w-6r28DezkTKs4tXM-bR-276" value="84" style="rounded=0;whiteSpace=wrap;html=1;fontStyle=1" vertex="1" parent="1">
          <mxGeometry x="720" y="949" width="40" height="40" as="geometry" />
        </mxCell>
        <mxCell id="w-6r28DezkTKs4tXM-bR-277" value="85" style="rounded=0;whiteSpace=wrap;html=1;fontStyle=1" vertex="1" parent="1">
          <mxGeometry x="720" y="999" width="40" height="40" as="geometry" />
        </mxCell>
        <mxCell id="w-6r28DezkTKs4tXM-bR-278" value="" style="endArrow=classic;html=1;rounded=0;entryX=0;entryY=0.5;entryDx=0;entryDy=0;fontStyle=1" edge="1" parent="1" target="w-6r28DezkTKs4tXM-bR-280">
          <mxGeometry width="50" height="50" relative="1" as="geometry">
            <mxPoint x="761" y="969" as="sourcePoint" />
            <mxPoint x="859.5" y="919" as="targetPoint" />
            <Array as="points">
              <mxPoint x="801" y="969" />
              <mxPoint x="801" y="919" />
            </Array>
          </mxGeometry>
        </mxCell>
        <mxCell id="w-6r28DezkTKs4tXM-bR-279" value="" style="endArrow=classic;html=1;rounded=0;fontStyle=1" edge="1" parent="1">
          <mxGeometry width="50" height="50" relative="1" as="geometry">
            <mxPoint x="801" y="969" as="sourcePoint" />
            <mxPoint x="841" y="969" as="targetPoint" />
            <Array as="points">
              <mxPoint x="811" y="969" />
            </Array>
          </mxGeometry>
        </mxCell>
        <mxCell id="w-6r28DezkTKs4tXM-bR-280" value="100" style="rounded=0;whiteSpace=wrap;html=1;fontStyle=1" vertex="1" parent="1">
          <mxGeometry x="841" y="899" width="40" height="40" as="geometry" />
        </mxCell>
        <mxCell id="w-6r28DezkTKs4tXM-bR-281" value="101" style="rounded=0;whiteSpace=wrap;html=1;fontStyle=1" vertex="1" parent="1">
          <mxGeometry x="841" y="949" width="40" height="40" as="geometry" />
        </mxCell>
        <mxCell id="w-6r28DezkTKs4tXM-bR-282" value="" style="endArrow=classic;html=1;rounded=0;entryX=0;entryY=0.5;entryDx=0;entryDy=0;exitX=1;exitY=0.5;exitDx=0;exitDy=0;fontStyle=1" edge="1" parent="1" target="w-6r28DezkTKs4tXM-bR-284" source="w-6r28DezkTKs4tXM-bR-277">
          <mxGeometry width="50" height="50" relative="1" as="geometry">
            <mxPoint x="781" y="1019" as="sourcePoint" />
            <mxPoint x="871" y="1019" as="targetPoint" />
          </mxGeometry>
        </mxCell>
        <mxCell id="w-6r28DezkTKs4tXM-bR-284" value="102" style="rounded=0;whiteSpace=wrap;html=1;fontStyle=1" vertex="1" parent="1">
          <mxGeometry x="842" y="999" width="40" height="40" as="geometry" />
        </mxCell>
        <mxCell id="w-6r28DezkTKs4tXM-bR-285" value="103" style="rounded=0;whiteSpace=wrap;html=1;fontStyle=1" vertex="1" parent="1">
          <mxGeometry x="842" y="1049" width="40" height="40" as="geometry" />
        </mxCell>
        <mxCell id="w-6r28DezkTKs4tXM-bR-287" value="" style="endArrow=classic;html=1;rounded=0;fontStyle=1" edge="1" parent="1">
          <mxGeometry width="50" height="50" relative="1" as="geometry">
            <mxPoint x="801" y="1019" as="sourcePoint" />
            <mxPoint x="841" y="1069" as="targetPoint" />
            <Array as="points">
              <mxPoint x="801" y="1069" />
            </Array>
          </mxGeometry>
        </mxCell>
        <mxCell id="w-6r28DezkTKs4tXM-bR-288" value="104" style="rounded=0;whiteSpace=wrap;html=1;fontStyle=1" vertex="1" parent="1">
          <mxGeometry x="842" y="1099" width="40" height="40" as="geometry" />
        </mxCell>
        <mxCell id="w-6r28DezkTKs4tXM-bR-289" value="" style="endArrow=classic;html=1;rounded=0;fontStyle=1" edge="1" parent="1">
          <mxGeometry width="50" height="50" relative="1" as="geometry">
            <mxPoint x="801" y="1069" as="sourcePoint" />
            <mxPoint x="841" y="1119" as="targetPoint" />
            <Array as="points">
              <mxPoint x="801" y="1119" />
            </Array>
          </mxGeometry>
        </mxCell>
        <mxCell id="w-6r28DezkTKs4tXM-bR-290" value="105" style="rounded=0;whiteSpace=wrap;html=1;fontStyle=1" vertex="1" parent="1">
          <mxGeometry x="842" y="1149" width="40" height="40" as="geometry" />
        </mxCell>
        <mxCell id="w-6r28DezkTKs4tXM-bR-291" value="" style="endArrow=classic;html=1;rounded=0;fontStyle=1" edge="1" parent="1">
          <mxGeometry width="50" height="50" relative="1" as="geometry">
            <mxPoint x="801" y="1119" as="sourcePoint" />
            <mxPoint x="841" y="1169" as="targetPoint" />
            <Array as="points">
              <mxPoint x="801" y="1169" />
            </Array>
          </mxGeometry>
        </mxCell>
        <mxCell id="w-6r28DezkTKs4tXM-bR-292" value="106" style="rounded=0;whiteSpace=wrap;html=1;fontStyle=1" vertex="1" parent="1">
          <mxGeometry x="842" y="1199" width="40" height="40" as="geometry" />
        </mxCell>
        <mxCell id="w-6r28DezkTKs4tXM-bR-293" value="" style="endArrow=classic;html=1;rounded=0;fontStyle=1" edge="1" parent="1">
          <mxGeometry width="50" height="50" relative="1" as="geometry">
            <mxPoint x="801" y="1169" as="sourcePoint" />
            <mxPoint x="841" y="1219" as="targetPoint" />
            <Array as="points">
              <mxPoint x="801" y="1219" />
            </Array>
          </mxGeometry>
        </mxCell>
        <mxCell id="w-6r28DezkTKs4tXM-bR-295" value="" style="endArrow=classic;html=1;rounded=0;fontStyle=1" edge="1" parent="1">
          <mxGeometry width="50" height="50" relative="1" as="geometry">
            <mxPoint x="882" y="919" as="sourcePoint" />
            <mxPoint x="932" y="919" as="targetPoint" />
          </mxGeometry>
        </mxCell>
        <mxCell id="w-6r28DezkTKs4tXM-bR-296" value="" style="endArrow=classic;html=1;rounded=0;fontStyle=1" edge="1" parent="1">
          <mxGeometry width="50" height="50" relative="1" as="geometry">
            <mxPoint x="882" y="969" as="sourcePoint" />
            <mxPoint x="932" y="969" as="targetPoint" />
          </mxGeometry>
        </mxCell>
        <mxCell id="w-6r28DezkTKs4tXM-bR-297" value="112" style="rounded=0;whiteSpace=wrap;html=1;fontStyle=1" vertex="1" parent="1">
          <mxGeometry x="931" y="899" width="40" height="40" as="geometry" />
        </mxCell>
        <mxCell id="w-6r28DezkTKs4tXM-bR-298" value="113" style="rounded=0;whiteSpace=wrap;html=1;fontStyle=1" vertex="1" parent="1">
          <mxGeometry x="931" y="949" width="40" height="40" as="geometry" />
        </mxCell>
        <mxCell id="w-6r28DezkTKs4tXM-bR-299" value="" style="endArrow=classic;html=1;rounded=0;entryX=0.5;entryY=0;entryDx=0;entryDy=0;fontStyle=1" edge="1" parent="1" target="w-6r28DezkTKs4tXM-bR-301">
          <mxGeometry width="50" height="50" relative="1" as="geometry">
            <mxPoint x="883" y="1009" as="sourcePoint" />
            <mxPoint x="973" y="1009" as="targetPoint" />
            <Array as="points">
              <mxPoint x="1041" y="1009" />
            </Array>
          </mxGeometry>
        </mxCell>
        <mxCell id="w-6r28DezkTKs4tXM-bR-300" value="" style="endArrow=classic;html=1;rounded=0;entryX=0.5;entryY=0;entryDx=0;entryDy=0;fontStyle=1" edge="1" parent="1" target="w-6r28DezkTKs4tXM-bR-302">
          <mxGeometry width="50" height="50" relative="1" as="geometry">
            <mxPoint x="976" y="1009" as="sourcePoint" />
            <mxPoint x="968" y="1059" as="targetPoint" />
            <Array as="points">
              <mxPoint x="976" y="1009" />
            </Array>
          </mxGeometry>
        </mxCell>
        <mxCell id="w-6r28DezkTKs4tXM-bR-301" value="115" style="rounded=0;whiteSpace=wrap;html=1;fontStyle=1" vertex="1" parent="1">
          <mxGeometry x="1021" y="1029" width="40" height="40" as="geometry" />
        </mxCell>
        <mxCell id="w-6r28DezkTKs4tXM-bR-302" value="114" style="rounded=0;whiteSpace=wrap;html=1;fontStyle=1" vertex="1" parent="1">
          <mxGeometry x="956" y="1029" width="40" height="40" as="geometry" />
        </mxCell>
        <mxCell id="w-6r28DezkTKs4tXM-bR-304" value="" style="endArrow=classic;html=1;rounded=0;entryX=0;entryY=0.5;entryDx=0;entryDy=0;fontStyle=1" edge="1" parent="1" target="w-6r28DezkTKs4tXM-bR-306">
          <mxGeometry width="50" height="50" relative="1" as="geometry">
            <mxPoint x="971" y="919" as="sourcePoint" />
            <mxPoint x="1061" y="919" as="targetPoint" />
          </mxGeometry>
        </mxCell>
        <mxCell id="w-6r28DezkTKs4tXM-bR-306" value="121" style="rounded=0;whiteSpace=wrap;html=1;fontStyle=1" vertex="1" parent="1">
          <mxGeometry x="1020" y="899" width="40" height="40" as="geometry" />
        </mxCell>
        <mxCell id="w-6r28DezkTKs4tXM-bR-308" value="" style="endArrow=classic;html=1;rounded=0;entryX=1;entryY=0.25;entryDx=0;entryDy=0;fontStyle=1" edge="1" parent="1" target="w-6r28DezkTKs4tXM-bR-292">
          <mxGeometry width="50" height="50" relative="1" as="geometry">
            <mxPoint x="971" y="1069" as="sourcePoint" />
            <mxPoint x="1011" y="1019" as="targetPoint" />
            <Array as="points">
              <mxPoint x="971" y="1209" />
            </Array>
          </mxGeometry>
        </mxCell>
        <mxCell id="w-6r28DezkTKs4tXM-bR-309" value="" style="endArrow=classic;html=1;rounded=0;entryX=1;entryY=0.75;entryDx=0;entryDy=0;fontStyle=1" edge="1" parent="1" target="w-6r28DezkTKs4tXM-bR-292">
          <mxGeometry width="50" height="50" relative="1" as="geometry">
            <mxPoint x="1031" y="1069" as="sourcePoint" />
            <mxPoint x="1081" y="1019" as="targetPoint" />
            <Array as="points">
              <mxPoint x="1031" y="1229" />
            </Array>
          </mxGeometry>
        </mxCell>
        <mxCell id="w-6r28DezkTKs4tXM-bR-310" value="" style="endArrow=classic;html=1;rounded=0;entryX=1;entryY=0.75;entryDx=0;entryDy=0;fontStyle=1" edge="1" parent="1">
          <mxGeometry width="50" height="50" relative="1" as="geometry">
            <mxPoint x="971" y="1074" as="sourcePoint" />
            <mxPoint x="882" y="1074" as="targetPoint" />
          </mxGeometry>
        </mxCell>
        <mxCell id="w-6r28DezkTKs4tXM-bR-311" value="" style="endArrow=classic;html=1;rounded=0;entryX=1;entryY=1;entryDx=0;entryDy=0;fontStyle=1" edge="1" parent="1">
          <mxGeometry width="50" height="50" relative="1" as="geometry">
            <mxPoint x="1031" y="1083" as="sourcePoint" />
            <mxPoint x="882" y="1083" as="targetPoint" />
          </mxGeometry>
        </mxCell>
        <mxCell id="w-6r28DezkTKs4tXM-bR-312" value="" style="endArrow=classic;html=1;rounded=0;entryX=1;entryY=0.75;entryDx=0;entryDy=0;fontStyle=1" edge="1" parent="1">
          <mxGeometry width="50" height="50" relative="1" as="geometry">
            <mxPoint x="970" y="1114.02" as="sourcePoint" />
            <mxPoint x="881" y="1114.02" as="targetPoint" />
          </mxGeometry>
        </mxCell>
        <mxCell id="w-6r28DezkTKs4tXM-bR-313" value="" style="endArrow=classic;html=1;rounded=0;entryX=1;entryY=1;entryDx=0;entryDy=0;fontStyle=1" edge="1" parent="1">
          <mxGeometry width="50" height="50" relative="1" as="geometry">
            <mxPoint x="1030" y="1123.02" as="sourcePoint" />
            <mxPoint x="881" y="1123.02" as="targetPoint" />
          </mxGeometry>
        </mxCell>
        <mxCell id="w-6r28DezkTKs4tXM-bR-314" value="" style="endArrow=classic;html=1;rounded=0;entryX=1;entryY=0.75;entryDx=0;entryDy=0;fontStyle=1" edge="1" parent="1">
          <mxGeometry width="50" height="50" relative="1" as="geometry">
            <mxPoint x="971" y="1164.02" as="sourcePoint" />
            <mxPoint x="882" y="1164.02" as="targetPoint" />
          </mxGeometry>
        </mxCell>
        <mxCell id="w-6r28DezkTKs4tXM-bR-315" value="" style="endArrow=classic;html=1;rounded=0;entryX=1;entryY=1;entryDx=0;entryDy=0;fontStyle=1" edge="1" parent="1">
          <mxGeometry width="50" height="50" relative="1" as="geometry">
            <mxPoint x="1031" y="1173.02" as="sourcePoint" />
            <mxPoint x="882" y="1173.02" as="targetPoint" />
          </mxGeometry>
        </mxCell>
        <mxCell id="w-6r28DezkTKs4tXM-bR-316" value="" style="endArrow=classic;html=1;rounded=0;fontStyle=1" edge="1" parent="1">
          <mxGeometry width="50" height="50" relative="1" as="geometry">
            <mxPoint x="971" y="1209" as="sourcePoint" />
            <mxPoint x="971" y="1249" as="targetPoint" />
          </mxGeometry>
        </mxCell>
        <mxCell id="w-6r28DezkTKs4tXM-bR-317" value="" style="endArrow=classic;html=1;rounded=0;fontStyle=1" edge="1" parent="1">
          <mxGeometry width="50" height="50" relative="1" as="geometry">
            <mxPoint x="1031" y="1229" as="sourcePoint" />
            <mxPoint x="1031" y="1249" as="targetPoint" />
          </mxGeometry>
        </mxCell>
        <mxCell id="w-6r28DezkTKs4tXM-bR-318" value="122" style="rounded=0;whiteSpace=wrap;html=1;fontStyle=1" vertex="1" parent="1">
          <mxGeometry x="959" y="1249" width="40" height="40" as="geometry" />
        </mxCell>
        <mxCell id="w-6r28DezkTKs4tXM-bR-319" value="123" style="rounded=0;whiteSpace=wrap;html=1;fontStyle=1" vertex="1" parent="1">
          <mxGeometry x="1021" y="1249" width="40" height="40" as="geometry" />
        </mxCell>
        <mxCell id="w-6r28DezkTKs4tXM-bR-320" value="" style="endArrow=classic;html=1;rounded=0;entryX=0.75;entryY=1;entryDx=0;entryDy=0;fontStyle=1" edge="1" parent="1" target="w-6r28DezkTKs4tXM-bR-302">
          <mxGeometry width="50" height="50" relative="1" as="geometry">
            <mxPoint x="986" y="1249" as="sourcePoint" />
            <mxPoint x="1031" y="1199" as="targetPoint" />
          </mxGeometry>
        </mxCell>
        <mxCell id="w-6r28DezkTKs4tXM-bR-321" value="" style="endArrow=classic;html=1;rounded=0;exitX=0.75;exitY=0;exitDx=0;exitDy=0;entryX=0.75;entryY=1;entryDx=0;entryDy=0;fontStyle=1" edge="1" parent="1" source="w-6r28DezkTKs4tXM-bR-319" target="w-6r28DezkTKs4tXM-bR-301">
          <mxGeometry width="50" height="50" relative="1" as="geometry">
            <mxPoint x="991" y="1119" as="sourcePoint" />
            <mxPoint x="1041" y="1069" as="targetPoint" />
          </mxGeometry>
        </mxCell>
        <mxCell id="w-6r28DezkTKs4tXM-bR-322" value="" style="endArrow=classic;html=1;rounded=0;entryX=0.75;entryY=1;entryDx=0;entryDy=0;fontStyle=1" edge="1" parent="1" target="w-6r28DezkTKs4tXM-bR-302">
          <mxGeometry width="50" height="50" relative="1" as="geometry">
            <mxPoint x="1051" y="1249" as="sourcePoint" />
            <mxPoint x="991" y="1069" as="targetPoint" />
          </mxGeometry>
        </mxCell>
        <mxCell id="w-6r28DezkTKs4tXM-bR-323" value="" style="endArrow=classic;html=1;rounded=0;exitX=0.75;exitY=0;exitDx=0;exitDy=0;entryX=0.75;entryY=1;entryDx=0;entryDy=0;fontStyle=1" edge="1" parent="1" target="w-6r28DezkTKs4tXM-bR-301">
          <mxGeometry width="50" height="50" relative="1" as="geometry">
            <mxPoint x="987" y="1249" as="sourcePoint" />
            <mxPoint x="1049" y="1079" as="targetPoint" />
          </mxGeometry>
        </mxCell>
        <mxCell id="w-6r28DezkTKs4tXM-bR-324" value="(" style="text;html=1;strokeColor=none;fillColor=none;align=center;verticalAlign=middle;whiteSpace=wrap;rounded=0;fontStyle=1" vertex="1" parent="1">
          <mxGeometry x="530" y="560" width="60" height="30" as="geometry" />
        </mxCell>
        <mxCell id="w-6r28DezkTKs4tXM-bR-326" value="integer" style="text;html=1;strokeColor=none;fillColor=none;align=center;verticalAlign=middle;whiteSpace=wrap;rounded=0;fontStyle=1" vertex="1" parent="1">
          <mxGeometry x="809" y="510" width="40" height="40" as="geometry" />
        </mxCell>
        <mxCell id="w-6r28DezkTKs4tXM-bR-327" value="id_init" style="text;html=1;strokeColor=none;fillColor=none;align=center;verticalAlign=middle;whiteSpace=wrap;rounded=0;fontStyle=1" vertex="1" parent="1">
          <mxGeometry x="500" y="850" width="60" height="30" as="geometry" />
        </mxCell>
        <mxCell id="w-6r28DezkTKs4tXM-bR-328" value="type" style="text;html=1;strokeColor=none;fillColor=none;align=center;verticalAlign=middle;whiteSpace=wrap;rounded=0;fontStyle=1" vertex="1" parent="1">
          <mxGeometry x="1185" y="305" width="60" height="30" as="geometry" />
        </mxCell>
        <mxCell id="w-6r28DezkTKs4tXM-bR-329" value=";" style="text;html=1;strokeColor=none;fillColor=none;align=center;verticalAlign=middle;whiteSpace=wrap;rounded=0;fontStyle=1" vertex="1" parent="1">
          <mxGeometry x="510" y="920" width="60" height="30" as="geometry" />
        </mxCell>
        <mxCell id="w-6r28DezkTKs4tXM-bR-331" value="&lt;span&gt;identifier&lt;/span&gt;" style="text;html=1;strokeColor=none;fillColor=none;align=center;verticalAlign=middle;whiteSpace=wrap;rounded=0;fontStyle=1" vertex="1" parent="1">
          <mxGeometry x="572" y="1005" width="60" height="30" as="geometry" />
        </mxCell>
        <mxCell id="w-6r28DezkTKs4tXM-bR-332" value="&lt;span&gt;relational_expr&lt;/span&gt;" style="text;html=1;strokeColor=none;fillColor=none;align=center;verticalAlign=middle;whiteSpace=wrap;rounded=0;fontStyle=1" vertex="1" parent="1">
          <mxGeometry x="579" y="926" width="60" height="30" as="geometry" />
        </mxCell>
        <mxCell id="w-6r28DezkTKs4tXM-bR-334" value=";" style="text;html=1;strokeColor=none;fillColor=none;align=center;verticalAlign=middle;whiteSpace=wrap;rounded=0;fontStyle=1" vertex="1" parent="1">
          <mxGeometry x="669" y="944" width="60" height="30" as="geometry" />
        </mxCell>
        <mxCell id="w-6r28DezkTKs4tXM-bR-335" value="&lt;span&gt;relational_operator&lt;/span&gt;" style="text;html=1;strokeColor=none;fillColor=none;align=center;verticalAlign=middle;whiteSpace=wrap;rounded=0;fontStyle=1" vertex="1" parent="1">
          <mxGeometry x="671" y="1034" width="60" height="30" as="geometry" />
        </mxCell>
        <mxCell id="w-6r28DezkTKs4tXM-bR-336" value="&lt;span&gt;identifier&lt;/span&gt;" style="text;html=1;strokeColor=none;fillColor=none;align=center;verticalAlign=middle;whiteSpace=wrap;rounded=0;fontStyle=1" vertex="1" parent="1">
          <mxGeometry x="782" y="964" width="60" height="30" as="geometry" />
        </mxCell>
        <mxCell id="w-6r28DezkTKs4tXM-bR-337" value="&lt;span&gt;identifier&lt;/span&gt;" style="text;html=1;strokeColor=none;fillColor=none;align=center;verticalAlign=middle;whiteSpace=wrap;rounded=0;fontStyle=1" vertex="1" parent="1">
          <mxGeometry x="742" y="1154" width="60" height="30" as="geometry" />
        </mxCell>
        <mxCell id="w-6r28DezkTKs4tXM-bR-338" value="number" style="text;html=1;strokeColor=none;fillColor=none;align=center;verticalAlign=middle;whiteSpace=wrap;rounded=0;fontStyle=1" vertex="1" parent="1">
          <mxGeometry x="745" y="1204" width="60" height="30" as="geometry" />
        </mxCell>
        <mxCell id="w-6r28DezkTKs4tXM-bR-339" value="&lt;span&gt;unary_expr&lt;/span&gt;" style="text;html=1;strokeColor=none;fillColor=none;align=center;verticalAlign=middle;whiteSpace=wrap;rounded=0;fontStyle=1" vertex="1" parent="1">
          <mxGeometry x="772" y="895" width="60" height="30" as="geometry" />
        </mxCell>
        <mxCell id="w-6r28DezkTKs4tXM-bR-340" value="expr" style="text;html=1;strokeColor=none;fillColor=none;align=center;verticalAlign=middle;whiteSpace=wrap;rounded=0;fontStyle=1" vertex="1" parent="1">
          <mxGeometry x="644" y="40" width="60" height="30" as="geometry" />
        </mxCell>
        <mxCell id="w-6r28DezkTKs4tXM-bR-341" value="expr" style="text;html=1;strokeColor=none;fillColor=none;align=center;verticalAlign=middle;whiteSpace=wrap;rounded=0;fontStyle=1" vertex="1" parent="1">
          <mxGeometry x="792" y="994" width="60" height="30" as="geometry" />
        </mxCell>
        <mxCell id="w-6r28DezkTKs4tXM-bR-342" value="add_expr" style="text;html=1;strokeColor=none;fillColor=none;align=center;verticalAlign=middle;whiteSpace=wrap;rounded=0;fontStyle=1" vertex="1" parent="1">
          <mxGeometry x="741" y="1054" width="60" height="30" as="geometry" />
        </mxCell>
        <mxCell id="w-6r28DezkTKs4tXM-bR-343" value="mul_expr" style="text;html=1;strokeColor=none;fillColor=none;align=center;verticalAlign=middle;whiteSpace=wrap;rounded=0;fontStyle=1" vertex="1" parent="1">
          <mxGeometry x="740" y="1104" width="60" height="30" as="geometry" />
        </mxCell>
        <mxCell id="w-6r28DezkTKs4tXM-bR-344" value=")" style="text;html=1;strokeColor=none;fillColor=none;align=center;verticalAlign=middle;whiteSpace=wrap;rounded=0;fontStyle=1" vertex="1" parent="1">
          <mxGeometry x="874" y="892" width="60" height="30" as="geometry" />
        </mxCell>
        <mxCell id="w-6r28DezkTKs4tXM-bR-345" value="++" style="text;html=1;strokeColor=none;fillColor=none;align=center;verticalAlign=middle;whiteSpace=wrap;rounded=0;fontStyle=1" vertex="1" parent="1">
          <mxGeometry x="878" y="944" width="60" height="30" as="geometry" />
        </mxCell>
        <mxCell id="w-6r28DezkTKs4tXM-bR-346" value="+" style="text;html=1;strokeColor=none;fillColor=none;align=center;verticalAlign=middle;whiteSpace=wrap;rounded=0;fontStyle=1" vertex="1" parent="1">
          <mxGeometry x="939" y="1001" width="60" height="30" as="geometry" />
        </mxCell>
        <mxCell id="w-6r28DezkTKs4tXM-bR-347" value="*" style="text;html=1;strokeColor=none;fillColor=none;align=center;verticalAlign=middle;whiteSpace=wrap;rounded=0;fontStyle=1" vertex="1" parent="1">
          <mxGeometry x="1003" y="1004" width="60" height="30" as="geometry" />
        </mxCell>
        <mxCell id="w-6r28DezkTKs4tXM-bR-348" value="&lt;span&gt;begin&lt;/span&gt;" style="text;html=1;strokeColor=none;fillColor=none;align=center;verticalAlign=middle;whiteSpace=wrap;rounded=0;fontStyle=1" vertex="1" parent="1">
          <mxGeometry x="961" y="895" width="60" height="30" as="geometry" />
        </mxCell>
        <mxCell id="w-6r28DezkTKs4tXM-bR-349" value="&lt;span&gt;identifier&lt;/span&gt;" style="text;html=1;strokeColor=none;fillColor=none;align=center;verticalAlign=middle;whiteSpace=wrap;rounded=0;fontStyle=1" vertex="1" parent="1">
          <mxGeometry x="887" y="1143" width="60" height="30" as="geometry" />
        </mxCell>
        <mxCell id="w-6r28DezkTKs4tXM-bR-350" value="number" style="text;html=1;strokeColor=none;fillColor=none;align=center;verticalAlign=middle;whiteSpace=wrap;rounded=0;fontStyle=1" vertex="1" parent="1">
          <mxGeometry x="883" y="1204" width="60" height="30" as="geometry" />
        </mxCell>
        <mxCell id="w-6r28DezkTKs4tXM-bR-351" value="add_expr" style="text;html=1;strokeColor=none;fillColor=none;align=center;verticalAlign=middle;whiteSpace=wrap;rounded=0;fontStyle=1" vertex="1" parent="1">
          <mxGeometry x="886" y="1049" width="60" height="30" as="geometry" />
        </mxCell>
        <mxCell id="w-6r28DezkTKs4tXM-bR-352" value="mul_expr" style="text;html=1;strokeColor=none;fillColor=none;align=center;verticalAlign=middle;whiteSpace=wrap;rounded=0;fontStyle=1" vertex="1" parent="1">
          <mxGeometry x="886" y="1091" width="60" height="30" as="geometry" />
        </mxCell>
        <mxCell id="w-6r28DezkTKs4tXM-bR-353" value="expr" style="text;html=1;strokeColor=none;fillColor=none;align=center;verticalAlign=middle;whiteSpace=wrap;rounded=0;fontStyle=1" vertex="1" parent="1">
          <mxGeometry x="925" y="1224" width="60" height="30" as="geometry" />
        </mxCell>
        <mxCell id="w-6r28DezkTKs4tXM-bR-354" value="expr" style="text;html=1;strokeColor=none;fillColor=none;align=center;verticalAlign=middle;whiteSpace=wrap;rounded=0;fontStyle=1" vertex="1" parent="1">
          <mxGeometry x="985" y="1224" width="60" height="30" as="geometry" />
        </mxCell>
        <mxCell id="w-6r28DezkTKs4tXM-bR-355" value="+" style="text;html=1;strokeColor=none;fillColor=none;align=center;verticalAlign=middle;whiteSpace=wrap;rounded=0;fontStyle=1" vertex="1" parent="1">
          <mxGeometry x="966" y="1064" width="60" height="30" as="geometry" />
        </mxCell>
        <mxCell id="w-6r28DezkTKs4tXM-bR-356" value="*" style="text;html=1;strokeColor=none;fillColor=none;align=center;verticalAlign=middle;whiteSpace=wrap;rounded=0;fontStyle=1" vertex="1" parent="1">
          <mxGeometry x="1030" y="1067" width="60" height="30" as="geometry" />
        </mxCell>
        <mxCell id="w-6r28DezkTKs4tXM-bR-357" value="" style="endArrow=classic;html=1;rounded=0;entryX=0.5;entryY=0;entryDx=0;entryDy=0;exitX=0.5;exitY=1;exitDx=0;exitDy=0;fontStyle=1" edge="1" parent="1" source="w-6r28DezkTKs4tXM-bR-67" target="w-6r28DezkTKs4tXM-bR-363">
          <mxGeometry width="50" height="50" relative="1" as="geometry">
            <mxPoint x="410" y="560" as="sourcePoint" />
            <mxPoint x="410" y="640" as="targetPoint" />
          </mxGeometry>
        </mxCell>
        <mxCell id="w-6r28DezkTKs4tXM-bR-359" value="" style="endArrow=classic;html=1;rounded=0;exitX=0.5;exitY=1;exitDx=0;exitDy=0;entryX=0.5;entryY=0;entryDx=0;entryDy=0;fontStyle=1" edge="1" parent="1" source="w-6r28DezkTKs4tXM-bR-68" target="w-6r28DezkTKs4tXM-bR-364">
          <mxGeometry width="50" height="50" relative="1" as="geometry">
            <mxPoint x="479" y="560" as="sourcePoint" />
            <mxPoint x="480" y="640" as="targetPoint" />
          </mxGeometry>
        </mxCell>
        <mxCell id="w-6r28DezkTKs4tXM-bR-363" value="23" style="rounded=0;whiteSpace=wrap;html=1;fontStyle=1" vertex="1" parent="1">
          <mxGeometry x="390" y="640" width="40" height="40" as="geometry" />
        </mxCell>
        <mxCell id="w-6r28DezkTKs4tXM-bR-364" value="24" style="rounded=0;whiteSpace=wrap;html=1;fontStyle=1" vertex="1" parent="1">
          <mxGeometry x="460" y="640" width="40" height="40" as="geometry" />
        </mxCell>
        <mxCell id="w-6r28DezkTKs4tXM-bR-365" value="" style="endArrow=classic;html=1;rounded=0;entryX=1;entryY=0.5;entryDx=0;entryDy=0;fontStyle=1" edge="1" parent="1" source="w-6r28DezkTKs4tXM-bR-363" target="w-6r28DezkTKs4tXM-bR-366">
          <mxGeometry width="50" height="50" relative="1" as="geometry">
            <mxPoint x="390" y="660" as="sourcePoint" />
            <mxPoint x="280" y="660" as="targetPoint" />
          </mxGeometry>
        </mxCell>
        <mxCell id="w-6r28DezkTKs4tXM-bR-431" style="edgeStyle=orthogonalEdgeStyle;rounded=0;orthogonalLoop=1;jettySize=auto;html=1;exitX=0;exitY=0.5;exitDx=0;exitDy=0;entryX=1;entryY=0.5;entryDx=0;entryDy=0;fontStyle=1" edge="1" parent="1" source="w-6r28DezkTKs4tXM-bR-366" target="w-6r28DezkTKs4tXM-bR-430">
          <mxGeometry relative="1" as="geometry" />
        </mxCell>
        <mxCell id="w-6r28DezkTKs4tXM-bR-366" value="30" style="rounded=0;whiteSpace=wrap;html=1;fontStyle=1" vertex="1" parent="1">
          <mxGeometry x="240" y="640" width="40" height="40" as="geometry" />
        </mxCell>
        <mxCell id="w-6r28DezkTKs4tXM-bR-367" value="" style="endArrow=classic;html=1;rounded=0;entryX=0.5;entryY=0;entryDx=0;entryDy=0;fontStyle=1" edge="1" parent="1" source="w-6r28DezkTKs4tXM-bR-364" target="w-6r28DezkTKs4tXM-bR-368">
          <mxGeometry width="50" height="50" relative="1" as="geometry">
            <mxPoint x="480" y="680" as="sourcePoint" />
            <mxPoint x="480" y="760" as="targetPoint" />
          </mxGeometry>
        </mxCell>
        <mxCell id="w-6r28DezkTKs4tXM-bR-374" value="" style="edgeStyle=orthogonalEdgeStyle;rounded=0;orthogonalLoop=1;jettySize=auto;html=1;fontStyle=1" edge="1" parent="1" source="w-6r28DezkTKs4tXM-bR-368" target="w-6r28DezkTKs4tXM-bR-373">
          <mxGeometry relative="1" as="geometry" />
        </mxCell>
        <mxCell id="w-6r28DezkTKs4tXM-bR-368" value="32" style="rounded=0;whiteSpace=wrap;html=1;fontStyle=1" vertex="1" parent="1">
          <mxGeometry x="460" y="720" width="40" height="40" as="geometry" />
        </mxCell>
        <mxCell id="w-6r28DezkTKs4tXM-bR-386" style="edgeStyle=orthogonalEdgeStyle;rounded=0;orthogonalLoop=1;jettySize=auto;html=1;exitX=0;exitY=0.5;exitDx=0;exitDy=0;entryX=1;entryY=0.5;entryDx=0;entryDy=0;fontStyle=1" edge="1" parent="1" source="w-6r28DezkTKs4tXM-bR-369" target="w-6r28DezkTKs4tXM-bR-385">
          <mxGeometry relative="1" as="geometry" />
        </mxCell>
        <mxCell id="w-6r28DezkTKs4tXM-bR-369" value="31" style="rounded=0;whiteSpace=wrap;html=1;fontStyle=1" vertex="1" parent="1">
          <mxGeometry x="360" y="760" width="40" height="40" as="geometry" />
        </mxCell>
        <mxCell id="w-6r28DezkTKs4tXM-bR-370" value="" style="endArrow=classic;html=1;rounded=0;entryX=0.5;entryY=0;entryDx=0;entryDy=0;fontStyle=1" edge="1" parent="1" source="w-6r28DezkTKs4tXM-bR-363" target="w-6r28DezkTKs4tXM-bR-369">
          <mxGeometry width="50" height="50" relative="1" as="geometry">
            <mxPoint x="410" y="680" as="sourcePoint" />
            <mxPoint x="460" y="630" as="targetPoint" />
          </mxGeometry>
        </mxCell>
        <mxCell id="w-6r28DezkTKs4tXM-bR-371" value="" style="endArrow=classic;html=1;rounded=0;fontStyle=1" edge="1" parent="1" source="w-6r28DezkTKs4tXM-bR-364">
          <mxGeometry width="50" height="50" relative="1" as="geometry">
            <mxPoint x="460" y="670" as="sourcePoint" />
            <mxPoint x="380" y="760" as="targetPoint" />
          </mxGeometry>
        </mxCell>
        <mxCell id="w-6r28DezkTKs4tXM-bR-372" value="" style="endArrow=classic;html=1;rounded=0;entryX=0.5;entryY=0;entryDx=0;entryDy=0;fontStyle=1" edge="1" parent="1" source="w-6r28DezkTKs4tXM-bR-368" target="w-6r28DezkTKs4tXM-bR-373">
          <mxGeometry width="50" height="50" relative="1" as="geometry">
            <mxPoint x="480" y="800" as="sourcePoint" />
            <mxPoint x="480" y="880" as="targetPoint" />
          </mxGeometry>
        </mxCell>
        <mxCell id="w-6r28DezkTKs4tXM-bR-377" style="edgeStyle=orthogonalEdgeStyle;rounded=0;orthogonalLoop=1;jettySize=auto;html=1;exitX=0.5;exitY=1;exitDx=0;exitDy=0;fontStyle=1" edge="1" parent="1" source="w-6r28DezkTKs4tXM-bR-373" target="w-6r28DezkTKs4tXM-bR-375">
          <mxGeometry relative="1" as="geometry" />
        </mxCell>
        <mxCell id="w-6r28DezkTKs4tXM-bR-378" style="edgeStyle=orthogonalEdgeStyle;rounded=0;orthogonalLoop=1;jettySize=auto;html=1;exitX=0.5;exitY=1;exitDx=0;exitDy=0;entryX=1;entryY=0.5;entryDx=0;entryDy=0;fontStyle=1" edge="1" parent="1" source="w-6r28DezkTKs4tXM-bR-373" target="w-6r28DezkTKs4tXM-bR-376">
          <mxGeometry relative="1" as="geometry" />
        </mxCell>
        <mxCell id="w-6r28DezkTKs4tXM-bR-373" value="41" style="rounded=0;whiteSpace=wrap;html=1;fontStyle=1" vertex="1" parent="1">
          <mxGeometry x="460" y="800" width="40" height="40" as="geometry" />
        </mxCell>
        <mxCell id="w-6r28DezkTKs4tXM-bR-382" style="edgeStyle=orthogonalEdgeStyle;rounded=0;orthogonalLoop=1;jettySize=auto;html=1;exitX=0.5;exitY=1;exitDx=0;exitDy=0;entryX=1;entryY=0.5;entryDx=0;entryDy=0;fontStyle=1" edge="1" parent="1" source="w-6r28DezkTKs4tXM-bR-375" target="w-6r28DezkTKs4tXM-bR-381">
          <mxGeometry relative="1" as="geometry" />
        </mxCell>
        <mxCell id="w-6r28DezkTKs4tXM-bR-652" style="edgeStyle=orthogonalEdgeStyle;rounded=0;orthogonalLoop=1;jettySize=auto;html=1;exitX=0;exitY=0.75;exitDx=0;exitDy=0;fontStyle=1" edge="1" parent="1" source="w-6r28DezkTKs4tXM-bR-375">
          <mxGeometry relative="1" as="geometry">
            <mxPoint x="20" y="670" as="targetPoint" />
            <Array as="points">
              <mxPoint x="380" y="910" />
              <mxPoint x="380" y="1180" />
              <mxPoint x="20" y="1180" />
            </Array>
          </mxGeometry>
        </mxCell>
        <mxCell id="w-6r28DezkTKs4tXM-bR-659" style="edgeStyle=orthogonalEdgeStyle;rounded=0;orthogonalLoop=1;jettySize=auto;html=1;exitX=0.5;exitY=1;exitDx=0;exitDy=0;fontStyle=1" edge="1" parent="1" source="w-6r28DezkTKs4tXM-bR-375">
          <mxGeometry relative="1" as="geometry">
            <mxPoint x="1240" y="860" as="targetPoint" />
            <Array as="points">
              <mxPoint x="480" y="1420" />
              <mxPoint x="1240" y="1420" />
            </Array>
          </mxGeometry>
        </mxCell>
        <mxCell id="w-6r28DezkTKs4tXM-bR-375" value="58" style="rounded=0;whiteSpace=wrap;html=1;fontStyle=1" vertex="1" parent="1">
          <mxGeometry x="460" y="880" width="39" height="40" as="geometry" />
        </mxCell>
        <mxCell id="w-6r28DezkTKs4tXM-bR-376" value="57" style="rounded=0;whiteSpace=wrap;html=1;fontStyle=1" vertex="1" parent="1">
          <mxGeometry x="400" y="840" width="40" height="40" as="geometry" />
        </mxCell>
        <mxCell id="w-6r28DezkTKs4tXM-bR-384" style="edgeStyle=orthogonalEdgeStyle;rounded=0;orthogonalLoop=1;jettySize=auto;html=1;exitX=0.5;exitY=1;exitDx=0;exitDy=0;entryX=0.5;entryY=0;entryDx=0;entryDy=0;fontStyle=1" edge="1" parent="1" source="w-6r28DezkTKs4tXM-bR-381" target="w-6r28DezkTKs4tXM-bR-383">
          <mxGeometry relative="1" as="geometry" />
        </mxCell>
        <mxCell id="w-6r28DezkTKs4tXM-bR-381" value="83" style="rounded=0;whiteSpace=wrap;html=1;fontStyle=1" vertex="1" parent="1">
          <mxGeometry x="400" y="961" width="40" height="40" as="geometry" />
        </mxCell>
        <mxCell id="w-6r28DezkTKs4tXM-bR-383" value="99" style="rounded=0;whiteSpace=wrap;html=1;fontStyle=1" vertex="1" parent="1">
          <mxGeometry x="400" y="1044" width="40" height="40" as="geometry" />
        </mxCell>
        <mxCell id="w-6r28DezkTKs4tXM-bR-385" value="40" style="rounded=0;whiteSpace=wrap;html=1;fontStyle=1" vertex="1" parent="1">
          <mxGeometry x="240" y="760" width="40" height="40" as="geometry" />
        </mxCell>
        <mxCell id="w-6r28DezkTKs4tXM-bR-387" value="" style="endArrow=classic;html=1;rounded=0;entryX=0;entryY=0.5;entryDx=0;entryDy=0;fontStyle=1;" edge="1" parent="1" target="w-6r28DezkTKs4tXM-bR-388" source="w-6r28DezkTKs4tXM-bR-385">
          <mxGeometry width="50" height="50" relative="1" as="geometry">
            <mxPoint x="240" y="780" as="sourcePoint" />
            <mxPoint x="179" y="860" as="targetPoint" />
            <Array as="points">
              <mxPoint x="110" y="780" />
              <mxPoint x="110" y="860" />
            </Array>
          </mxGeometry>
        </mxCell>
        <mxCell id="w-6r28DezkTKs4tXM-bR-388" value="52" style="rounded=0;whiteSpace=wrap;html=1;fontStyle=1" vertex="1" parent="1">
          <mxGeometry x="151" y="840" width="40" height="40" as="geometry" />
        </mxCell>
        <mxCell id="w-6r28DezkTKs4tXM-bR-389" value="53" style="rounded=0;whiteSpace=wrap;html=1;fontStyle=1" vertex="1" parent="1">
          <mxGeometry x="151" y="890" width="40" height="40" as="geometry" />
        </mxCell>
        <mxCell id="w-6r28DezkTKs4tXM-bR-390" value="" style="endArrow=classic;html=1;rounded=0;fontStyle=1" edge="1" parent="1">
          <mxGeometry width="50" height="50" relative="1" as="geometry">
            <mxPoint x="110" y="860" as="sourcePoint" />
            <mxPoint x="150" y="910" as="targetPoint" />
            <Array as="points">
              <mxPoint x="110" y="910" />
            </Array>
          </mxGeometry>
        </mxCell>
        <mxCell id="w-6r28DezkTKs4tXM-bR-391" value="54" style="rounded=0;whiteSpace=wrap;html=1;fontStyle=1" vertex="1" parent="1">
          <mxGeometry x="151" y="940" width="40" height="40" as="geometry" />
        </mxCell>
        <mxCell id="w-6r28DezkTKs4tXM-bR-392" value="" style="endArrow=classic;html=1;rounded=0;fontStyle=1" edge="1" parent="1">
          <mxGeometry width="50" height="50" relative="1" as="geometry">
            <mxPoint x="110" y="910" as="sourcePoint" />
            <mxPoint x="150" y="960" as="targetPoint" />
            <Array as="points">
              <mxPoint x="110" y="960" />
            </Array>
          </mxGeometry>
        </mxCell>
        <mxCell id="w-6r28DezkTKs4tXM-bR-393" value="55" style="rounded=0;whiteSpace=wrap;html=1;fontStyle=1" vertex="1" parent="1">
          <mxGeometry x="151" y="990" width="40" height="40" as="geometry" />
        </mxCell>
        <mxCell id="w-6r28DezkTKs4tXM-bR-394" value="" style="endArrow=classic;html=1;rounded=0;fontStyle=1" edge="1" parent="1">
          <mxGeometry width="50" height="50" relative="1" as="geometry">
            <mxPoint x="110" y="960" as="sourcePoint" />
            <mxPoint x="150" y="1010" as="targetPoint" />
            <Array as="points">
              <mxPoint x="110" y="1010" />
            </Array>
          </mxGeometry>
        </mxCell>
        <mxCell id="w-6r28DezkTKs4tXM-bR-395" value="56" style="rounded=0;whiteSpace=wrap;html=1;fontStyle=1" vertex="1" parent="1">
          <mxGeometry x="151" y="1040" width="40" height="40" as="geometry" />
        </mxCell>
        <mxCell id="w-6r28DezkTKs4tXM-bR-396" value="" style="endArrow=classic;html=1;rounded=0;fontStyle=1" edge="1" parent="1">
          <mxGeometry width="50" height="50" relative="1" as="geometry">
            <mxPoint x="110" y="1010" as="sourcePoint" />
            <mxPoint x="150" y="1060" as="targetPoint" />
            <Array as="points">
              <mxPoint x="110" y="1060" />
            </Array>
          </mxGeometry>
        </mxCell>
        <mxCell id="w-6r28DezkTKs4tXM-bR-397" value="" style="endArrow=classic;html=1;rounded=0;entryX=0.5;entryY=0;entryDx=0;entryDy=0;fontStyle=1" edge="1" parent="1" target="w-6r28DezkTKs4tXM-bR-399">
          <mxGeometry width="50" height="50" relative="1" as="geometry">
            <mxPoint x="192" y="850" as="sourcePoint" />
            <mxPoint x="282" y="850" as="targetPoint" />
            <Array as="points">
              <mxPoint x="350" y="850" />
            </Array>
          </mxGeometry>
        </mxCell>
        <mxCell id="w-6r28DezkTKs4tXM-bR-398" value="" style="endArrow=classic;html=1;rounded=0;entryX=0.5;entryY=0;entryDx=0;entryDy=0;fontStyle=1" edge="1" parent="1" target="w-6r28DezkTKs4tXM-bR-400">
          <mxGeometry width="50" height="50" relative="1" as="geometry">
            <mxPoint x="285" y="850" as="sourcePoint" />
            <mxPoint x="277" y="900" as="targetPoint" />
            <Array as="points">
              <mxPoint x="285" y="850" />
            </Array>
          </mxGeometry>
        </mxCell>
        <mxCell id="w-6r28DezkTKs4tXM-bR-399" value="82" style="rounded=0;whiteSpace=wrap;html=1;fontStyle=1" vertex="1" parent="1">
          <mxGeometry x="330" y="870" width="40" height="40" as="geometry" />
        </mxCell>
        <mxCell id="w-6r28DezkTKs4tXM-bR-400" value="81" style="rounded=0;whiteSpace=wrap;html=1;fontStyle=1" vertex="1" parent="1">
          <mxGeometry x="265" y="870" width="40" height="40" as="geometry" />
        </mxCell>
        <mxCell id="w-6r28DezkTKs4tXM-bR-401" value="" style="endArrow=classic;html=1;rounded=0;entryX=1;entryY=0.25;entryDx=0;entryDy=0;fontStyle=1" edge="1" parent="1" target="w-6r28DezkTKs4tXM-bR-395">
          <mxGeometry width="50" height="50" relative="1" as="geometry">
            <mxPoint x="280" y="910" as="sourcePoint" />
            <mxPoint x="320" y="860" as="targetPoint" />
            <Array as="points">
              <mxPoint x="280" y="1050" />
            </Array>
          </mxGeometry>
        </mxCell>
        <mxCell id="w-6r28DezkTKs4tXM-bR-402" value="" style="endArrow=classic;html=1;rounded=0;entryX=1;entryY=0.75;entryDx=0;entryDy=0;fontStyle=1" edge="1" parent="1" target="w-6r28DezkTKs4tXM-bR-395">
          <mxGeometry width="50" height="50" relative="1" as="geometry">
            <mxPoint x="340" y="910" as="sourcePoint" />
            <mxPoint x="390" y="860" as="targetPoint" />
            <Array as="points">
              <mxPoint x="340" y="1070" />
            </Array>
          </mxGeometry>
        </mxCell>
        <mxCell id="w-6r28DezkTKs4tXM-bR-403" value="" style="endArrow=classic;html=1;rounded=0;entryX=1;entryY=0.75;entryDx=0;entryDy=0;fontStyle=1" edge="1" parent="1">
          <mxGeometry width="50" height="50" relative="1" as="geometry">
            <mxPoint x="280" y="915" as="sourcePoint" />
            <mxPoint x="191" y="915" as="targetPoint" />
          </mxGeometry>
        </mxCell>
        <mxCell id="w-6r28DezkTKs4tXM-bR-404" value="" style="endArrow=classic;html=1;rounded=0;entryX=1;entryY=1;entryDx=0;entryDy=0;fontStyle=1" edge="1" parent="1">
          <mxGeometry width="50" height="50" relative="1" as="geometry">
            <mxPoint x="340" y="924" as="sourcePoint" />
            <mxPoint x="191" y="924" as="targetPoint" />
          </mxGeometry>
        </mxCell>
        <mxCell id="w-6r28DezkTKs4tXM-bR-405" value="" style="endArrow=classic;html=1;rounded=0;entryX=1;entryY=0.75;entryDx=0;entryDy=0;fontStyle=1" edge="1" parent="1">
          <mxGeometry width="50" height="50" relative="1" as="geometry">
            <mxPoint x="279" y="955.02" as="sourcePoint" />
            <mxPoint x="190" y="955.02" as="targetPoint" />
          </mxGeometry>
        </mxCell>
        <mxCell id="w-6r28DezkTKs4tXM-bR-406" value="" style="endArrow=classic;html=1;rounded=0;entryX=1;entryY=1;entryDx=0;entryDy=0;fontStyle=1" edge="1" parent="1">
          <mxGeometry width="50" height="50" relative="1" as="geometry">
            <mxPoint x="339" y="964.02" as="sourcePoint" />
            <mxPoint x="190" y="964.02" as="targetPoint" />
          </mxGeometry>
        </mxCell>
        <mxCell id="w-6r28DezkTKs4tXM-bR-407" value="" style="endArrow=classic;html=1;rounded=0;entryX=1;entryY=0.75;entryDx=0;entryDy=0;fontStyle=1" edge="1" parent="1">
          <mxGeometry width="50" height="50" relative="1" as="geometry">
            <mxPoint x="280" y="1005.02" as="sourcePoint" />
            <mxPoint x="191" y="1005.02" as="targetPoint" />
          </mxGeometry>
        </mxCell>
        <mxCell id="w-6r28DezkTKs4tXM-bR-408" value="" style="endArrow=classic;html=1;rounded=0;entryX=1;entryY=1;entryDx=0;entryDy=0;fontStyle=1" edge="1" parent="1">
          <mxGeometry width="50" height="50" relative="1" as="geometry">
            <mxPoint x="340" y="1014.02" as="sourcePoint" />
            <mxPoint x="191" y="1014.02" as="targetPoint" />
          </mxGeometry>
        </mxCell>
        <mxCell id="w-6r28DezkTKs4tXM-bR-409" value="" style="endArrow=classic;html=1;rounded=0;fontStyle=1" edge="1" parent="1">
          <mxGeometry width="50" height="50" relative="1" as="geometry">
            <mxPoint x="280" y="1050" as="sourcePoint" />
            <mxPoint x="280" y="1090" as="targetPoint" />
          </mxGeometry>
        </mxCell>
        <mxCell id="w-6r28DezkTKs4tXM-bR-410" value="" style="endArrow=classic;html=1;rounded=0;fontStyle=1" edge="1" parent="1">
          <mxGeometry width="50" height="50" relative="1" as="geometry">
            <mxPoint x="340" y="1070" as="sourcePoint" />
            <mxPoint x="340" y="1090" as="targetPoint" />
          </mxGeometry>
        </mxCell>
        <mxCell id="w-6r28DezkTKs4tXM-bR-411" value="97" style="rounded=0;whiteSpace=wrap;html=1;fontStyle=1" vertex="1" parent="1">
          <mxGeometry x="268" y="1090" width="40" height="40" as="geometry" />
        </mxCell>
        <mxCell id="w-6r28DezkTKs4tXM-bR-412" value="98" style="rounded=0;whiteSpace=wrap;html=1;fontStyle=1" vertex="1" parent="1">
          <mxGeometry x="330" y="1090" width="40" height="40" as="geometry" />
        </mxCell>
        <mxCell id="w-6r28DezkTKs4tXM-bR-413" value="" style="endArrow=classic;html=1;rounded=0;entryX=0.75;entryY=1;entryDx=0;entryDy=0;fontStyle=1" edge="1" parent="1" target="w-6r28DezkTKs4tXM-bR-400">
          <mxGeometry width="50" height="50" relative="1" as="geometry">
            <mxPoint x="295" y="1090" as="sourcePoint" />
            <mxPoint x="340" y="1040" as="targetPoint" />
          </mxGeometry>
        </mxCell>
        <mxCell id="w-6r28DezkTKs4tXM-bR-414" value="" style="endArrow=classic;html=1;rounded=0;exitX=0.75;exitY=0;exitDx=0;exitDy=0;entryX=0.75;entryY=1;entryDx=0;entryDy=0;fontStyle=1" edge="1" parent="1" source="w-6r28DezkTKs4tXM-bR-412" target="w-6r28DezkTKs4tXM-bR-399">
          <mxGeometry width="50" height="50" relative="1" as="geometry">
            <mxPoint x="300" y="960" as="sourcePoint" />
            <mxPoint x="350" y="910" as="targetPoint" />
          </mxGeometry>
        </mxCell>
        <mxCell id="w-6r28DezkTKs4tXM-bR-415" value="" style="endArrow=classic;html=1;rounded=0;entryX=0.75;entryY=1;entryDx=0;entryDy=0;fontStyle=1" edge="1" parent="1" target="w-6r28DezkTKs4tXM-bR-400">
          <mxGeometry width="50" height="50" relative="1" as="geometry">
            <mxPoint x="360" y="1090" as="sourcePoint" />
            <mxPoint x="300" y="910" as="targetPoint" />
          </mxGeometry>
        </mxCell>
        <mxCell id="w-6r28DezkTKs4tXM-bR-416" value="" style="endArrow=classic;html=1;rounded=0;exitX=0.75;exitY=0;exitDx=0;exitDy=0;entryX=0.75;entryY=1;entryDx=0;entryDy=0;fontStyle=1" edge="1" parent="1" target="w-6r28DezkTKs4tXM-bR-399">
          <mxGeometry width="50" height="50" relative="1" as="geometry">
            <mxPoint x="296" y="1090" as="sourcePoint" />
            <mxPoint x="358" y="920" as="targetPoint" />
          </mxGeometry>
        </mxCell>
        <mxCell id="w-6r28DezkTKs4tXM-bR-417" value="&lt;span&gt;identifier&lt;/span&gt;" style="text;html=1;strokeColor=none;fillColor=none;align=center;verticalAlign=middle;whiteSpace=wrap;rounded=0;fontStyle=1" vertex="1" parent="1">
          <mxGeometry x="51" y="995" width="60" height="30" as="geometry" />
        </mxCell>
        <mxCell id="w-6r28DezkTKs4tXM-bR-418" value="number" style="text;html=1;strokeColor=none;fillColor=none;align=center;verticalAlign=middle;whiteSpace=wrap;rounded=0;fontStyle=1" vertex="1" parent="1">
          <mxGeometry x="54" y="1045" width="60" height="30" as="geometry" />
        </mxCell>
        <mxCell id="w-6r28DezkTKs4tXM-bR-419" value="*" style="text;html=1;strokeColor=none;fillColor=none;align=center;verticalAlign=middle;whiteSpace=wrap;rounded=0;fontStyle=1" vertex="1" parent="1">
          <mxGeometry x="311" y="845" width="60" height="30" as="geometry" />
        </mxCell>
        <mxCell id="w-6r28DezkTKs4tXM-bR-420" value="&lt;span&gt;identifier&lt;/span&gt;" style="text;html=1;strokeColor=none;fillColor=none;align=center;verticalAlign=middle;whiteSpace=wrap;rounded=0;fontStyle=1" vertex="1" parent="1">
          <mxGeometry x="196" y="984" width="60" height="30" as="geometry" />
        </mxCell>
        <mxCell id="w-6r28DezkTKs4tXM-bR-421" value="number" style="text;html=1;strokeColor=none;fillColor=none;align=center;verticalAlign=middle;whiteSpace=wrap;rounded=0;fontStyle=1" vertex="1" parent="1">
          <mxGeometry x="192" y="1045" width="60" height="30" as="geometry" />
        </mxCell>
        <mxCell id="w-6r28DezkTKs4tXM-bR-422" value="add_expr" style="text;html=1;strokeColor=none;fillColor=none;align=center;verticalAlign=middle;whiteSpace=wrap;rounded=0;fontStyle=1" vertex="1" parent="1">
          <mxGeometry x="195" y="890" width="60" height="30" as="geometry" />
        </mxCell>
        <mxCell id="w-6r28DezkTKs4tXM-bR-423" value="mul_expr" style="text;html=1;strokeColor=none;fillColor=none;align=center;verticalAlign=middle;whiteSpace=wrap;rounded=0;fontStyle=1" vertex="1" parent="1">
          <mxGeometry x="195" y="932" width="60" height="30" as="geometry" />
        </mxCell>
        <mxCell id="w-6r28DezkTKs4tXM-bR-424" value="expr" style="text;html=1;strokeColor=none;fillColor=none;align=center;verticalAlign=middle;whiteSpace=wrap;rounded=0;fontStyle=1" vertex="1" parent="1">
          <mxGeometry x="234" y="1065" width="60" height="30" as="geometry" />
        </mxCell>
        <mxCell id="w-6r28DezkTKs4tXM-bR-425" value="expr" style="text;html=1;strokeColor=none;fillColor=none;align=center;verticalAlign=middle;whiteSpace=wrap;rounded=0;fontStyle=1" vertex="1" parent="1">
          <mxGeometry x="294" y="1065" width="60" height="30" as="geometry" />
        </mxCell>
        <mxCell id="w-6r28DezkTKs4tXM-bR-426" value="+" style="text;html=1;strokeColor=none;fillColor=none;align=center;verticalAlign=middle;whiteSpace=wrap;rounded=0;fontStyle=1" vertex="1" parent="1">
          <mxGeometry x="275" y="905" width="60" height="30" as="geometry" />
        </mxCell>
        <mxCell id="w-6r28DezkTKs4tXM-bR-427" value="*" style="text;html=1;strokeColor=none;fillColor=none;align=center;verticalAlign=middle;whiteSpace=wrap;rounded=0;fontStyle=1" vertex="1" parent="1">
          <mxGeometry x="340" y="909" width="60" height="30" as="geometry" />
        </mxCell>
        <mxCell id="w-6r28DezkTKs4tXM-bR-435" style="edgeStyle=orthogonalEdgeStyle;rounded=0;orthogonalLoop=1;jettySize=auto;html=1;exitX=0;exitY=0.5;exitDx=0;exitDy=0;entryX=1;entryY=0.25;entryDx=0;entryDy=0;fontStyle=1" edge="1" parent="1" source="w-6r28DezkTKs4tXM-bR-430" target="w-6r28DezkTKs4tXM-bR-433">
          <mxGeometry relative="1" as="geometry" />
        </mxCell>
        <mxCell id="w-6r28DezkTKs4tXM-bR-437" style="edgeStyle=orthogonalEdgeStyle;rounded=0;orthogonalLoop=1;jettySize=auto;html=1;exitX=0;exitY=0.5;exitDx=0;exitDy=0;entryX=1;entryY=0.5;entryDx=0;entryDy=0;fontStyle=1" edge="1" parent="1" source="w-6r28DezkTKs4tXM-bR-430" target="w-6r28DezkTKs4tXM-bR-432">
          <mxGeometry relative="1" as="geometry">
            <Array as="points">
              <mxPoint x="110" y="660" />
              <mxPoint x="110" y="580" />
            </Array>
          </mxGeometry>
        </mxCell>
        <mxCell id="w-6r28DezkTKs4tXM-bR-430" value="39" style="rounded=0;whiteSpace=wrap;html=1;fontStyle=1" vertex="1" parent="1">
          <mxGeometry x="120" y="640" width="40" height="40" as="geometry" />
        </mxCell>
        <mxCell id="w-6r28DezkTKs4tXM-bR-439" style="edgeStyle=orthogonalEdgeStyle;rounded=0;orthogonalLoop=1;jettySize=auto;html=1;exitX=0;exitY=0.5;exitDx=0;exitDy=0;entryX=1;entryY=0.5;entryDx=0;entryDy=0;fontStyle=1" edge="1" parent="1" source="w-6r28DezkTKs4tXM-bR-432" target="w-6r28DezkTKs4tXM-bR-438">
          <mxGeometry relative="1" as="geometry" />
        </mxCell>
        <mxCell id="w-6r28DezkTKs4tXM-bR-432" value="50" style="rounded=0;whiteSpace=wrap;html=1;fontStyle=1" vertex="1" parent="1">
          <mxGeometry x="40" y="560" width="40" height="40" as="geometry" />
        </mxCell>
        <mxCell id="w-6r28DezkTKs4tXM-bR-444" style="edgeStyle=orthogonalEdgeStyle;rounded=0;orthogonalLoop=1;jettySize=auto;html=1;exitX=0;exitY=0.5;exitDx=0;exitDy=0;entryX=1;entryY=0.5;entryDx=0;entryDy=0;fontStyle=1" edge="1" parent="1" source="w-6r28DezkTKs4tXM-bR-433" target="w-6r28DezkTKs4tXM-bR-442">
          <mxGeometry relative="1" as="geometry">
            <Array as="points">
              <mxPoint x="30" y="670" />
              <mxPoint x="30" y="630" />
            </Array>
          </mxGeometry>
        </mxCell>
        <mxCell id="w-6r28DezkTKs4tXM-bR-478" style="edgeStyle=orthogonalEdgeStyle;rounded=0;orthogonalLoop=1;jettySize=auto;html=1;exitX=0;exitY=0.5;exitDx=0;exitDy=0;entryX=1;entryY=0.5;entryDx=0;entryDy=0;fontStyle=1" edge="1" parent="1" source="w-6r28DezkTKs4tXM-bR-433" target="w-6r28DezkTKs4tXM-bR-458">
          <mxGeometry relative="1" as="geometry" />
        </mxCell>
        <mxCell id="w-6r28DezkTKs4tXM-bR-479" style="edgeStyle=orthogonalEdgeStyle;rounded=0;orthogonalLoop=1;jettySize=auto;html=1;exitX=0;exitY=0.5;exitDx=0;exitDy=0;entryX=1;entryY=0.5;entryDx=0;entryDy=0;fontStyle=1" edge="1" parent="1" source="w-6r28DezkTKs4tXM-bR-433" target="w-6r28DezkTKs4tXM-bR-459">
          <mxGeometry relative="1" as="geometry" />
        </mxCell>
        <mxCell id="w-6r28DezkTKs4tXM-bR-480" style="edgeStyle=orthogonalEdgeStyle;rounded=0;orthogonalLoop=1;jettySize=auto;html=1;exitX=0;exitY=0.5;exitDx=0;exitDy=0;entryX=1;entryY=0.5;entryDx=0;entryDy=0;fontStyle=1" edge="1" parent="1" source="w-6r28DezkTKs4tXM-bR-433" target="w-6r28DezkTKs4tXM-bR-460">
          <mxGeometry relative="1" as="geometry" />
        </mxCell>
        <mxCell id="w-6r28DezkTKs4tXM-bR-481" style="edgeStyle=orthogonalEdgeStyle;rounded=0;orthogonalLoop=1;jettySize=auto;html=1;exitX=0;exitY=0.5;exitDx=0;exitDy=0;entryX=1;entryY=0.5;entryDx=0;entryDy=0;fontStyle=1" edge="1" parent="1" source="w-6r28DezkTKs4tXM-bR-433" target="w-6r28DezkTKs4tXM-bR-461">
          <mxGeometry relative="1" as="geometry" />
        </mxCell>
        <mxCell id="w-6r28DezkTKs4tXM-bR-483" style="edgeStyle=orthogonalEdgeStyle;rounded=0;orthogonalLoop=1;jettySize=auto;html=1;exitX=0;exitY=0.5;exitDx=0;exitDy=0;entryX=1;entryY=0.5;entryDx=0;entryDy=0;fontStyle=1" edge="1" parent="1" source="w-6r28DezkTKs4tXM-bR-433" target="w-6r28DezkTKs4tXM-bR-463">
          <mxGeometry relative="1" as="geometry" />
        </mxCell>
        <mxCell id="w-6r28DezkTKs4tXM-bR-484" style="edgeStyle=orthogonalEdgeStyle;rounded=0;orthogonalLoop=1;jettySize=auto;html=1;exitX=0;exitY=0.5;exitDx=0;exitDy=0;entryX=1;entryY=0.5;entryDx=0;entryDy=0;fontStyle=1" edge="1" parent="1" source="w-6r28DezkTKs4tXM-bR-433" target="w-6r28DezkTKs4tXM-bR-464">
          <mxGeometry relative="1" as="geometry" />
        </mxCell>
        <mxCell id="w-6r28DezkTKs4tXM-bR-485" style="edgeStyle=orthogonalEdgeStyle;rounded=0;orthogonalLoop=1;jettySize=auto;html=1;exitX=0;exitY=0.5;exitDx=0;exitDy=0;entryX=1;entryY=0.5;entryDx=0;entryDy=0;fontStyle=1" edge="1" parent="1" source="w-6r28DezkTKs4tXM-bR-433" target="w-6r28DezkTKs4tXM-bR-465">
          <mxGeometry relative="1" as="geometry" />
        </mxCell>
        <mxCell id="w-6r28DezkTKs4tXM-bR-486" style="edgeStyle=orthogonalEdgeStyle;rounded=0;orthogonalLoop=1;jettySize=auto;html=1;exitX=0;exitY=0.5;exitDx=0;exitDy=0;entryX=1;entryY=0.5;entryDx=0;entryDy=0;fontStyle=1" edge="1" parent="1" source="w-6r28DezkTKs4tXM-bR-433" target="w-6r28DezkTKs4tXM-bR-466">
          <mxGeometry relative="1" as="geometry" />
        </mxCell>
        <mxCell id="w-6r28DezkTKs4tXM-bR-487" style="edgeStyle=orthogonalEdgeStyle;rounded=0;orthogonalLoop=1;jettySize=auto;html=1;exitX=0;exitY=0.5;exitDx=0;exitDy=0;entryX=1;entryY=0.5;entryDx=0;entryDy=0;fontStyle=1" edge="1" parent="1" source="w-6r28DezkTKs4tXM-bR-433" target="w-6r28DezkTKs4tXM-bR-467">
          <mxGeometry relative="1" as="geometry" />
        </mxCell>
        <mxCell id="w-6r28DezkTKs4tXM-bR-488" style="edgeStyle=orthogonalEdgeStyle;rounded=0;orthogonalLoop=1;jettySize=auto;html=1;exitX=0;exitY=0.5;exitDx=0;exitDy=0;entryX=1;entryY=0.5;entryDx=0;entryDy=0;fontStyle=1" edge="1" parent="1" source="w-6r28DezkTKs4tXM-bR-433" target="w-6r28DezkTKs4tXM-bR-471">
          <mxGeometry relative="1" as="geometry" />
        </mxCell>
        <mxCell id="w-6r28DezkTKs4tXM-bR-489" style="edgeStyle=orthogonalEdgeStyle;rounded=0;orthogonalLoop=1;jettySize=auto;html=1;exitX=0;exitY=0.5;exitDx=0;exitDy=0;entryX=1;entryY=0.5;entryDx=0;entryDy=0;fontStyle=1" edge="1" parent="1" source="w-6r28DezkTKs4tXM-bR-433" target="w-6r28DezkTKs4tXM-bR-470">
          <mxGeometry relative="1" as="geometry">
            <Array as="points">
              <mxPoint x="40" y="670" />
              <mxPoint y="670" />
              <mxPoint y="1618" />
            </Array>
          </mxGeometry>
        </mxCell>
        <mxCell id="w-6r28DezkTKs4tXM-bR-490" style="edgeStyle=orthogonalEdgeStyle;rounded=0;orthogonalLoop=1;jettySize=auto;html=1;exitX=0;exitY=0.5;exitDx=0;exitDy=0;entryX=1;entryY=0.5;entryDx=0;entryDy=0;fontStyle=1" edge="1" parent="1" source="w-6r28DezkTKs4tXM-bR-433" target="w-6r28DezkTKs4tXM-bR-469">
          <mxGeometry relative="1" as="geometry">
            <Array as="points">
              <mxPoint x="40" y="670" />
              <mxPoint y="670" />
              <mxPoint y="1538" />
            </Array>
          </mxGeometry>
        </mxCell>
        <mxCell id="w-6r28DezkTKs4tXM-bR-491" style="edgeStyle=orthogonalEdgeStyle;rounded=0;orthogonalLoop=1;jettySize=auto;html=1;exitX=0;exitY=0.5;exitDx=0;exitDy=0;entryX=1;entryY=0.5;entryDx=0;entryDy=0;fontStyle=1" edge="1" parent="1" source="w-6r28DezkTKs4tXM-bR-433" target="w-6r28DezkTKs4tXM-bR-468">
          <mxGeometry relative="1" as="geometry">
            <Array as="points">
              <mxPoint x="40" y="670" />
              <mxPoint y="670" />
              <mxPoint y="1458" />
            </Array>
          </mxGeometry>
        </mxCell>
        <mxCell id="w-6r28DezkTKs4tXM-bR-660" style="edgeStyle=orthogonalEdgeStyle;rounded=0;orthogonalLoop=1;jettySize=auto;html=1;exitX=0;exitY=0.5;exitDx=0;exitDy=0;fontStyle=1" edge="1" parent="1" source="w-6r28DezkTKs4tXM-bR-433">
          <mxGeometry relative="1" as="geometry">
            <mxPoint x="1240" y="1420" as="targetPoint" />
            <Array as="points">
              <mxPoint y="670" />
              <mxPoint y="690" />
              <mxPoint x="-1400" y="690" />
              <mxPoint x="-1400" y="1760" />
              <mxPoint x="1240" y="1760" />
            </Array>
          </mxGeometry>
        </mxCell>
        <mxCell id="w-6r28DezkTKs4tXM-bR-433" value="51" style="rounded=0;whiteSpace=wrap;html=1;fontStyle=1" vertex="1" parent="1">
          <mxGeometry x="40" y="650" width="40" height="40" as="geometry" />
        </mxCell>
        <mxCell id="w-6r28DezkTKs4tXM-bR-452" style="edgeStyle=orthogonalEdgeStyle;rounded=0;orthogonalLoop=1;jettySize=auto;html=1;exitX=0;exitY=0.5;exitDx=0;exitDy=0;entryX=1;entryY=0.5;entryDx=0;entryDy=0;fontStyle=1" edge="1" parent="1" source="w-6r28DezkTKs4tXM-bR-438" target="w-6r28DezkTKs4tXM-bR-451">
          <mxGeometry relative="1" as="geometry" />
        </mxCell>
        <mxCell id="w-6r28DezkTKs4tXM-bR-438" value="66" style="rounded=0;whiteSpace=wrap;html=1;fontStyle=1" vertex="1" parent="1">
          <mxGeometry x="-80" y="560" width="40" height="40" as="geometry" />
        </mxCell>
        <mxCell id="w-6r28DezkTKs4tXM-bR-450" style="edgeStyle=orthogonalEdgeStyle;rounded=0;orthogonalLoop=1;jettySize=auto;html=1;exitX=0;exitY=0.5;exitDx=0;exitDy=0;fontStyle=1" edge="1" parent="1" source="w-6r28DezkTKs4tXM-bR-442" target="w-6r28DezkTKs4tXM-bR-449">
          <mxGeometry relative="1" as="geometry" />
        </mxCell>
        <mxCell id="w-6r28DezkTKs4tXM-bR-442" value="67" style="rounded=0;whiteSpace=wrap;html=1;fontStyle=1" vertex="1" parent="1">
          <mxGeometry x="-80" y="610" width="40" height="40" as="geometry" />
        </mxCell>
        <mxCell id="w-6r28DezkTKs4tXM-bR-449" value="89" style="rounded=0;whiteSpace=wrap;html=1;fontStyle=1" vertex="1" parent="1">
          <mxGeometry x="-155" y="610" width="40" height="40" as="geometry" />
        </mxCell>
        <mxCell id="w-6r28DezkTKs4tXM-bR-454" style="edgeStyle=orthogonalEdgeStyle;rounded=0;orthogonalLoop=1;jettySize=auto;html=1;exitX=0;exitY=0.5;exitDx=0;exitDy=0;entryX=1;entryY=0.5;entryDx=0;entryDy=0;fontStyle=1" edge="1" parent="1" source="w-6r28DezkTKs4tXM-bR-451" target="w-6r28DezkTKs4tXM-bR-453">
          <mxGeometry relative="1" as="geometry" />
        </mxCell>
        <mxCell id="w-6r28DezkTKs4tXM-bR-457" style="edgeStyle=orthogonalEdgeStyle;rounded=0;orthogonalLoop=1;jettySize=auto;html=1;exitX=0.5;exitY=0;exitDx=0;exitDy=0;entryX=0.5;entryY=0;entryDx=0;entryDy=0;fontStyle=1" edge="1" parent="1" source="w-6r28DezkTKs4tXM-bR-451" target="w-6r28DezkTKs4tXM-bR-369">
          <mxGeometry relative="1" as="geometry">
            <mxPoint x="370" y="760" as="targetPoint" />
            <Array as="points">
              <mxPoint x="-140" y="560" />
              <mxPoint x="-140" y="540" />
              <mxPoint x="380" y="540" />
            </Array>
          </mxGeometry>
        </mxCell>
        <mxCell id="w-6r28DezkTKs4tXM-bR-451" value="88" style="rounded=0;whiteSpace=wrap;html=1;fontStyle=1" vertex="1" parent="1">
          <mxGeometry x="-155" y="560" width="40" height="40" as="geometry" />
        </mxCell>
        <mxCell id="w-6r28DezkTKs4tXM-bR-456" style="edgeStyle=orthogonalEdgeStyle;rounded=0;orthogonalLoop=1;jettySize=auto;html=1;exitX=0;exitY=0.5;exitDx=0;exitDy=0;entryX=1;entryY=0.5;entryDx=0;entryDy=0;fontStyle=1" edge="1" parent="1" source="w-6r28DezkTKs4tXM-bR-453" target="w-6r28DezkTKs4tXM-bR-455">
          <mxGeometry relative="1" as="geometry" />
        </mxCell>
        <mxCell id="w-6r28DezkTKs4tXM-bR-453" value="107" style="rounded=0;whiteSpace=wrap;html=1;fontStyle=1" vertex="1" parent="1">
          <mxGeometry x="-286" y="560" width="40" height="40" as="geometry" />
        </mxCell>
        <mxCell id="w-6r28DezkTKs4tXM-bR-494" style="edgeStyle=orthogonalEdgeStyle;rounded=0;orthogonalLoop=1;jettySize=auto;html=1;exitX=0;exitY=0.5;exitDx=0;exitDy=0;entryX=1;entryY=0.5;entryDx=0;entryDy=0;fontStyle=1" edge="1" parent="1" source="w-6r28DezkTKs4tXM-bR-455" target="w-6r28DezkTKs4tXM-bR-492">
          <mxGeometry relative="1" as="geometry">
            <Array as="points">
              <mxPoint x="-390" y="580" />
              <mxPoint x="-390" y="500" />
            </Array>
          </mxGeometry>
        </mxCell>
        <mxCell id="w-6r28DezkTKs4tXM-bR-495" style="edgeStyle=orthogonalEdgeStyle;rounded=0;orthogonalLoop=1;jettySize=auto;html=1;exitX=0;exitY=0.5;exitDx=0;exitDy=0;entryX=1;entryY=0.5;entryDx=0;entryDy=0;fontStyle=1" edge="1" parent="1" source="w-6r28DezkTKs4tXM-bR-455" target="w-6r28DezkTKs4tXM-bR-493">
          <mxGeometry relative="1" as="geometry" />
        </mxCell>
        <mxCell id="w-6r28DezkTKs4tXM-bR-455" value="116" style="rounded=0;whiteSpace=wrap;html=1;fontStyle=1" vertex="1" parent="1">
          <mxGeometry x="-379" y="560" width="40" height="40" as="geometry" />
        </mxCell>
        <mxCell id="w-6r28DezkTKs4tXM-bR-475" style="edgeStyle=orthogonalEdgeStyle;rounded=0;orthogonalLoop=1;jettySize=auto;html=1;exitX=0;exitY=0.5;exitDx=0;exitDy=0;entryX=1;entryY=0.5;entryDx=0;entryDy=0;fontStyle=1" edge="1" parent="1" source="w-6r28DezkTKs4tXM-bR-458" target="w-6r28DezkTKs4tXM-bR-474">
          <mxGeometry relative="1" as="geometry">
            <Array as="points">
              <mxPoint x="-130" y="740" />
              <mxPoint x="-130" y="740" />
            </Array>
          </mxGeometry>
        </mxCell>
        <mxCell id="w-6r28DezkTKs4tXM-bR-647" style="edgeStyle=orthogonalEdgeStyle;rounded=0;orthogonalLoop=1;jettySize=auto;html=1;exitX=0;exitY=0.5;exitDx=0;exitDy=0;fontStyle=1" edge="1" parent="1" source="w-6r28DezkTKs4tXM-bR-458">
          <mxGeometry relative="1" as="geometry">
            <mxPoint x="-100" y="660" as="targetPoint" />
            <Array as="points">
              <mxPoint x="-100" y="740" />
            </Array>
          </mxGeometry>
        </mxCell>
        <mxCell id="w-6r28DezkTKs4tXM-bR-458" value="68" style="rounded=0;whiteSpace=wrap;html=1;fontStyle=1" vertex="1" parent="1">
          <mxGeometry x="-80" y="720" width="40" height="40" as="geometry" />
        </mxCell>
        <mxCell id="w-6r28DezkTKs4tXM-bR-459" value="69" style="rounded=0;whiteSpace=wrap;html=1;fontStyle=1" vertex="1" parent="1">
          <mxGeometry x="-80" y="800" width="40" height="40" as="geometry" />
        </mxCell>
        <mxCell id="w-6r28DezkTKs4tXM-bR-460" value="70" style="rounded=0;whiteSpace=wrap;html=1;fontStyle=1" vertex="1" parent="1">
          <mxGeometry x="-80" y="880" width="40" height="40" as="geometry" />
        </mxCell>
        <mxCell id="w-6r28DezkTKs4tXM-bR-461" value="71" style="rounded=0;whiteSpace=wrap;html=1;fontStyle=1" vertex="1" parent="1">
          <mxGeometry x="-80" y="959" width="40" height="40" as="geometry" />
        </mxCell>
        <mxCell id="w-6r28DezkTKs4tXM-bR-463" value="72" style="rounded=0;whiteSpace=wrap;html=1;fontStyle=1" vertex="1" parent="1">
          <mxGeometry x="-80" y="1039" width="40" height="40" as="geometry" />
        </mxCell>
        <mxCell id="w-6r28DezkTKs4tXM-bR-464" value="73" style="rounded=0;whiteSpace=wrap;html=1;fontStyle=1" vertex="1" parent="1">
          <mxGeometry x="-80" y="1117" width="40" height="40" as="geometry" />
        </mxCell>
        <mxCell id="w-6r28DezkTKs4tXM-bR-465" value="74" style="rounded=0;whiteSpace=wrap;html=1;fontStyle=1" vertex="1" parent="1">
          <mxGeometry x="-80" y="1198" width="40" height="40" as="geometry" />
        </mxCell>
        <mxCell id="w-6r28DezkTKs4tXM-bR-506" style="edgeStyle=orthogonalEdgeStyle;rounded=0;orthogonalLoop=1;jettySize=auto;html=1;exitX=0;exitY=0.5;exitDx=0;exitDy=0;entryX=1;entryY=0.5;entryDx=0;entryDy=0;fontStyle=1" edge="1" parent="1" source="w-6r28DezkTKs4tXM-bR-466" target="w-6r28DezkTKs4tXM-bR-477">
          <mxGeometry relative="1" as="geometry" />
        </mxCell>
        <mxCell id="w-6r28DezkTKs4tXM-bR-466" value="75" style="rounded=0;whiteSpace=wrap;html=1;fontStyle=1" vertex="1" parent="1">
          <mxGeometry x="-80" y="1278" width="40" height="40" as="geometry" />
        </mxCell>
        <mxCell id="w-6r28DezkTKs4tXM-bR-509" style="edgeStyle=orthogonalEdgeStyle;rounded=0;orthogonalLoop=1;jettySize=auto;html=1;exitX=0;exitY=0.5;exitDx=0;exitDy=0;entryX=1;entryY=0.5;entryDx=0;entryDy=0;fontStyle=1" edge="1" parent="1" source="w-6r28DezkTKs4tXM-bR-467" target="w-6r28DezkTKs4tXM-bR-508">
          <mxGeometry relative="1" as="geometry" />
        </mxCell>
        <mxCell id="w-6r28DezkTKs4tXM-bR-467" value="76" style="rounded=0;whiteSpace=wrap;html=1;fontStyle=1" vertex="1" parent="1">
          <mxGeometry x="-80" y="1358" width="40" height="40" as="geometry" />
        </mxCell>
        <mxCell id="w-6r28DezkTKs4tXM-bR-521" style="edgeStyle=orthogonalEdgeStyle;rounded=0;orthogonalLoop=1;jettySize=auto;html=1;exitX=0;exitY=0.5;exitDx=0;exitDy=0;entryX=1;entryY=0.5;entryDx=0;entryDy=0;fontStyle=1" edge="1" parent="1" source="w-6r28DezkTKs4tXM-bR-468" target="w-6r28DezkTKs4tXM-bR-511">
          <mxGeometry relative="1" as="geometry" />
        </mxCell>
        <mxCell id="w-6r28DezkTKs4tXM-bR-468" value="77" style="rounded=0;whiteSpace=wrap;html=1;fontStyle=1" vertex="1" parent="1">
          <mxGeometry x="-80" y="1438" width="40" height="40" as="geometry" />
        </mxCell>
        <mxCell id="w-6r28DezkTKs4tXM-bR-520" style="edgeStyle=orthogonalEdgeStyle;rounded=0;orthogonalLoop=1;jettySize=auto;html=1;exitX=0;exitY=0.5;exitDx=0;exitDy=0;fontStyle=1" edge="1" parent="1" source="w-6r28DezkTKs4tXM-bR-469" target="w-6r28DezkTKs4tXM-bR-513">
          <mxGeometry relative="1" as="geometry" />
        </mxCell>
        <mxCell id="w-6r28DezkTKs4tXM-bR-469" value="78" style="rounded=0;whiteSpace=wrap;html=1;fontStyle=1" vertex="1" parent="1">
          <mxGeometry x="-80" y="1518" width="40" height="40" as="geometry" />
        </mxCell>
        <mxCell id="w-6r28DezkTKs4tXM-bR-519" style="edgeStyle=orthogonalEdgeStyle;rounded=0;orthogonalLoop=1;jettySize=auto;html=1;exitX=0;exitY=0.5;exitDx=0;exitDy=0;entryX=1;entryY=0.5;entryDx=0;entryDy=0;fontStyle=1" edge="1" parent="1" source="w-6r28DezkTKs4tXM-bR-470" target="w-6r28DezkTKs4tXM-bR-515">
          <mxGeometry relative="1" as="geometry" />
        </mxCell>
        <mxCell id="w-6r28DezkTKs4tXM-bR-470" value="79" style="rounded=0;whiteSpace=wrap;html=1;fontStyle=1" vertex="1" parent="1">
          <mxGeometry x="-80" y="1598" width="40" height="40" as="geometry" />
        </mxCell>
        <mxCell id="w-6r28DezkTKs4tXM-bR-522" style="edgeStyle=orthogonalEdgeStyle;rounded=0;orthogonalLoop=1;jettySize=auto;html=1;exitX=0;exitY=0.5;exitDx=0;exitDy=0;entryX=1;entryY=0.5;entryDx=0;entryDy=0;fontStyle=1" edge="1" parent="1" source="w-6r28DezkTKs4tXM-bR-471" target="w-6r28DezkTKs4tXM-bR-517">
          <mxGeometry relative="1" as="geometry" />
        </mxCell>
        <mxCell id="w-6r28DezkTKs4tXM-bR-471" value="80" style="rounded=0;whiteSpace=wrap;html=1;fontStyle=1" vertex="1" parent="1">
          <mxGeometry x="-80" y="1678" width="40" height="40" as="geometry" />
        </mxCell>
        <mxCell id="w-6r28DezkTKs4tXM-bR-474" value="90" style="rounded=0;whiteSpace=wrap;html=1;fontStyle=1" vertex="1" parent="1">
          <mxGeometry x="-195" y="720" width="40" height="40" as="geometry" />
        </mxCell>
        <mxCell id="w-6r28DezkTKs4tXM-bR-507" style="edgeStyle=orthogonalEdgeStyle;rounded=0;orthogonalLoop=1;jettySize=auto;html=1;exitX=0;exitY=0.5;exitDx=0;exitDy=0;entryX=1;entryY=0.5;entryDx=0;entryDy=0;fontStyle=1" edge="1" parent="1" source="w-6r28DezkTKs4tXM-bR-477" target="w-6r28DezkTKs4tXM-bR-505">
          <mxGeometry relative="1" as="geometry" />
        </mxCell>
        <mxCell id="w-6r28DezkTKs4tXM-bR-661" style="edgeStyle=orthogonalEdgeStyle;rounded=0;orthogonalLoop=1;jettySize=auto;html=1;exitX=0;exitY=0.5;exitDx=0;exitDy=0;fontStyle=1" edge="1" parent="1" source="w-6r28DezkTKs4tXM-bR-477">
          <mxGeometry relative="1" as="geometry">
            <mxPoint x="-140" y="540" as="targetPoint" />
            <Array as="points">
              <mxPoint x="-130" y="1298" />
              <mxPoint x="-130" y="890" />
              <mxPoint x="-300" y="890" />
              <mxPoint x="-300" y="540" />
            </Array>
          </mxGeometry>
        </mxCell>
        <mxCell id="w-6r28DezkTKs4tXM-bR-477" value="91" style="rounded=0;whiteSpace=wrap;html=1;fontStyle=1" vertex="1" parent="1">
          <mxGeometry x="-145" y="1278" width="40" height="40" as="geometry" />
        </mxCell>
        <mxCell id="w-6r28DezkTKs4tXM-bR-497" style="edgeStyle=orthogonalEdgeStyle;rounded=0;orthogonalLoop=1;jettySize=auto;html=1;exitX=0;exitY=0.5;exitDx=0;exitDy=0;fontStyle=1" edge="1" parent="1" source="w-6r28DezkTKs4tXM-bR-492" target="w-6r28DezkTKs4tXM-bR-496">
          <mxGeometry relative="1" as="geometry" />
        </mxCell>
        <mxCell id="w-6r28DezkTKs4tXM-bR-492" value="124" style="rounded=0;whiteSpace=wrap;html=1;fontStyle=1" vertex="1" parent="1">
          <mxGeometry x="-474" y="480" width="40" height="40" as="geometry" />
        </mxCell>
        <mxCell id="w-6r28DezkTKs4tXM-bR-502" style="edgeStyle=orthogonalEdgeStyle;rounded=0;orthogonalLoop=1;jettySize=auto;html=1;exitX=0;exitY=0.5;exitDx=0;exitDy=0;entryX=1;entryY=0.5;entryDx=0;entryDy=0;fontStyle=1" edge="1" parent="1" source="w-6r28DezkTKs4tXM-bR-493" target="w-6r28DezkTKs4tXM-bR-501">
          <mxGeometry relative="1" as="geometry" />
        </mxCell>
        <mxCell id="w-6r28DezkTKs4tXM-bR-648" style="edgeStyle=orthogonalEdgeStyle;rounded=0;orthogonalLoop=1;jettySize=auto;html=1;exitX=0;exitY=0.5;exitDx=0;exitDy=0;fontStyle=1" edge="1" parent="1" source="w-6r28DezkTKs4tXM-bR-493">
          <mxGeometry relative="1" as="geometry">
            <mxPoint x="20" y="670" as="targetPoint" />
            <Array as="points">
              <mxPoint x="-500" y="580" />
              <mxPoint x="-500" y="660" />
              <mxPoint x="20" y="660" />
            </Array>
          </mxGeometry>
        </mxCell>
        <mxCell id="w-6r28DezkTKs4tXM-bR-493" value="125" style="rounded=0;whiteSpace=wrap;html=1;fontStyle=1" vertex="1" parent="1">
          <mxGeometry x="-474" y="560" width="40" height="40" as="geometry" />
        </mxCell>
        <mxCell id="w-6r28DezkTKs4tXM-bR-499" style="edgeStyle=orthogonalEdgeStyle;rounded=0;orthogonalLoop=1;jettySize=auto;html=1;exitX=0;exitY=0.5;exitDx=0;exitDy=0;entryX=1;entryY=0.5;entryDx=0;entryDy=0;fontStyle=1" edge="1" parent="1" source="w-6r28DezkTKs4tXM-bR-496" target="w-6r28DezkTKs4tXM-bR-498">
          <mxGeometry relative="1" as="geometry" />
        </mxCell>
        <mxCell id="w-6r28DezkTKs4tXM-bR-500" style="edgeStyle=orthogonalEdgeStyle;rounded=0;orthogonalLoop=1;jettySize=auto;html=1;exitX=0.5;exitY=0;exitDx=0;exitDy=0;entryX=0;entryY=0.5;entryDx=0;entryDy=0;fontStyle=1" edge="1" parent="1" source="w-6r28DezkTKs4tXM-bR-496" target="w-6r28DezkTKs4tXM-bR-375">
          <mxGeometry relative="1" as="geometry">
            <Array as="points">
              <mxPoint x="-579" y="460" />
              <mxPoint x="180" y="460" />
              <mxPoint x="180" y="810" />
              <mxPoint x="380" y="810" />
              <mxPoint x="380" y="900" />
            </Array>
          </mxGeometry>
        </mxCell>
        <mxCell id="w-6r28DezkTKs4tXM-bR-496" value="132" style="rounded=0;whiteSpace=wrap;html=1;fontStyle=1" vertex="1" parent="1">
          <mxGeometry x="-599" y="480" width="40" height="40" as="geometry" />
        </mxCell>
        <mxCell id="w-6r28DezkTKs4tXM-bR-498" value="138" style="rounded=0;whiteSpace=wrap;html=1;fontStyle=1" vertex="1" parent="1">
          <mxGeometry x="-676" y="480" width="40" height="40" as="geometry" />
        </mxCell>
        <mxCell id="w-6r28DezkTKs4tXM-bR-504" style="edgeStyle=orthogonalEdgeStyle;rounded=0;orthogonalLoop=1;jettySize=auto;html=1;exitX=0;exitY=0.5;exitDx=0;exitDy=0;entryX=1;entryY=0.5;entryDx=0;entryDy=0;fontStyle=1" edge="1" parent="1" source="w-6r28DezkTKs4tXM-bR-501" target="w-6r28DezkTKs4tXM-bR-503">
          <mxGeometry relative="1" as="geometry" />
        </mxCell>
        <mxCell id="w-6r28DezkTKs4tXM-bR-501" value="133" style="rounded=0;whiteSpace=wrap;html=1;fontStyle=1" vertex="1" parent="1">
          <mxGeometry x="-599" y="560" width="40" height="40" as="geometry" />
        </mxCell>
        <mxCell id="w-6r28DezkTKs4tXM-bR-503" value="139" style="rounded=0;whiteSpace=wrap;html=1;fontStyle=1" vertex="1" parent="1">
          <mxGeometry x="-676" y="560" width="40" height="40" as="geometry" />
        </mxCell>
        <mxCell id="w-6r28DezkTKs4tXM-bR-533" style="edgeStyle=orthogonalEdgeStyle;rounded=0;orthogonalLoop=1;jettySize=auto;html=1;exitX=0;exitY=0.5;exitDx=0;exitDy=0;fontStyle=1" edge="1" parent="1" source="w-6r28DezkTKs4tXM-bR-505" target="w-6r28DezkTKs4tXM-bR-526">
          <mxGeometry relative="1" as="geometry" />
        </mxCell>
        <mxCell id="w-6r28DezkTKs4tXM-bR-505" value="108" style="rounded=0;whiteSpace=wrap;html=1;fontStyle=1" vertex="1" parent="1">
          <mxGeometry x="-300" y="1278" width="40" height="40" as="geometry" />
        </mxCell>
        <mxCell id="w-6r28DezkTKs4tXM-bR-523" style="edgeStyle=orthogonalEdgeStyle;rounded=0;orthogonalLoop=1;jettySize=auto;html=1;exitX=0;exitY=0.5;exitDx=0;exitDy=0;entryX=1;entryY=0.5;entryDx=0;entryDy=0;fontStyle=1" edge="1" parent="1" source="w-6r28DezkTKs4tXM-bR-508" target="w-6r28DezkTKs4tXM-bR-510">
          <mxGeometry relative="1" as="geometry" />
        </mxCell>
        <mxCell id="w-6r28DezkTKs4tXM-bR-658" style="edgeStyle=orthogonalEdgeStyle;rounded=0;orthogonalLoop=1;jettySize=auto;html=1;exitX=0;exitY=0.5;exitDx=0;exitDy=0;fontStyle=1" edge="1" parent="1">
          <mxGeometry relative="1" as="geometry">
            <mxPoint x="-130" y="1150" as="targetPoint" />
            <mxPoint x="-304" y="1378.0000000000005" as="sourcePoint" />
            <Array as="points">
              <mxPoint x="-164" y="1378" />
              <mxPoint x="-164" y="1150" />
            </Array>
          </mxGeometry>
        </mxCell>
        <mxCell id="w-6r28DezkTKs4tXM-bR-508" value="92" style="rounded=0;whiteSpace=wrap;html=1;fontStyle=1" vertex="1" parent="1">
          <mxGeometry x="-145" y="1358" width="40" height="40" as="geometry" />
        </mxCell>
        <mxCell id="w-6r28DezkTKs4tXM-bR-532" style="edgeStyle=orthogonalEdgeStyle;rounded=0;orthogonalLoop=1;jettySize=auto;html=1;exitX=0;exitY=0.5;exitDx=0;exitDy=0;fontStyle=1" edge="1" parent="1" source="w-6r28DezkTKs4tXM-bR-510" target="w-6r28DezkTKs4tXM-bR-527">
          <mxGeometry relative="1" as="geometry" />
        </mxCell>
        <mxCell id="w-6r28DezkTKs4tXM-bR-524" style="edgeStyle=orthogonalEdgeStyle;rounded=0;orthogonalLoop=1;jettySize=auto;html=1;exitX=0;exitY=0.5;exitDx=0;exitDy=0;entryX=1;entryY=0.5;entryDx=0;entryDy=0;fontStyle=1" edge="1" parent="1" source="w-6r28DezkTKs4tXM-bR-511" target="w-6r28DezkTKs4tXM-bR-512">
          <mxGeometry relative="1" as="geometry" />
        </mxCell>
        <mxCell id="w-6r28DezkTKs4tXM-bR-653" style="edgeStyle=orthogonalEdgeStyle;rounded=0;orthogonalLoop=1;jettySize=auto;html=1;exitX=0;exitY=0.5;exitDx=0;exitDy=0;fontStyle=1" edge="1" parent="1" source="w-6r28DezkTKs4tXM-bR-511">
          <mxGeometry relative="1" as="geometry">
            <mxPoint x="-500" y="1760" as="targetPoint" />
            <Array as="points">
              <mxPoint x="-170" y="1458" />
              <mxPoint x="-170" y="1590" />
              <mxPoint x="-500" y="1590" />
              <mxPoint x="-500" y="1760" />
            </Array>
          </mxGeometry>
        </mxCell>
        <mxCell id="w-6r28DezkTKs4tXM-bR-511" value="93" style="rounded=0;whiteSpace=wrap;html=1;fontStyle=1" vertex="1" parent="1">
          <mxGeometry x="-145" y="1438" width="40" height="40" as="geometry" />
        </mxCell>
        <mxCell id="w-6r28DezkTKs4tXM-bR-531" style="edgeStyle=orthogonalEdgeStyle;rounded=0;orthogonalLoop=1;jettySize=auto;html=1;exitX=0;exitY=0.5;exitDx=0;exitDy=0;entryX=1;entryY=0.5;entryDx=0;entryDy=0;fontStyle=1" edge="1" parent="1" source="w-6r28DezkTKs4tXM-bR-512" target="w-6r28DezkTKs4tXM-bR-528">
          <mxGeometry relative="1" as="geometry" />
        </mxCell>
        <mxCell id="w-6r28DezkTKs4tXM-bR-512" value="110" style="rounded=0;whiteSpace=wrap;html=1;fontStyle=1" vertex="1" parent="1">
          <mxGeometry x="-300" y="1438" width="40" height="40" as="geometry" />
        </mxCell>
        <mxCell id="w-6r28DezkTKs4tXM-bR-513" value="94" style="rounded=0;whiteSpace=wrap;html=1;fontStyle=1" vertex="1" parent="1">
          <mxGeometry x="-145" y="1518" width="40" height="40" as="geometry" />
        </mxCell>
        <mxCell id="w-6r28DezkTKs4tXM-bR-525" style="edgeStyle=orthogonalEdgeStyle;rounded=0;orthogonalLoop=1;jettySize=auto;html=1;exitX=0;exitY=0.5;exitDx=0;exitDy=0;fontStyle=1" edge="1" parent="1" source="w-6r28DezkTKs4tXM-bR-515" target="w-6r28DezkTKs4tXM-bR-516">
          <mxGeometry relative="1" as="geometry" />
        </mxCell>
        <mxCell id="w-6r28DezkTKs4tXM-bR-515" value="95" style="rounded=0;whiteSpace=wrap;html=1;fontStyle=1" vertex="1" parent="1">
          <mxGeometry x="-145" y="1598" width="40" height="40" as="geometry" />
        </mxCell>
        <mxCell id="w-6r28DezkTKs4tXM-bR-530" style="edgeStyle=orthogonalEdgeStyle;rounded=0;orthogonalLoop=1;jettySize=auto;html=1;exitX=0;exitY=0.5;exitDx=0;exitDy=0;entryX=1;entryY=0.5;entryDx=0;entryDy=0;fontStyle=1" edge="1" parent="1" source="w-6r28DezkTKs4tXM-bR-516" target="w-6r28DezkTKs4tXM-bR-529">
          <mxGeometry relative="1" as="geometry" />
        </mxCell>
        <mxCell id="w-6r28DezkTKs4tXM-bR-516" value="111" style="rounded=0;whiteSpace=wrap;html=1;fontStyle=1" vertex="1" parent="1">
          <mxGeometry x="-300" y="1598" width="40" height="40" as="geometry" />
        </mxCell>
        <mxCell id="w-6r28DezkTKs4tXM-bR-517" value="96" style="rounded=0;whiteSpace=wrap;html=1;fontStyle=1" vertex="1" parent="1">
          <mxGeometry x="-145" y="1678" width="40" height="40" as="geometry" />
        </mxCell>
        <mxCell id="w-6r28DezkTKs4tXM-bR-536" style="edgeStyle=orthogonalEdgeStyle;rounded=0;orthogonalLoop=1;jettySize=auto;html=1;exitX=0;exitY=0.5;exitDx=0;exitDy=0;entryX=1;entryY=0.5;entryDx=0;entryDy=0;fontStyle=1" edge="1" parent="1" source="w-6r28DezkTKs4tXM-bR-526" target="w-6r28DezkTKs4tXM-bR-534">
          <mxGeometry relative="1" as="geometry">
            <Array as="points">
              <mxPoint x="-400" y="1298" />
              <mxPoint x="-400" y="1219" />
            </Array>
          </mxGeometry>
        </mxCell>
        <mxCell id="w-6r28DezkTKs4tXM-bR-537" style="edgeStyle=orthogonalEdgeStyle;rounded=0;orthogonalLoop=1;jettySize=auto;html=1;exitX=0;exitY=0.5;exitDx=0;exitDy=0;entryX=1;entryY=0.5;entryDx=0;entryDy=0;fontStyle=1" edge="1" parent="1" source="w-6r28DezkTKs4tXM-bR-526" target="w-6r28DezkTKs4tXM-bR-535">
          <mxGeometry relative="1" as="geometry" />
        </mxCell>
        <mxCell id="w-6r28DezkTKs4tXM-bR-526" value="117" style="rounded=0;whiteSpace=wrap;html=1;fontStyle=1" vertex="1" parent="1">
          <mxGeometry x="-369" y="1278" width="40" height="40" as="geometry" />
        </mxCell>
        <mxCell id="w-6r28DezkTKs4tXM-bR-540" style="edgeStyle=orthogonalEdgeStyle;rounded=0;orthogonalLoop=1;jettySize=auto;html=1;exitX=0;exitY=0.5;exitDx=0;exitDy=0;entryX=1;entryY=0.5;entryDx=0;entryDy=0;fontStyle=1" edge="1" parent="1" source="w-6r28DezkTKs4tXM-bR-527" target="w-6r28DezkTKs4tXM-bR-538">
          <mxGeometry relative="1" as="geometry" />
        </mxCell>
        <mxCell id="w-6r28DezkTKs4tXM-bR-541" style="edgeStyle=orthogonalEdgeStyle;rounded=0;orthogonalLoop=1;jettySize=auto;html=1;exitX=0;exitY=0.5;exitDx=0;exitDy=0;entryX=1;entryY=0.5;entryDx=0;entryDy=0;fontStyle=1" edge="1" parent="1" source="w-6r28DezkTKs4tXM-bR-527" target="w-6r28DezkTKs4tXM-bR-539">
          <mxGeometry relative="1" as="geometry">
            <Array as="points">
              <mxPoint x="-390" y="1378" />
              <mxPoint x="-390" y="1440" />
            </Array>
          </mxGeometry>
        </mxCell>
        <mxCell id="w-6r28DezkTKs4tXM-bR-527" value="118" style="rounded=0;whiteSpace=wrap;html=1;fontStyle=1" vertex="1" parent="1">
          <mxGeometry x="-369" y="1358" width="40" height="40" as="geometry" />
        </mxCell>
        <mxCell id="w-6r28DezkTKs4tXM-bR-543" style="edgeStyle=orthogonalEdgeStyle;rounded=0;orthogonalLoop=1;jettySize=auto;html=1;exitX=0;exitY=0.5;exitDx=0;exitDy=0;entryX=1;entryY=0.5;entryDx=0;entryDy=0;fontStyle=1" edge="1" parent="1" source="w-6r28DezkTKs4tXM-bR-528" target="w-6r28DezkTKs4tXM-bR-542">
          <mxGeometry relative="1" as="geometry">
            <Array as="points">
              <mxPoint x="-390" y="1458" />
              <mxPoint x="-390" y="1538" />
            </Array>
          </mxGeometry>
        </mxCell>
        <mxCell id="w-6r28DezkTKs4tXM-bR-644" style="edgeStyle=orthogonalEdgeStyle;rounded=0;orthogonalLoop=1;jettySize=auto;html=1;exitX=0.5;exitY=1;exitDx=0;exitDy=0;entryX=0.25;entryY=1;entryDx=0;entryDy=0;fontStyle=1" edge="1" parent="1" source="w-6r28DezkTKs4tXM-bR-528" target="w-6r28DezkTKs4tXM-bR-272">
          <mxGeometry relative="1" as="geometry">
            <Array as="points">
              <mxPoint x="-340" y="1478" />
              <mxPoint x="-340" y="1570" />
              <mxPoint x="-540" y="1570" />
              <mxPoint x="-540" y="1800" />
              <mxPoint x="640" y="1800" />
            </Array>
          </mxGeometry>
        </mxCell>
        <mxCell id="w-6r28DezkTKs4tXM-bR-528" value="119" style="rounded=0;whiteSpace=wrap;html=1;fontStyle=1" vertex="1" parent="1">
          <mxGeometry x="-369" y="1438" width="40" height="40" as="geometry" />
        </mxCell>
        <mxCell id="w-6r28DezkTKs4tXM-bR-545" style="edgeStyle=orthogonalEdgeStyle;rounded=0;orthogonalLoop=1;jettySize=auto;html=1;exitX=0;exitY=0.5;exitDx=0;exitDy=0;entryX=1;entryY=0.5;entryDx=0;entryDy=0;fontStyle=1" edge="1" parent="1" source="w-6r28DezkTKs4tXM-bR-529" target="w-6r28DezkTKs4tXM-bR-544">
          <mxGeometry relative="1" as="geometry" />
        </mxCell>
        <mxCell id="w-6r28DezkTKs4tXM-bR-529" value="120" style="rounded=0;whiteSpace=wrap;html=1;fontStyle=1" vertex="1" parent="1">
          <mxGeometry x="-369" y="1598" width="40" height="40" as="geometry" />
        </mxCell>
        <mxCell id="w-6r28DezkTKs4tXM-bR-564" style="edgeStyle=orthogonalEdgeStyle;rounded=0;orthogonalLoop=1;jettySize=auto;html=1;exitX=0;exitY=0.5;exitDx=0;exitDy=0;entryX=1;entryY=0.5;entryDx=0;entryDy=0;fontStyle=1" edge="1" parent="1" source="w-6r28DezkTKs4tXM-bR-534" target="w-6r28DezkTKs4tXM-bR-563">
          <mxGeometry relative="1" as="geometry" />
        </mxCell>
        <mxCell id="w-6r28DezkTKs4tXM-bR-534" value="126" style="rounded=0;whiteSpace=wrap;html=1;fontStyle=1" vertex="1" parent="1">
          <mxGeometry x="-470" y="1199" width="40" height="40" as="geometry" />
        </mxCell>
        <mxCell id="w-6r28DezkTKs4tXM-bR-559" style="edgeStyle=orthogonalEdgeStyle;rounded=0;orthogonalLoop=1;jettySize=auto;html=1;exitX=0;exitY=0.5;exitDx=0;exitDy=0;entryX=1;entryY=0.5;entryDx=0;entryDy=0;fontStyle=1" edge="1" parent="1" source="w-6r28DezkTKs4tXM-bR-535" target="w-6r28DezkTKs4tXM-bR-558">
          <mxGeometry relative="1" as="geometry" />
        </mxCell>
        <mxCell id="w-6r28DezkTKs4tXM-bR-649" style="edgeStyle=orthogonalEdgeStyle;rounded=0;orthogonalLoop=1;jettySize=auto;html=1;exitX=0;exitY=0.5;exitDx=0;exitDy=0;fontStyle=1" edge="1" parent="1" source="w-6r28DezkTKs4tXM-bR-535">
          <mxGeometry relative="1" as="geometry">
            <mxPoint x="-520" y="660" as="targetPoint" />
            <Array as="points">
              <mxPoint x="-520" y="1298" />
              <mxPoint x="-520" y="670" />
            </Array>
          </mxGeometry>
        </mxCell>
        <mxCell id="w-6r28DezkTKs4tXM-bR-535" value="127" style="rounded=0;whiteSpace=wrap;html=1;fontStyle=1" vertex="1" parent="1">
          <mxGeometry x="-470" y="1278" width="40" height="40" as="geometry" />
        </mxCell>
        <mxCell id="w-6r28DezkTKs4tXM-bR-538" value="128" style="rounded=0;whiteSpace=wrap;html=1;fontStyle=1" vertex="1" parent="1">
          <mxGeometry x="-470" y="1358" width="40" height="40" as="geometry" />
        </mxCell>
        <mxCell id="w-6r28DezkTKs4tXM-bR-555" style="edgeStyle=orthogonalEdgeStyle;rounded=0;orthogonalLoop=1;jettySize=auto;html=1;exitX=0;exitY=0.5;exitDx=0;exitDy=0;entryX=1;entryY=0.5;entryDx=0;entryDy=0;fontStyle=1" edge="1" parent="1" source="w-6r28DezkTKs4tXM-bR-539" target="w-6r28DezkTKs4tXM-bR-554">
          <mxGeometry relative="1" as="geometry" />
        </mxCell>
        <mxCell id="w-6r28DezkTKs4tXM-bR-650" style="edgeStyle=orthogonalEdgeStyle;rounded=0;orthogonalLoop=1;jettySize=auto;html=1;exitX=0;exitY=0.5;exitDx=0;exitDy=0;fontStyle=1" edge="1" parent="1" source="w-6r28DezkTKs4tXM-bR-539">
          <mxGeometry relative="1" as="geometry">
            <mxPoint x="-520" y="1260" as="targetPoint" />
            <Array as="points">
              <mxPoint x="-490" y="1440" />
              <mxPoint x="-490" y="1260" />
            </Array>
          </mxGeometry>
        </mxCell>
        <mxCell id="w-6r28DezkTKs4tXM-bR-539" value="129" style="rounded=0;whiteSpace=wrap;html=1;fontStyle=1" vertex="1" parent="1">
          <mxGeometry x="-470" y="1420" width="40" height="40" as="geometry" />
        </mxCell>
        <mxCell id="w-6r28DezkTKs4tXM-bR-547" style="edgeStyle=orthogonalEdgeStyle;rounded=0;orthogonalLoop=1;jettySize=auto;html=1;exitX=0;exitY=0.5;exitDx=0;exitDy=0;entryX=1;entryY=0.5;entryDx=0;entryDy=0;fontStyle=1" edge="1" parent="1" source="w-6r28DezkTKs4tXM-bR-542" target="w-6r28DezkTKs4tXM-bR-546">
          <mxGeometry relative="1" as="geometry" />
        </mxCell>
        <mxCell id="w-6r28DezkTKs4tXM-bR-542" value="130" style="rounded=0;whiteSpace=wrap;html=1;fontStyle=1" vertex="1" parent="1">
          <mxGeometry x="-470" y="1518" width="40" height="40" as="geometry" />
        </mxCell>
        <mxCell id="w-6r28DezkTKs4tXM-bR-544" value="131" style="rounded=0;whiteSpace=wrap;html=1;fontStyle=1" vertex="1" parent="1">
          <mxGeometry x="-466" y="1598" width="40" height="40" as="geometry" />
        </mxCell>
        <mxCell id="w-6r28DezkTKs4tXM-bR-646" style="edgeStyle=orthogonalEdgeStyle;rounded=0;orthogonalLoop=1;jettySize=auto;html=1;exitX=0;exitY=0.5;exitDx=0;exitDy=0;fontStyle=1" edge="1" parent="1" source="w-6r28DezkTKs4tXM-bR-546">
          <mxGeometry relative="1" as="geometry">
            <mxPoint x="880" y="980" as="targetPoint" />
            <Array as="points">
              <mxPoint x="-579" y="1538" />
              <mxPoint x="-579" y="1840" />
              <mxPoint x="1320" y="1840" />
              <mxPoint x="1320" y="1000" />
              <mxPoint x="910" y="1000" />
              <mxPoint x="910" y="980" />
            </Array>
          </mxGeometry>
        </mxCell>
        <mxCell id="w-6r28DezkTKs4tXM-bR-656" style="edgeStyle=orthogonalEdgeStyle;rounded=0;orthogonalLoop=1;jettySize=auto;html=1;exitX=0;exitY=0.5;exitDx=0;exitDy=0;entryX=1;entryY=0.5;entryDx=0;entryDy=0;fontStyle=1" edge="1" parent="1" source="w-6r28DezkTKs4tXM-bR-546" target="w-6r28DezkTKs4tXM-bR-548">
          <mxGeometry relative="1" as="geometry" />
        </mxCell>
        <mxCell id="w-6r28DezkTKs4tXM-bR-546" value="137" style="rounded=0;whiteSpace=wrap;html=1;fontStyle=1" vertex="1" parent="1">
          <mxGeometry x="-599" y="1518" width="40" height="40" as="geometry" />
        </mxCell>
        <mxCell id="w-6r28DezkTKs4tXM-bR-551" style="edgeStyle=orthogonalEdgeStyle;rounded=0;orthogonalLoop=1;jettySize=auto;html=1;exitX=0;exitY=0.5;exitDx=0;exitDy=0;fontStyle=1" edge="1" parent="1" source="w-6r28DezkTKs4tXM-bR-548" target="w-6r28DezkTKs4tXM-bR-550">
          <mxGeometry relative="1" as="geometry" />
        </mxCell>
        <mxCell id="w-6r28DezkTKs4tXM-bR-548" value="143" style="rounded=0;whiteSpace=wrap;html=1;fontStyle=1" vertex="1" parent="1">
          <mxGeometry x="-690" y="1518" width="40" height="40" as="geometry" />
        </mxCell>
        <mxCell id="w-6r28DezkTKs4tXM-bR-553" style="edgeStyle=orthogonalEdgeStyle;rounded=0;orthogonalLoop=1;jettySize=auto;html=1;exitX=0;exitY=0.5;exitDx=0;exitDy=0;fontStyle=1" edge="1" parent="1" source="w-6r28DezkTKs4tXM-bR-550" target="w-6r28DezkTKs4tXM-bR-552">
          <mxGeometry relative="1" as="geometry" />
        </mxCell>
        <mxCell id="w-6r28DezkTKs4tXM-bR-657" style="edgeStyle=orthogonalEdgeStyle;rounded=0;orthogonalLoop=1;jettySize=auto;html=1;exitX=0.5;exitY=0;exitDx=0;exitDy=0;fontStyle=1" edge="1" parent="1" source="w-6r28DezkTKs4tXM-bR-550">
          <mxGeometry relative="1" as="geometry">
            <mxPoint x="-799" y="1478" as="targetPoint" />
            <Array as="points">
              <mxPoint x="-799" y="1478" />
            </Array>
          </mxGeometry>
        </mxCell>
        <mxCell id="w-6r28DezkTKs4tXM-bR-550" value="145" style="rounded=0;whiteSpace=wrap;html=1;fontStyle=1" vertex="1" parent="1">
          <mxGeometry x="-819" y="1518" width="40" height="40" as="geometry" />
        </mxCell>
        <mxCell id="w-6r28DezkTKs4tXM-bR-552" value="147" style="rounded=0;whiteSpace=wrap;html=1;fontStyle=1" vertex="1" parent="1">
          <mxGeometry x="-910" y="1518" width="40" height="40" as="geometry" />
        </mxCell>
        <mxCell id="w-6r28DezkTKs4tXM-bR-557" style="edgeStyle=orthogonalEdgeStyle;rounded=0;orthogonalLoop=1;jettySize=auto;html=1;exitX=0;exitY=0.5;exitDx=0;exitDy=0;fontStyle=1" edge="1" parent="1" source="w-6r28DezkTKs4tXM-bR-554" target="w-6r28DezkTKs4tXM-bR-556">
          <mxGeometry relative="1" as="geometry" />
        </mxCell>
        <mxCell id="w-6r28DezkTKs4tXM-bR-554" value="136" style="rounded=0;whiteSpace=wrap;html=1;fontStyle=1" vertex="1" parent="1">
          <mxGeometry x="-599" y="1420" width="40" height="40" as="geometry" />
        </mxCell>
        <mxCell id="w-6r28DezkTKs4tXM-bR-556" value="142" style="rounded=0;whiteSpace=wrap;html=1;fontStyle=1" vertex="1" parent="1">
          <mxGeometry x="-690" y="1420" width="40" height="40" as="geometry" />
        </mxCell>
        <mxCell id="w-6r28DezkTKs4tXM-bR-562" style="edgeStyle=orthogonalEdgeStyle;rounded=0;orthogonalLoop=1;jettySize=auto;html=1;exitX=0;exitY=0.5;exitDx=0;exitDy=0;entryX=1;entryY=0.5;entryDx=0;entryDy=0;fontStyle=1" edge="1" parent="1" source="w-6r28DezkTKs4tXM-bR-558" target="w-6r28DezkTKs4tXM-bR-560">
          <mxGeometry relative="1" as="geometry" />
        </mxCell>
        <mxCell id="w-6r28DezkTKs4tXM-bR-558" value="135" style="rounded=0;whiteSpace=wrap;html=1;fontStyle=1" vertex="1" parent="1">
          <mxGeometry x="-600" y="1278" width="40" height="40" as="geometry" />
        </mxCell>
        <mxCell id="w-6r28DezkTKs4tXM-bR-560" value="141" style="rounded=0;whiteSpace=wrap;html=1;fontStyle=1" vertex="1" parent="1">
          <mxGeometry x="-690" y="1278" width="40" height="40" as="geometry" />
        </mxCell>
        <mxCell id="w-6r28DezkTKs4tXM-bR-566" style="edgeStyle=orthogonalEdgeStyle;rounded=0;orthogonalLoop=1;jettySize=auto;html=1;exitX=0;exitY=0.5;exitDx=0;exitDy=0;entryX=1;entryY=0.5;entryDx=0;entryDy=0;fontStyle=1" edge="1" parent="1" source="w-6r28DezkTKs4tXM-bR-563" target="w-6r28DezkTKs4tXM-bR-565">
          <mxGeometry relative="1" as="geometry" />
        </mxCell>
        <mxCell id="w-6r28DezkTKs4tXM-bR-563" value="134" style="rounded=0;whiteSpace=wrap;html=1;fontStyle=1" vertex="1" parent="1">
          <mxGeometry x="-600" y="1199" width="40" height="40" as="geometry" />
        </mxCell>
        <mxCell id="w-6r28DezkTKs4tXM-bR-568" style="edgeStyle=orthogonalEdgeStyle;rounded=0;orthogonalLoop=1;jettySize=auto;html=1;exitX=0;exitY=0.5;exitDx=0;exitDy=0;entryX=1;entryY=0.5;entryDx=0;entryDy=0;fontStyle=1" edge="1" parent="1" source="w-6r28DezkTKs4tXM-bR-565" target="w-6r28DezkTKs4tXM-bR-567">
          <mxGeometry relative="1" as="geometry" />
        </mxCell>
        <mxCell id="w-6r28DezkTKs4tXM-bR-642" style="edgeStyle=orthogonalEdgeStyle;rounded=0;orthogonalLoop=1;jettySize=auto;html=1;exitX=0.5;exitY=0;exitDx=0;exitDy=0;fontStyle=1" edge="1" parent="1" source="w-6r28DezkTKs4tXM-bR-565">
          <mxGeometry relative="1" as="geometry">
            <mxPoint x="-300" y="890" as="targetPoint" />
            <Array as="points">
              <mxPoint x="-680" y="1199" />
              <mxPoint x="-680" y="890" />
            </Array>
          </mxGeometry>
        </mxCell>
        <mxCell id="w-6r28DezkTKs4tXM-bR-565" value="140" style="rounded=0;whiteSpace=wrap;html=1;fontStyle=1" vertex="1" parent="1">
          <mxGeometry x="-690" y="1199" width="40" height="40" as="geometry" />
        </mxCell>
        <mxCell id="w-6r28DezkTKs4tXM-bR-570" style="edgeStyle=orthogonalEdgeStyle;rounded=0;orthogonalLoop=1;jettySize=auto;html=1;exitX=0;exitY=0.5;exitDx=0;exitDy=0;entryX=1;entryY=0.5;entryDx=0;entryDy=0;fontStyle=1" edge="1" parent="1" source="w-6r28DezkTKs4tXM-bR-567" target="w-6r28DezkTKs4tXM-bR-569">
          <mxGeometry relative="1" as="geometry" />
        </mxCell>
        <mxCell id="w-6r28DezkTKs4tXM-bR-567" value="144" style="rounded=0;whiteSpace=wrap;html=1;fontStyle=1" vertex="1" parent="1">
          <mxGeometry x="-827" y="1199" width="40" height="40" as="geometry" />
        </mxCell>
        <mxCell id="w-6r28DezkTKs4tXM-bR-575" style="edgeStyle=orthogonalEdgeStyle;rounded=0;orthogonalLoop=1;jettySize=auto;html=1;exitX=0;exitY=0.5;exitDx=0;exitDy=0;entryX=1;entryY=0.5;entryDx=0;entryDy=0;fontStyle=1" edge="1" parent="1" source="w-6r28DezkTKs4tXM-bR-569" target="w-6r28DezkTKs4tXM-bR-571">
          <mxGeometry relative="1" as="geometry" />
        </mxCell>
        <mxCell id="w-6r28DezkTKs4tXM-bR-576" style="edgeStyle=orthogonalEdgeStyle;rounded=0;orthogonalLoop=1;jettySize=auto;html=1;exitX=0;exitY=0.5;exitDx=0;exitDy=0;entryX=1;entryY=0.75;entryDx=0;entryDy=0;fontStyle=1" edge="1" parent="1" source="w-6r28DezkTKs4tXM-bR-569" target="w-6r28DezkTKs4tXM-bR-572">
          <mxGeometry relative="1" as="geometry">
            <Array as="points">
              <mxPoint x="-930" y="1219" />
              <mxPoint x="-930" y="1308" />
            </Array>
          </mxGeometry>
        </mxCell>
        <mxCell id="w-6r28DezkTKs4tXM-bR-569" value="146" style="rounded=0;whiteSpace=wrap;html=1;fontStyle=1" vertex="1" parent="1">
          <mxGeometry x="-910" y="1199" width="40" height="40" as="geometry" />
        </mxCell>
        <mxCell id="w-6r28DezkTKs4tXM-bR-578" style="edgeStyle=orthogonalEdgeStyle;rounded=0;orthogonalLoop=1;jettySize=auto;html=1;exitX=0;exitY=0.5;exitDx=0;exitDy=0;entryX=1;entryY=0.5;entryDx=0;entryDy=0;fontStyle=1" edge="1" parent="1" source="w-6r28DezkTKs4tXM-bR-571" target="w-6r28DezkTKs4tXM-bR-577">
          <mxGeometry relative="1" as="geometry" />
        </mxCell>
        <mxCell id="w-6r28DezkTKs4tXM-bR-571" value="148" style="rounded=0;whiteSpace=wrap;html=1;fontStyle=1" vertex="1" parent="1">
          <mxGeometry x="-1020" y="1199" width="40" height="40" as="geometry" />
        </mxCell>
        <mxCell id="w-6r28DezkTKs4tXM-bR-581" style="edgeStyle=orthogonalEdgeStyle;rounded=0;orthogonalLoop=1;jettySize=auto;html=1;exitX=0;exitY=0.5;exitDx=0;exitDy=0;entryX=1;entryY=0.5;entryDx=0;entryDy=0;fontStyle=1" edge="1" parent="1" source="w-6r28DezkTKs4tXM-bR-572" target="w-6r28DezkTKs4tXM-bR-580">
          <mxGeometry relative="1" as="geometry" />
        </mxCell>
        <mxCell id="w-6r28DezkTKs4tXM-bR-651" style="edgeStyle=orthogonalEdgeStyle;rounded=0;orthogonalLoop=1;jettySize=auto;html=1;exitX=0;exitY=0.5;exitDx=0;exitDy=0;fontStyle=1" edge="1" parent="1" source="w-6r28DezkTKs4tXM-bR-572">
          <mxGeometry relative="1" as="geometry">
            <mxPoint x="-500" y="660" as="targetPoint" />
            <Array as="points">
              <mxPoint x="-1060" y="1298" />
              <mxPoint x="-1060" y="660" />
            </Array>
          </mxGeometry>
        </mxCell>
        <mxCell id="w-6r28DezkTKs4tXM-bR-572" value="149" style="rounded=0;whiteSpace=wrap;html=1;fontStyle=1" vertex="1" parent="1">
          <mxGeometry x="-1020" y="1278" width="40" height="40" as="geometry" />
        </mxCell>
        <mxCell id="w-6r28DezkTKs4tXM-bR-582" style="edgeStyle=orthogonalEdgeStyle;rounded=0;orthogonalLoop=1;jettySize=auto;html=1;exitX=0;exitY=0.5;exitDx=0;exitDy=0;entryX=1;entryY=0.5;entryDx=0;entryDy=0;fontStyle=1" edge="1" parent="1" source="w-6r28DezkTKs4tXM-bR-577" target="w-6r28DezkTKs4tXM-bR-579">
          <mxGeometry relative="1" as="geometry" />
        </mxCell>
        <mxCell id="w-6r28DezkTKs4tXM-bR-643" style="edgeStyle=orthogonalEdgeStyle;rounded=0;orthogonalLoop=1;jettySize=auto;html=1;exitX=0.5;exitY=1;exitDx=0;exitDy=0;entryX=0.5;entryY=1;entryDx=0;entryDy=0;fontStyle=1" edge="1" parent="1" source="w-6r28DezkTKs4tXM-bR-577" target="w-6r28DezkTKs4tXM-bR-539">
          <mxGeometry relative="1" as="geometry">
            <Array as="points">
              <mxPoint x="-1170" y="1239" />
              <mxPoint x="-1170" y="1260" />
              <mxPoint x="-1320" y="1260" />
              <mxPoint x="-1320" y="1480" />
              <mxPoint x="-450" y="1480" />
            </Array>
          </mxGeometry>
        </mxCell>
        <mxCell id="w-6r28DezkTKs4tXM-bR-577" value="150" style="rounded=0;whiteSpace=wrap;html=1;fontStyle=1" vertex="1" parent="1">
          <mxGeometry x="-1180" y="1199" width="40" height="40" as="geometry" />
        </mxCell>
        <mxCell id="w-6r28DezkTKs4tXM-bR-579" value="152" style="rounded=0;whiteSpace=wrap;html=1;fontStyle=1" vertex="1" parent="1">
          <mxGeometry x="-1270" y="1199" width="40" height="40" as="geometry" />
        </mxCell>
        <mxCell id="w-6r28DezkTKs4tXM-bR-584" style="edgeStyle=orthogonalEdgeStyle;rounded=0;orthogonalLoop=1;jettySize=auto;html=1;exitX=0;exitY=0.5;exitDx=0;exitDy=0;entryX=1;entryY=0.5;entryDx=0;entryDy=0;fontStyle=1" edge="1" parent="1" source="w-6r28DezkTKs4tXM-bR-580" target="w-6r28DezkTKs4tXM-bR-583">
          <mxGeometry relative="1" as="geometry" />
        </mxCell>
        <mxCell id="w-6r28DezkTKs4tXM-bR-580" value="151" style="rounded=0;whiteSpace=wrap;html=1;fontStyle=1" vertex="1" parent="1">
          <mxGeometry x="-1180" y="1278" width="40" height="40" as="geometry" />
        </mxCell>
        <mxCell id="w-6r28DezkTKs4tXM-bR-583" value="153" style="rounded=0;whiteSpace=wrap;html=1;fontStyle=1" vertex="1" parent="1">
          <mxGeometry x="-1270" y="1278" width="40" height="40" as="geometry" />
        </mxCell>
        <mxCell id="w-6r28DezkTKs4tXM-bR-587" value="(" style="text;html=1;strokeColor=none;fillColor=none;align=center;verticalAlign=middle;whiteSpace=wrap;rounded=0;fontStyle=1" vertex="1" parent="1">
          <mxGeometry x="390" y="560" width="60" height="30" as="geometry" />
        </mxCell>
        <mxCell id="w-6r28DezkTKs4tXM-bR-588" value="(" style="text;html=1;strokeColor=none;fillColor=none;align=center;verticalAlign=middle;whiteSpace=wrap;rounded=0;fontStyle=1" vertex="1" parent="1">
          <mxGeometry x="460" y="560" width="60" height="30" as="geometry" />
        </mxCell>
        <mxCell id="w-6r28DezkTKs4tXM-bR-589" value="&lt;span&gt;identifier&lt;/span&gt;" style="text;html=1;strokeColor=none;fillColor=none;align=center;verticalAlign=middle;whiteSpace=wrap;rounded=0;fontStyle=1" vertex="1" parent="1">
          <mxGeometry x="324" y="730" width="60" height="30" as="geometry" />
        </mxCell>
        <mxCell id="w-6r28DezkTKs4tXM-bR-590" value="&lt;span&gt;relational_expr&lt;/span&gt;" style="text;html=1;strokeColor=none;fillColor=none;align=center;verticalAlign=middle;whiteSpace=wrap;rounded=0;fontStyle=1" vertex="1" parent="1">
          <mxGeometry x="297" y="634" width="60" height="30" as="geometry" />
        </mxCell>
        <mxCell id="w-6r28DezkTKs4tXM-bR-593" value="&lt;span&gt;relational_expr&lt;/span&gt;" style="text;html=1;strokeColor=none;fillColor=none;align=center;verticalAlign=middle;whiteSpace=wrap;rounded=0;fontStyle=1" vertex="1" parent="1">
          <mxGeometry x="460" y="690" width="60" height="30" as="geometry" />
        </mxCell>
        <mxCell id="w-6r28DezkTKs4tXM-bR-594" value=")" style="text;html=1;strokeColor=none;fillColor=none;align=center;verticalAlign=middle;whiteSpace=wrap;rounded=0;fontStyle=1" vertex="1" parent="1">
          <mxGeometry x="142" y="636" width="60" height="30" as="geometry" />
        </mxCell>
        <mxCell id="w-6r28DezkTKs4tXM-bR-596" value="&lt;span&gt;relational_operator&lt;/span&gt;" style="text;html=1;strokeColor=none;fillColor=none;align=center;verticalAlign=middle;whiteSpace=wrap;rounded=0;fontStyle=1" vertex="1" parent="1">
          <mxGeometry x="275" y="740" width="60" height="30" as="geometry" />
        </mxCell>
        <mxCell id="w-6r28DezkTKs4tXM-bR-597" value=")" style="text;html=1;strokeColor=none;fillColor=none;align=center;verticalAlign=middle;whiteSpace=wrap;rounded=0;fontStyle=1" vertex="1" parent="1">
          <mxGeometry x="460" y="765" width="60" height="30" as="geometry" />
        </mxCell>
        <mxCell id="w-6r28DezkTKs4tXM-bR-598" value="&lt;span&gt;begin&lt;/span&gt;" style="text;html=1;strokeColor=none;fillColor=none;align=center;verticalAlign=middle;whiteSpace=wrap;rounded=0;fontStyle=1" vertex="1" parent="1">
          <mxGeometry x="70" y="660" width="60" height="30" as="geometry" />
        </mxCell>
        <mxCell id="w-6r28DezkTKs4tXM-bR-599" value="&lt;span&gt;block&lt;/span&gt;" style="text;html=1;strokeColor=none;fillColor=none;align=center;verticalAlign=middle;whiteSpace=wrap;rounded=0;fontStyle=1" vertex="1" parent="1">
          <mxGeometry x="70" y="555" width="60" height="30" as="geometry" />
        </mxCell>
        <mxCell id="w-6r28DezkTKs4tXM-bR-600" value="expr" style="text;html=1;strokeColor=none;fillColor=none;align=center;verticalAlign=middle;whiteSpace=wrap;rounded=0;fontStyle=1" vertex="1" parent="1">
          <mxGeometry x="64" y="845" width="60" height="30" as="geometry" />
        </mxCell>
        <mxCell id="w-6r28DezkTKs4tXM-bR-601" value="add_expr" style="text;html=1;strokeColor=none;fillColor=none;align=center;verticalAlign=middle;whiteSpace=wrap;rounded=0;fontStyle=1" vertex="1" parent="1">
          <mxGeometry x="52" y="895" width="60" height="30" as="geometry" />
        </mxCell>
        <mxCell id="w-6r28DezkTKs4tXM-bR-602" value="mul_expr" style="text;html=1;strokeColor=none;fillColor=none;align=center;verticalAlign=middle;whiteSpace=wrap;rounded=0;fontStyle=1" vertex="1" parent="1">
          <mxGeometry x="51" y="945" width="60" height="30" as="geometry" />
        </mxCell>
        <mxCell id="w-6r28DezkTKs4tXM-bR-603" value="&lt;span&gt;begin&lt;/span&gt;" style="text;html=1;strokeColor=none;fillColor=none;align=center;verticalAlign=middle;whiteSpace=wrap;rounded=0;fontStyle=1" vertex="1" parent="1">
          <mxGeometry x="470" y="860" width="60" height="30" as="geometry" />
        </mxCell>
        <mxCell id="w-6r28DezkTKs4tXM-bR-604" value="&lt;span&gt;block&lt;/span&gt;" style="text;html=1;strokeColor=none;fillColor=none;align=center;verticalAlign=middle;whiteSpace=wrap;rounded=0;fontStyle=1" vertex="1" parent="1">
          <mxGeometry x="431" y="836" width="60" height="30" as="geometry" />
        </mxCell>
        <mxCell id="w-6r28DezkTKs4tXM-bR-605" value="elseif" style="text;html=1;strokeColor=none;fillColor=none;align=center;verticalAlign=middle;whiteSpace=wrap;rounded=0;fontStyle=1" vertex="1" parent="1">
          <mxGeometry x="-20" y="550" width="40" height="40" as="geometry" />
        </mxCell>
        <mxCell id="w-6r28DezkTKs4tXM-bR-606" value="if" style="text;html=1;strokeColor=none;fillColor=none;align=center;verticalAlign=middle;whiteSpace=wrap;rounded=0;fontStyle=1" vertex="1" parent="1">
          <mxGeometry x="-30" y="1270" width="40" height="40" as="geometry" />
        </mxCell>
        <mxCell id="w-6r28DezkTKs4tXM-bR-607" value="while" style="text;html=1;strokeColor=none;fillColor=none;align=center;verticalAlign=middle;whiteSpace=wrap;rounded=0;fontStyle=1" vertex="1" parent="1">
          <mxGeometry x="-40" y="1346" width="40" height="40" as="geometry" />
        </mxCell>
        <mxCell id="w-6r28DezkTKs4tXM-bR-609" value="for" style="text;html=1;strokeColor=none;fillColor=none;align=center;verticalAlign=middle;whiteSpace=wrap;rounded=0;fontStyle=1" vertex="1" parent="1">
          <mxGeometry x="-40" y="1429" width="40" height="40" as="geometry" />
        </mxCell>
        <mxCell id="w-6r28DezkTKs4tXM-bR-610" value="display" style="text;html=1;strokeColor=none;fillColor=none;align=center;verticalAlign=middle;whiteSpace=wrap;rounded=0;fontStyle=1" vertex="1" parent="1">
          <mxGeometry x="-40" y="1590" width="40" height="40" as="geometry" />
        </mxCell>
        <mxCell id="w-6r28DezkTKs4tXM-bR-611" value="break" style="text;html=1;strokeColor=none;fillColor=none;align=center;verticalAlign=middle;whiteSpace=wrap;rounded=0;fontStyle=1" vertex="1" parent="1">
          <mxGeometry x="-40" y="1670" width="40" height="40" as="geometry" />
        </mxCell>
        <mxCell id="w-6r28DezkTKs4tXM-bR-613" value="statements" style="text;html=1;strokeColor=none;fillColor=none;align=center;verticalAlign=middle;whiteSpace=wrap;rounded=0;fontStyle=1" vertex="1" parent="1">
          <mxGeometry x="-34" y="624" width="60" height="30" as="geometry" />
        </mxCell>
        <mxCell id="w-6r28DezkTKs4tXM-bR-614" value="statement" style="text;html=1;strokeColor=none;fillColor=none;align=center;verticalAlign=middle;whiteSpace=wrap;rounded=0;fontStyle=1" vertex="1" parent="1">
          <mxGeometry x="-60" y="700" width="60" height="30" as="geometry" />
        </mxCell>
        <mxCell id="w-6r28DezkTKs4tXM-bR-615" value="if_stmt" style="text;html=1;strokeColor=none;fillColor=none;align=center;verticalAlign=middle;whiteSpace=wrap;rounded=0;fontStyle=1" vertex="1" parent="1">
          <mxGeometry x="-50" y="780" width="60" height="30" as="geometry" />
        </mxCell>
        <mxCell id="w-6r28DezkTKs4tXM-bR-616" value="while_stmt" style="text;html=1;strokeColor=none;fillColor=none;align=center;verticalAlign=middle;whiteSpace=wrap;rounded=0;fontStyle=1" vertex="1" parent="1">
          <mxGeometry x="-60" y="860" width="60" height="30" as="geometry" />
        </mxCell>
        <mxCell id="w-6r28DezkTKs4tXM-bR-617" value="for_stmt" style="text;html=1;strokeColor=none;fillColor=none;align=center;verticalAlign=middle;whiteSpace=wrap;rounded=0;fontStyle=1" vertex="1" parent="1">
          <mxGeometry x="-56" y="939" width="60" height="30" as="geometry" />
        </mxCell>
        <mxCell id="w-6r28DezkTKs4tXM-bR-618" value="assign_stmt" style="text;html=1;strokeColor=none;fillColor=none;align=center;verticalAlign=middle;whiteSpace=wrap;rounded=0;fontStyle=1" vertex="1" parent="1">
          <mxGeometry x="-67" y="1019" width="60" height="30" as="geometry" />
        </mxCell>
        <mxCell id="w-6r28DezkTKs4tXM-bR-619" value="fcall_stmt" style="text;html=1;strokeColor=none;fillColor=none;align=center;verticalAlign=middle;whiteSpace=wrap;rounded=0;fontStyle=1" vertex="1" parent="1">
          <mxGeometry x="-60" y="1097" width="60" height="30" as="geometry" />
        </mxCell>
        <mxCell id="w-6r28DezkTKs4tXM-bR-620" value="break_stmt" style="text;html=1;strokeColor=none;fillColor=none;align=center;verticalAlign=middle;whiteSpace=wrap;rounded=0;fontStyle=1" vertex="1" parent="1">
          <mxGeometry x="-65" y="1177" width="60" height="30" as="geometry" />
        </mxCell>
        <mxCell id="w-6r28DezkTKs4tXM-bR-621" value="id_init" style="text;html=1;strokeColor=none;fillColor=none;align=center;verticalAlign=middle;whiteSpace=wrap;rounded=0;fontStyle=1" vertex="1" parent="1">
          <mxGeometry x="-50" y="1513" width="60" height="30" as="geometry" />
        </mxCell>
        <mxCell id="w-6r28DezkTKs4tXM-bR-622" value="+" style="text;html=1;strokeColor=none;fillColor=none;align=center;verticalAlign=middle;whiteSpace=wrap;rounded=0;fontStyle=1" vertex="1" parent="1">
          <mxGeometry x="249" y="841" width="60" height="30" as="geometry" />
        </mxCell>
        <mxCell id="w-6r28DezkTKs4tXM-bR-624" value="statements" style="text;html=1;strokeColor=none;fillColor=none;align=center;verticalAlign=middle;whiteSpace=wrap;rounded=0;fontStyle=1" vertex="1" parent="1">
          <mxGeometry x="414" y="939" width="60" height="30" as="geometry" />
        </mxCell>
        <mxCell id="w-6r28DezkTKs4tXM-bR-628" value="end" style="text;html=1;strokeColor=none;fillColor=none;align=center;verticalAlign=middle;whiteSpace=wrap;rounded=0;fontStyle=1" vertex="1" parent="1">
          <mxGeometry x="414" y="1000" width="40" height="40" as="geometry" />
        </mxCell>
        <mxCell id="w-6r28DezkTKs4tXM-bR-662" value="(" style="text;html=1;strokeColor=none;fillColor=none;align=center;verticalAlign=middle;whiteSpace=wrap;rounded=0;fontStyle=1" vertex="1" parent="1">
          <mxGeometry x="-127" y="555" width="60" height="30" as="geometry" />
        </mxCell>
        <mxCell id="w-6r28DezkTKs4tXM-bR-663" value="end" style="text;html=1;strokeColor=none;fillColor=none;align=center;verticalAlign=middle;whiteSpace=wrap;rounded=0;fontStyle=1" vertex="1" parent="1">
          <mxGeometry x="-117" y="619" width="40" height="40" as="geometry" />
        </mxCell>
        <mxCell id="w-6r28DezkTKs4tXM-bR-664" value="statements" style="text;html=1;strokeColor=none;fillColor=none;align=center;verticalAlign=middle;whiteSpace=wrap;rounded=0;fontStyle=1" vertex="1" parent="1">
          <mxGeometry x="-145" y="735" width="60" height="30" as="geometry" />
        </mxCell>
        <mxCell id="w-6r28DezkTKs4tXM-bR-665" value="(" style="text;html=1;strokeColor=none;fillColor=none;align=center;verticalAlign=middle;whiteSpace=wrap;rounded=0;fontStyle=1" vertex="1" parent="1">
          <mxGeometry x="-127" y="1270" width="60" height="30" as="geometry" />
        </mxCell>
        <mxCell id="w-6r28DezkTKs4tXM-bR-666" value="(" style="text;html=1;strokeColor=none;fillColor=none;align=center;verticalAlign=middle;whiteSpace=wrap;rounded=0;fontStyle=1" vertex="1" parent="1">
          <mxGeometry x="-127" y="1351" width="60" height="30" as="geometry" />
        </mxCell>
        <mxCell id="w-6r28DezkTKs4tXM-bR-667" value="(" style="text;html=1;strokeColor=none;fillColor=none;align=center;verticalAlign=middle;whiteSpace=wrap;rounded=0;fontStyle=1" vertex="1" parent="1">
          <mxGeometry x="-127" y="1425" width="60" height="30" as="geometry" />
        </mxCell>
        <mxCell id="w-6r28DezkTKs4tXM-bR-668" value="(" style="text;html=1;strokeColor=none;fillColor=none;align=center;verticalAlign=middle;whiteSpace=wrap;rounded=0;fontStyle=1" vertex="1" parent="1">
          <mxGeometry x="-120" y="1593" width="60" height="30" as="geometry" />
        </mxCell>
        <mxCell id="w-6r28DezkTKs4tXM-bR-669" value=";" style="text;html=1;strokeColor=none;fillColor=none;align=center;verticalAlign=middle;whiteSpace=wrap;rounded=0;fontStyle=1" vertex="1" parent="1">
          <mxGeometry x="-127" y="1513" width="60" height="30" as="geometry" />
        </mxCell>
        <mxCell id="w-6r28DezkTKs4tXM-bR-670" value=";" style="text;html=1;strokeColor=none;fillColor=none;align=center;verticalAlign=middle;whiteSpace=wrap;rounded=0;fontStyle=1" vertex="1" parent="1">
          <mxGeometry x="-120" y="1670" width="60" height="30" as="geometry" />
        </mxCell>
        <mxCell id="w-6r28DezkTKs4tXM-bR-673" value="&lt;span&gt;relational_expr&lt;/span&gt;" style="text;html=1;strokeColor=none;fillColor=none;align=center;verticalAlign=middle;whiteSpace=wrap;rounded=0;fontStyle=1" vertex="1" parent="1">
          <mxGeometry x="-244" y="1294" width="60" height="30" as="geometry" />
        </mxCell>
        <mxCell id="w-6r28DezkTKs4tXM-bR-674" value="&lt;span&gt;relational_expr&lt;/span&gt;" style="text;html=1;strokeColor=none;fillColor=none;align=center;verticalAlign=middle;whiteSpace=wrap;rounded=0;fontStyle=1" vertex="1" parent="1">
          <mxGeometry x="-244" y="1375" width="60" height="30" as="geometry" />
        </mxCell>
        <mxCell id="w-6r28DezkTKs4tXM-bR-675" value="&lt;span&gt;relational_expr&lt;/span&gt;" style="text;html=1;strokeColor=none;fillColor=none;align=center;verticalAlign=middle;whiteSpace=wrap;rounded=0;fontStyle=1" vertex="1" parent="1">
          <mxGeometry x="-230" y="550" width="60" height="30" as="geometry" />
        </mxCell>
        <mxCell id="w-6r28DezkTKs4tXM-bR-676" value="id_init" style="text;html=1;strokeColor=none;fillColor=none;align=center;verticalAlign=middle;whiteSpace=wrap;rounded=0;fontStyle=1" vertex="1" parent="1">
          <mxGeometry x="-255" y="1434" width="60" height="30" as="geometry" />
        </mxCell>
        <mxCell id="w-6r28DezkTKs4tXM-bR-677" value="literal" style="text;html=1;strokeColor=none;fillColor=none;align=center;verticalAlign=middle;whiteSpace=wrap;rounded=0;fontStyle=1" vertex="1" parent="1">
          <mxGeometry x="-255" y="1595" width="60" height="30" as="geometry" />
        </mxCell>
        <mxCell id="w-6r28DezkTKs4tXM-bR-678" value=")" style="text;html=1;strokeColor=none;fillColor=none;align=center;verticalAlign=middle;whiteSpace=wrap;rounded=0;fontStyle=1" vertex="1" parent="1">
          <mxGeometry x="-354" y="555" width="60" height="30" as="geometry" />
        </mxCell>
        <mxCell id="w-6r28DezkTKs4tXM-bR-680" value=")" style="text;html=1;strokeColor=none;fillColor=none;align=center;verticalAlign=middle;whiteSpace=wrap;rounded=0;fontStyle=1" vertex="1" parent="1">
          <mxGeometry x="-340" y="1270" width="60" height="30" as="geometry" />
        </mxCell>
        <mxCell id="w-6r28DezkTKs4tXM-bR-681" value=")" style="text;html=1;strokeColor=none;fillColor=none;align=center;verticalAlign=middle;whiteSpace=wrap;rounded=0;fontStyle=1" vertex="1" parent="1">
          <mxGeometry x="-340" y="1351" width="60" height="30" as="geometry" />
        </mxCell>
        <mxCell id="w-6r28DezkTKs4tXM-bR-682" value=")" style="text;html=1;strokeColor=none;fillColor=none;align=center;verticalAlign=middle;whiteSpace=wrap;rounded=0;fontStyle=1" vertex="1" parent="1">
          <mxGeometry x="-346" y="1593" width="60" height="30" as="geometry" />
        </mxCell>
        <mxCell id="w-6r28DezkTKs4tXM-bR-683" value=";" style="text;html=1;strokeColor=none;fillColor=none;align=center;verticalAlign=middle;whiteSpace=wrap;rounded=0;fontStyle=1" vertex="1" parent="1">
          <mxGeometry x="-340" y="1434" width="60" height="30" as="geometry" />
        </mxCell>
        <mxCell id="w-6r28DezkTKs4tXM-bR-684" value="&lt;span&gt;begin&lt;/span&gt;" style="text;html=1;strokeColor=none;fillColor=none;align=center;verticalAlign=middle;whiteSpace=wrap;rounded=0;fontStyle=1" vertex="1" parent="1">
          <mxGeometry x="-439" y="580" width="60" height="30" as="geometry" />
        </mxCell>
        <mxCell id="w-6r28DezkTKs4tXM-bR-685" value="&lt;span&gt;begin&lt;/span&gt;" style="text;html=1;strokeColor=none;fillColor=none;align=center;verticalAlign=middle;whiteSpace=wrap;rounded=0;fontStyle=1" vertex="1" parent="1">
          <mxGeometry x="-440" y="1293" width="60" height="30" as="geometry" />
        </mxCell>
        <mxCell id="w-6r28DezkTKs4tXM-bR-686" value="&lt;span&gt;block&lt;/span&gt;" style="text;html=1;strokeColor=none;fillColor=none;align=center;verticalAlign=middle;whiteSpace=wrap;rounded=0;fontStyle=1" vertex="1" parent="1">
          <mxGeometry x="-443" y="473" width="60" height="30" as="geometry" />
        </mxCell>
        <mxCell id="w-6r28DezkTKs4tXM-bR-687" value="&lt;span&gt;block&lt;/span&gt;" style="text;html=1;strokeColor=none;fillColor=none;align=center;verticalAlign=middle;whiteSpace=wrap;rounded=0;fontStyle=1" vertex="1" parent="1">
          <mxGeometry x="-434" y="1194" width="60" height="30" as="geometry" />
        </mxCell>
        <mxCell id="w-6r28DezkTKs4tXM-bR-688" value="&lt;span&gt;begin&lt;/span&gt;" style="text;html=1;strokeColor=none;fillColor=none;align=center;verticalAlign=middle;whiteSpace=wrap;rounded=0;fontStyle=1" vertex="1" parent="1">
          <mxGeometry x="-439" y="1413" width="60" height="30" as="geometry" />
        </mxCell>
        <mxCell id="w-6r28DezkTKs4tXM-bR-689" value=";" style="text;html=1;strokeColor=none;fillColor=none;align=center;verticalAlign=middle;whiteSpace=wrap;rounded=0;fontStyle=1" vertex="1" parent="1">
          <mxGeometry x="-443" y="1593" width="60" height="30" as="geometry" />
        </mxCell>
        <mxCell id="w-6r28DezkTKs4tXM-bR-690" value="&lt;span&gt;relational_expr&lt;/span&gt;" style="text;html=1;strokeColor=none;fillColor=none;align=center;verticalAlign=middle;whiteSpace=wrap;rounded=0;fontStyle=1" vertex="1" parent="1">
          <mxGeometry x="-466" y="1494" width="60" height="30" as="geometry" />
        </mxCell>
        <mxCell id="w-6r28DezkTKs4tXM-bR-691" value="&lt;span&gt;else&lt;/span&gt;" style="text;html=1;strokeColor=none;fillColor=none;align=center;verticalAlign=middle;whiteSpace=wrap;rounded=0;fontStyle=1" vertex="1" parent="1">
          <mxGeometry x="-550" y="473" width="60" height="30" as="geometry" />
        </mxCell>
        <mxCell id="w-6r28DezkTKs4tXM-bR-692" value="statements" style="text;html=1;strokeColor=none;fillColor=none;align=center;verticalAlign=middle;whiteSpace=wrap;rounded=0;fontStyle=1" vertex="1" parent="1">
          <mxGeometry x="-540" y="554" width="60" height="30" as="geometry" />
        </mxCell>
        <mxCell id="w-6r28DezkTKs4tXM-bR-693" value="elseif" style="text;html=1;strokeColor=none;fillColor=none;align=center;verticalAlign=middle;whiteSpace=wrap;rounded=0;fontStyle=1" vertex="1" parent="1">
          <mxGeometry x="-560" y="1187" width="40" height="40" as="geometry" />
        </mxCell>
        <mxCell id="w-6r28DezkTKs4tXM-bR-694" value="statements" style="text;html=1;strokeColor=none;fillColor=none;align=center;verticalAlign=middle;whiteSpace=wrap;rounded=0;fontStyle=1" vertex="1" parent="1">
          <mxGeometry x="-550" y="1294" width="60" height="30" as="geometry" />
        </mxCell>
        <mxCell id="w-6r28DezkTKs4tXM-bR-695" value="statements" style="text;html=1;strokeColor=none;fillColor=none;align=center;verticalAlign=middle;whiteSpace=wrap;rounded=0;fontStyle=1" vertex="1" parent="1">
          <mxGeometry x="-540" y="1438" width="60" height="30" as="geometry" />
        </mxCell>
        <mxCell id="w-6r28DezkTKs4tXM-bR-696" value=";" style="text;html=1;strokeColor=none;fillColor=none;align=center;verticalAlign=middle;whiteSpace=wrap;rounded=0;fontStyle=1" vertex="1" parent="1">
          <mxGeometry x="-550" y="1513" width="60" height="30" as="geometry" />
        </mxCell>
        <mxCell id="w-6r28DezkTKs4tXM-bR-697" value="&lt;span&gt;block&lt;/span&gt;" style="text;html=1;strokeColor=none;fillColor=none;align=center;verticalAlign=middle;whiteSpace=wrap;rounded=0;fontStyle=1" vertex="1" parent="1">
          <mxGeometry x="-646" y="470" width="60" height="30" as="geometry" />
        </mxCell>
        <mxCell id="w-6r28DezkTKs4tXM-bR-698" value="end" style="text;html=1;strokeColor=none;fillColor=none;align=center;verticalAlign=middle;whiteSpace=wrap;rounded=0;fontStyle=1" vertex="1" parent="1">
          <mxGeometry x="-639" y="550" width="40" height="40" as="geometry" />
        </mxCell>
        <mxCell id="w-6r28DezkTKs4tXM-bR-699" value="end" style="text;html=1;strokeColor=none;fillColor=none;align=center;verticalAlign=middle;whiteSpace=wrap;rounded=0;fontStyle=1" vertex="1" parent="1">
          <mxGeometry x="-650" y="1413" width="40" height="40" as="geometry" />
        </mxCell>
        <mxCell id="w-6r28DezkTKs4tXM-bR-700" value="end" style="text;html=1;strokeColor=none;fillColor=none;align=center;verticalAlign=middle;whiteSpace=wrap;rounded=0;fontStyle=1" vertex="1" parent="1">
          <mxGeometry x="-650" y="1289" width="40" height="40" as="geometry" />
        </mxCell>
        <mxCell id="w-6r28DezkTKs4tXM-bR-702" value="&lt;span&gt;unary_expr&lt;/span&gt;" style="text;html=1;strokeColor=none;fillColor=none;align=center;verticalAlign=middle;whiteSpace=wrap;rounded=0;fontStyle=1" vertex="1" parent="1">
          <mxGeometry x="-660" y="1558" width="60" height="30" as="geometry" />
        </mxCell>
        <mxCell id="w-6r28DezkTKs4tXM-bR-705" value="&lt;span&gt;block&lt;/span&gt;" style="text;html=1;strokeColor=none;fillColor=none;align=center;verticalAlign=middle;whiteSpace=wrap;rounded=0;fontStyle=1" vertex="1" parent="1">
          <mxGeometry x="-870" y="1511" width="60" height="30" as="geometry" />
        </mxCell>
        <mxCell id="w-6r28DezkTKs4tXM-bR-707" value=")" style="text;html=1;strokeColor=none;fillColor=none;align=center;verticalAlign=middle;whiteSpace=wrap;rounded=0;fontStyle=1" vertex="1" parent="1">
          <mxGeometry x="-756" y="1513" width="60" height="30" as="geometry" />
        </mxCell>
        <mxCell id="w-6r28DezkTKs4tXM-bR-708" value="&lt;span&gt;begin&lt;/span&gt;" style="text;html=1;strokeColor=none;fillColor=none;align=center;verticalAlign=middle;whiteSpace=wrap;rounded=0;fontStyle=1" vertex="1" parent="1">
          <mxGeometry x="-980" y="1278" width="60" height="30" as="geometry" />
        </mxCell>
        <mxCell id="w-6r28DezkTKs4tXM-bR-709" value="statements" style="text;html=1;strokeColor=none;fillColor=none;align=center;verticalAlign=middle;whiteSpace=wrap;rounded=0;fontStyle=1" vertex="1" parent="1">
          <mxGeometry x="-1130" y="1300" width="60" height="30" as="geometry" />
        </mxCell>
        <mxCell id="w-6r28DezkTKs4tXM-bR-710" value="end" style="text;html=1;strokeColor=none;fillColor=none;align=center;verticalAlign=middle;whiteSpace=wrap;rounded=0;fontStyle=1" vertex="1" parent="1">
          <mxGeometry x="-1230" y="1295" width="40" height="40" as="geometry" />
        </mxCell>
        <mxCell id="w-6r28DezkTKs4tXM-bR-711" value="&lt;span&gt;block&lt;/span&gt;" style="text;html=1;strokeColor=none;fillColor=none;align=center;verticalAlign=middle;whiteSpace=wrap;rounded=0;fontStyle=1" vertex="1" parent="1">
          <mxGeometry x="-439" y="1351" width="60" height="30" as="geometry" />
        </mxCell>
        <mxCell id="w-6r28DezkTKs4tXM-bR-712" value="&lt;span&gt;block&lt;/span&gt;" style="text;html=1;strokeColor=none;fillColor=none;align=center;verticalAlign=middle;whiteSpace=wrap;rounded=0;fontStyle=1" vertex="1" parent="1">
          <mxGeometry x="-980" y="1192" width="60" height="30" as="geometry" />
        </mxCell>
        <mxCell id="w-6r28DezkTKs4tXM-bR-713" value="&lt;span&gt;relational_expr&lt;/span&gt;" style="text;html=1;strokeColor=none;fillColor=none;align=center;verticalAlign=middle;whiteSpace=wrap;rounded=0;fontStyle=1" vertex="1" parent="1">
          <mxGeometry x="-770" y="1191" width="60" height="30" as="geometry" />
        </mxCell>
        <mxCell id="w-6r28DezkTKs4tXM-bR-714" value=")" style="text;html=1;strokeColor=none;fillColor=none;align=center;verticalAlign=middle;whiteSpace=wrap;rounded=0;fontStyle=1" vertex="1" parent="1">
          <mxGeometry x="-891" y="1191" width="60" height="30" as="geometry" />
        </mxCell>
        <mxCell id="w-6r28DezkTKs4tXM-bR-715" value="(" style="text;html=1;strokeColor=none;fillColor=none;align=center;verticalAlign=middle;whiteSpace=wrap;rounded=0;fontStyle=1" vertex="1" parent="1">
          <mxGeometry x="-660" y="1192" width="60" height="30" as="geometry" />
        </mxCell>
        <mxCell id="w-6r28DezkTKs4tXM-bR-716" value="&lt;span&gt;block&lt;/span&gt;" style="text;html=1;strokeColor=none;fillColor=none;align=center;verticalAlign=middle;whiteSpace=wrap;rounded=0;fontStyle=1" vertex="1" parent="1">
          <mxGeometry x="-1236" y="1193" width="60" height="30" as="geometry" />
        </mxCell>
        <mxCell id="w-6r28DezkTKs4tXM-bR-717" value="&lt;span&gt;else&lt;/span&gt;" style="text;html=1;strokeColor=none;fillColor=none;align=center;verticalAlign=middle;whiteSpace=wrap;rounded=0;fontStyle=1" vertex="1" parent="1">
          <mxGeometry x="-1120" y="1194" width="60" height="30" as="geometry" />
        </mxCell>
        <mxCell id="w-6r28DezkTKs4tXM-bR-719" value="" style="edgeStyle=orthogonalEdgeStyle;rounded=0;orthogonalLoop=1;jettySize=auto;html=1;exitX=0;exitY=0.5;exitDx=0;exitDy=0;fontStyle=1" edge="1" parent="1" source="w-6r28DezkTKs4tXM-bR-508" target="w-6r28DezkTKs4tXM-bR-510">
          <mxGeometry relative="1" as="geometry">
            <mxPoint x="-340" y="1150" as="targetPoint" />
            <mxPoint x="-145" y="1378" as="sourcePoint" />
            <Array as="points">
              <mxPoint x="-300" y="1378" />
            </Array>
          </mxGeometry>
        </mxCell>
        <mxCell id="w-6r28DezkTKs4tXM-bR-510" value="109" style="rounded=0;whiteSpace=wrap;html=1;fontStyle=1" vertex="1" parent="1">
          <mxGeometry x="-300" y="1358" width="40" height="40" as="geometry" />
        </mxCell>
        <mxCell id="w-6r28DezkTKs4tXM-bR-730" value="&lt;span&gt;identifier&lt;/span&gt;" style="text;html=1;strokeColor=none;fillColor=none;align=center;verticalAlign=middle;whiteSpace=wrap;rounded=0;fontStyle=1" vertex="1" parent="1">
          <mxGeometry x="1011" y="974" width="60" height="30" as="geometry" />
        </mxCell>
        <mxCell id="w-6r28DezkTKs4tXM-bR-731" value="&lt;span&gt;begin&lt;/span&gt;" style="text;html=1;strokeColor=none;fillColor=none;align=center;verticalAlign=middle;whiteSpace=wrap;rounded=0;fontStyle=1" vertex="1" parent="1">
          <mxGeometry x="-505" y="1456" width="60" height="30" as="geometry" />
        </mxCell>
      </root>
    </mxGraphModel>
  </diagram>
</mxfile>
